<svg xmlns="http://www.w3.org/2000/svg" viewBox="0 0 32 32" style="image-rendering:pixelated">
  <!-- 가죽 갑옷 -->
  <!-- 어깨 패드 -->
  <rect x="2"  y="4"  width="8"  height="6"  fill="#8B5E3C"/>
  <rect x="22" y="4"  width="8"  height="6"  fill="#8B5E3C"/>
  <rect x="2"  y="4"  width="8"  height="2"  fill="#AA7A55"/>
  <rect x="22" y="4"  width="8"  height="2"  fill="#AA7A55"/>
  <!-- 몸통 -->
  <rect x="6"  y="8"  width="20" height="16" fill="#8B5E3C"/>
  <rect x="4"  y="10" width="24" height="12" fill="#8B5E3C"/>
  <!-- 하이라이트 -->
  <rect x="6"  y="9"  width="4"  height="8"  fill="#AA7A55"/>
  <rect x="8"  y="8"  width="6"  height="2"  fill="#AA7A55"/>
  <!-- 가슴 스트랩 (X자) -->
  <rect x="8"  y="10" width="2"  height="12" fill="#CC9966"/>
  <rect x="22" y="10" width="2"  height="12" fill="#CC9966"/>
  <rect x="8"  y="10" width="16" height="2"  fill="#CC9966"/>
  <rect x="8"  y="20" width="16" height="2"  fill="#CC9966"/>
  <!-- 버클 (금) -->
  <rect x="14" y="14" width="4"  height="4"  fill="#FFD700"/>
  <rect x="15" y="15" width="2"  height="2"  fill="#FFEE44"/>
  <!-- 하단 가죽 띠 -->
  <rect x="6"  y="24" width="20" height="4"  fill="#7A4E30"/>
  <rect x="6"  y="24" width="20" height="1"  fill="#AA7A55"/>
</svg>
