<svg xmlns="http://www.w3.org/2000/svg" viewBox="0 0 32 32" style="image-rendering:pixelated">
  <!-- 철 갑옷 -->
  <!-- 어깨 판 -->
  <rect x="1"  y="3"  width="10" height="8"  fill="#8898A8"/>
  <rect x="21" y="3"  width="10" height="8"  fill="#8898A8"/>
  <rect x="1"  y="3"  width="10" height="2"  fill="#AABBCC"/>
  <rect x="21" y="3"  width="10" height="2"  fill="#AABBCC"/>
  <rect x="1"  y="4"  width="3"  height="5"  fill="#CCDDE8"/>
  <rect x="28" y="4"  width="3"  height="5"  fill="#CCDDE8"/>
  <!-- 몸통 흉갑 -->
  <rect x="6"  y="9"  width="20" height="16" fill="#8898A8"/>
  <rect x="4"  y="11" width="24" height="12" fill="#8898A8"/>
  <!-- 흉갑 하이라이트 -->
  <rect x="6"  y="10" width="5"  height="9"  fill="#AABBCC"/>
  <rect x="9"  y="9"  width="7"  height="2"  fill="#AABBCC"/>
  <!-- 흉갑 중앙선 -->
  <rect x="15" y="9"  width="2"  height="16" fill="#7788A0"/>
  <!-- 리벳 장식 -->
  <rect x="8"  y="12" width="2"  height="2"  fill="#CCDDE8"/>
  <rect x="22" y="12" width="2"  height="2"  fill="#CCDDE8"/>
  <rect x="8"  y="18" width="2"  height="2"  fill="#CCDDE8"/>
  <rect x="22" y="18" width="2"  height="2"  fill="#CCDDE8"/>
  <!-- 하단 띠 -->
  <rect x="6"  y="24" width="20" height="4"  fill="#7788A0"/>
  <rect x="6"  y="24" width="20" height="1"  fill="#9AAABB"/>
  <!-- 복부 판 -->
  <rect x="8"  y="22" width="16" height="4"  fill="#8898A8"/>
  <rect x="8"  y="22" width="16" height="1"  fill="#AABBCC"/>
</svg>
