<svg xmlns="http://www.w3.org/2000/svg" viewBox="0 0 32 32" style="image-rendering:pixelated">
  <!-- 드래곤 갑옷 -->
  <!-- 어깨 (용 비늘, 뾰족) -->
  <rect x="0"  y="2"  width="11" height="10" fill="#AA1100"/>
  <rect x="21" y="2"  width="11" height="10" fill="#AA1100"/>
  <rect x="0"  y="2"  width="11" height="2"  fill="#CC3300"/>
  <rect x="21" y="2"  width="11" height="2"  fill="#CC3300"/>
  <!-- 어깨 뾰족 가시 -->
  <rect x="2"  y="0"  width="3"  height="4"  fill="#FF4400"/>
  <rect x="7"  y="0"  width="3"  height="4"  fill="#FF4400"/>
  <rect x="22" y="0"  width="3"  height="4"  fill="#FF4400"/>
  <rect x="27" y="0"  width="3"  height="4"  fill="#FF4400"/>
  <rect x="3"  y="0"  width="1"  height="2"  fill="#FF8844"/>
  <rect x="8"  y="0"  width="1"  height="2"  fill="#FF8844"/>
  <rect x="23" y="0"  width="1"  height="2"  fill="#FF8844"/>
  <rect x="28" y="0"  width="1"  height="2"  fill="#FF8844"/>
  <!-- 흉갑 (붉은 비늘) -->
  <rect x="6"  y="9"  width="20" height="16" fill="#AA1100"/>
  <rect x="4"  y="11" width="24" height="12" fill="#AA1100"/>
  <!-- 비늘 패턴 -->
  <rect x="8"  y="10" width="6"  height="4"  fill="#BB2200"/>
  <rect x="18" y="10" width="6"  height="4"  fill="#BB2200"/>
  <rect x="13" y="14" width="6"  height="4"  fill="#BB2200"/>
  <rect x="8"  y="18" width="6"  height="4"  fill="#BB2200"/>
  <rect x="18" y="18" width="6"  fill="#BB2200" height="4"/>
  <!-- 하이라이트 -->
  <rect x="6"  y="10" width="4"  height="7"  fill="#CC3300"/>
  <!-- 중앙 용 문장 (눈) -->
  <rect x="14" y="13" width="4"  height="6"  fill="#FF4400"/>
  <rect x="13" y="14" width="6"  height="4"  fill="#FF4400"/>
  <rect x="15" y="14" width="2"  height="4"  fill="#FFAA00"/>
  <rect x="15" y="15" width="2"  height="2"  fill="#FFFF00"/>
  <!-- 하단 -->
  <rect x="6"  y="24" width="20" height="4"  fill="#880000"/>
  <rect x="6"  y="24" width="20" height="1"  fill="#CC2200"/>
</svg>
