<svg xmlns="http://www.w3.org/2000/svg" viewBox="0 0 16 16" style="image-rendering:pixelated">
  <!-- iron dome -->
  <rect x="3"  y="3" width="10" height="7" fill="#8090A0"/>
  <rect x="2"  y="5" width="12" height="5" fill="#8090A0"/>
  <rect x="4"  y="2" width="8"  height="3" fill="#90A0B0"/>
  <rect x="6"  y="1" width="4"  height="2" fill="#A0B0C0"/>
  <rect x="7"  y="0" width="2"  height="2" fill="#B0C0D0"/>
  <!-- visor slit -->
  <rect x="4"  y="7" width="8" height="2" fill="#2A2A3A"/>
  <rect x="5"  y="7" width="6" height="1" fill="#3A3A4A"/>
  <!-- cheek guards -->
  <rect x="2"  y="8" width="3" height="3" fill="#7080908"/>
  <rect x="11" y="8" width="3" height="3" fill="#708090"/>
  <!-- brim -->
  <rect x="1"  y="9" width="14" height="3" fill="#607080"/>
  <rect x="2"  y="9" width="12" height="1" fill="#8090A0"/>
  <!-- highlight (light) -->
  <rect x="5"  y="2" width="4"  height="1" fill="#C0D0E0"/>
  <rect x="7"  y="1" width="2"  height="1" fill="#D0E0F0"/>
  <!-- rivets -->
  <rect x="4"  y="4" width="1" height="1" fill="#B0C0D0"/>
  <rect x="11" y="4" width="1" height="1" fill="#B0C0D0"/>
</svg>
