<svg xmlns="http://www.w3.org/2000/svg" viewBox="0 0 32 16" style="image-rendering:pixelated">
  <rect x="0" y="0" width="32" height="16" fill="#040410"/>
  <!-- 별들 -->
  <rect x="2"  y="1" width="1" height="1" fill="#FFFFFF"/>
  <rect x="10" y="3" width="1" height="1" fill="#AAAAFF"/>
  <rect x="22" y="1" width="1" height="1" fill="#FFFFFF"/>
  <rect x="29" y="3" width="1" height="1" fill="#CCCCFF"/>
  <!-- 소행성들 (다양한 크기) -->
  <rect x="2"  y="5" width="4" height="3" fill="#5A4828"/>
  <rect x="3"  y="4" width="3" height="4" fill="#6A5838"/>
  <rect x="4"  y="4" width="1" height="1" fill="#8A7858"/>
  <rect x="8"  y="7" width="6" height="4" fill="#4A3818"/>
  <rect x="9"  y="6" width="5" height="5" fill="#5A4828"/>
  <rect x="11" y="6" width="2" height="2" fill="#7A6848"/>
  <rect x="16" y="4" width="3" height="3" fill="#5A4828"/>
  <rect x="17" y="3" width="2" height="4" fill="#6A5838"/>
  <rect x="20" y="6" width="5" height="4" fill="#4A3818"/>
  <rect x="21" y="5" width="4" height="5" fill="#5A4828"/>
  <rect x="26" y="4" width="4" height="3" fill="#4A3818"/>
  <rect x="27" y="4" width="3" height="4" fill="#5A4828"/>
  <!-- 작은 소행성 파편 -->
  <rect x="6"  y="9" width="1" height="1" fill="#6A5838"/>
  <rect x="14" y="5" width="1" height="1" fill="#5A4828"/>
  <rect x="19" y="8" width="1" height="1" fill="#6A5838"/>
  <rect x="25" y="7" width="1" height="1" fill="#5A4828"/>
  <rect x="31" y="6" width="1" height="1" fill="#4A3818"/>
  <rect x="0"  y="8" width="1" height="1" fill="#5A4828"/>
  <!-- 태양 (먼) -->
  <rect x="14" y="0" width="4" height="4" fill="#FFD700"/>
  <rect x="15" y="0" width="2" height="5" fill="#FFD700"/>
  <rect x="14" y="0" width="4" height="1" fill="#FFFFFF"/>
  <!-- 광선 -->
  <rect x="13" y="1" width="1" height="2" fill="#FFD70088"/>
  <rect x="18" y="1" width="1" height="2" fill="#FFD70088"/>
</svg>
