<svg xmlns="http://www.w3.org/2000/svg" viewBox="0 0 32 16" style="image-rendering:pixelated">
  <!-- 밤 하늘 -->
  <rect x="0" y="0" width="32" height="10" fill="#050820"/>
  <!-- 별들 -->
  <rect x="2"  y="1" width="1" height="1" fill="#FFFFFF"/>
  <rect x="8"  y="2" width="1" height="1" fill="#FFFFFF"/>
  <rect x="15" y="1" width="1" height="1" fill="#FFFFFF"/>
  <rect x="22" y="2" width="1" height="1" fill="#FFFFFF"/>
  <rect x="29" y="1" width="1" height="1" fill="#FFFFFF"/>
  <rect x="5"  y="3" width="1" height="1" fill="#CCCCFF"/>
  <rect x="19" y="3" width="1" height="1" fill="#CCCCFF"/>
  <rect x="27" y="3" width="1" height="1" fill="#FFCCFF"/>
  <!-- 오로라 (3색) -->
  <rect x="2"  y="3" width="28" height="2" fill="#00AA4488"/>
  <rect x="0"  y="4" width="32" height="2" fill="#00CC6688"/>
  <rect x="2"  y="5" width="28" height="1" fill="#00FFAA88"/>
  <rect x="5"  y="3" width="12" height="3" fill="#AA00FF44"/>
  <rect x="18" y="4" width="10" height="2" fill="#0044FF44"/>
  <!-- 설원 -->
  <rect x="0" y="10" width="32" height="6" fill="#D0E8F8"/>
  <rect x="0" y="10" width="32" height="1" fill="#FFFFFF"/>
  <!-- 설산 실루엣 -->
  <rect x="0" y="7" width="12" height="4" fill="#B0C8E0"/>
  <rect x="4" y="5" width="6"  height="3" fill="#C8E0F8"/>
  <rect x="6" y="4" width="2"  height="2" fill="#FFFFFF"/>
  <rect x="20" y="7" width="12" height="4" fill="#B0C8E0"/>
  <rect x="22" y="5" width="8"  height="3" fill="#C8E0F8"/>
  <rect x="25" y="4" width="3"  height="2" fill="#FFFFFF"/>
  <!-- 전나무 실루엣 -->
  <rect x="14" y="8" width="2" height="3" fill="#1A4A18"/>
  <rect x="14" y="6" width="4" height="3" fill="#1A4A18"/>
  <rect x="15" y="5" width="2" height="2" fill="#1A4A18"/>
</svg>
