<svg xmlns="http://www.w3.org/2000/svg" viewBox="0 0 32 16" style="image-rendering:pixelated">
  <rect x="0" y="0" width="32" height="16" fill="#020108"/>
  <!-- 별 -->
  <rect x="1"  y="1" width="1" height="1" fill="#FFFFFF"/>
  <rect x="5"  y="3" width="1" height="1" fill="#CCCCFF"/>
  <rect x="28" y="1" width="1" height="1" fill="#FFFFFF"/>
  <rect x="30" y="4" width="1" height="1" fill="#AAAAFF"/>
  <rect x="2"  y="12" width="1" height="1" fill="#FFFFFF"/>
  <rect x="29" y="11" width="1" height="1" fill="#CCCCFF"/>
  <!-- 강착원반 (accretion disk) — 주황/노랑 타원 링 -->
  <rect x="6"  y="6" width="20" height="2" fill="#FF6600"/>
  <rect x="8"  y="5" width="16" height="1" fill="#FF8800"/>
  <rect x="10" y="4" width="12" height="1" fill="#FFAA00"/>
  <rect x="8"  y="8" width="16" height="1" fill="#FF5500"/>
  <rect x="6"  y="9" width="20" height="1" fill="#CC4400"/>
  <!-- 이벤트 호라이즌 (완전한 검정) -->
  <rect x="11" y="5" width="10" height="6" fill="#000000"/>
  <rect x="12" y="4" width="8"  height="8" fill="#000000"/>
  <rect x="13" y="3" width="6"  height="10" fill="#000000"/>
  <rect x="14" y="2" width="4"  height="12" fill="#000000"/>
  <!-- 중심 블랙홀 완전 암흑 -->
  <rect x="13" y="5" width="6" height="6" fill="#000000"/>
  <!-- 왜곡된 별빛 -->
  <rect x="4"  y="5" width="1" height="1" fill="#FF8800"/>
  <rect x="27" y="5" width="1" height="1" fill="#FF6600"/>
  <rect x="4"  y="9" width="1" height="1" fill="#FF6600"/>
  <rect x="27" y="9" width="1" height="1" fill="#FF5500"/>
</svg>
