<svg xmlns="http://www.w3.org/2000/svg" viewBox="0 0 32 16" style="image-rendering:pixelated">
  <rect x="0" y="0" width="32" height="16" fill="#010105"/>
  <!-- 암흑물질 필라멘트 (가느다란 선들) -->
  <rect x="0"  y="4" width="32" height="1" fill="#111130"/>
  <rect x="0"  y="8" width="32" height="1" fill="#111130"/>
  <rect x="0"  y="12" width="32" height="1" fill="#111130"/>
  <rect x="8"  y="0" width="1" height="16" fill="#111130"/>
  <rect x="16" y="0" width="1" height="16" fill="#111130"/>
  <rect x="24" y="0" width="1" height="16" fill="#111130"/>
  <!-- 대각선 필라멘트 -->
  <rect x="0"  y="0" width="1" height="1" fill="#222244"/>
  <rect x="4"  y="2" width="1" height="1" fill="#222244"/>
  <rect x="8"  y="4" width="1" height="1" fill="#222244"/>
  <rect x="12" y="6" width="1" height="1" fill="#222244"/>
  <rect x="16" y="8" width="1" height="1" fill="#222244"/>
  <rect x="20" y="10" width="1" height="1" fill="#222244"/>
  <rect x="24" y="12" width="1" height="1" fill="#222244"/>
  <rect x="28" y="14" width="1" height="1" fill="#222244"/>
  <!-- 은하들 (필라멘트 교차점) -->
  <rect x="7"  y="3" width="3" height="3" fill="#3344AA"/>
  <rect x="8"  y="4" width="1" height="1" fill="#6688FF"/>
  <rect x="15" y="7" width="3" height="3" fill="#3344AA"/>
  <rect x="16" y="8" width="1" height="1" fill="#AABBFF"/>
  <rect x="23" y="3" width="3" height="3" fill="#2233AA"/>
  <rect x="24" y="4" width="1" height="1" fill="#5566EE"/>
  <rect x="7"  y="11" width="3" height="3" fill="#2233AA"/>
  <rect x="8"  y="12" width="1" height="1" fill="#5566EE"/>
  <!-- 희미한 별들 -->
  <rect x="3"  y="1" width="1" height="1" fill="#333355"/>
  <rect x="20" y="2" width="1" height="1" fill="#333355"/>
  <rect x="11" y="14" width="1" height="1" fill="#333355"/>
  <rect x="28" y="9" width="1" height="1" fill="#333355"/>
</svg>
