<svg xmlns="http://www.w3.org/2000/svg" viewBox="0 0 32 16" style="image-rendering:pixelated">
  <rect x="0" y="0" width="32" height="16" fill="#060410"/>
  <!-- 무한 복도 효과 (원근법 박스들) -->
  <!-- 가장 바깥 테두리 -->
  <rect x="0"  y="0" width="32" height="1" fill="#332244"/>
  <rect x="0"  y="15" width="32" height="1" fill="#332244"/>
  <rect x="0"  y="0" width="1" height="16" fill="#332244"/>
  <rect x="31" y="0" width="1" height="16" fill="#332244"/>
  <!-- 두번째 테두리 -->
  <rect x="2"  y="2" width="28" height="1" fill="#443355"/>
  <rect x="2"  y="13" width="28" height="1" fill="#443355"/>
  <rect x="2"  y="2" width="1" height="12" fill="#443355"/>
  <rect x="29" y="2" width="1" height="12" fill="#443355"/>
  <!-- 세번째 -->
  <rect x="5"  y="4" width="22" height="1" fill="#665588"/>
  <rect x="5"  y="11" width="22" height="1" fill="#665588"/>
  <rect x="5"  y="4" width="1" height="8" fill="#665588"/>
  <rect x="26" y="4" width="1" height="8" fill="#665588"/>
  <!-- 네번째 -->
  <rect x="8"  y="5" width="16" height="1" fill="#8877AA"/>
  <rect x="8"  y="10" width="16" height="1" fill="#8877AA"/>
  <rect x="8"  y="5" width="1" height="6" fill="#8877AA"/>
  <rect x="23" y="5" width="1" height="6" fill="#8877AA"/>
  <!-- 다섯번째 -->
  <rect x="11" y="6" width="10" height="1" fill="#AAAACC"/>
  <rect x="11" y="9" width="10" height="1" fill="#AAAACC"/>
  <rect x="11" y="6" width="1" height="4" fill="#AAAACC"/>
  <rect x="20" y="6" width="1" height="4" fill="#AAAACC"/>
  <!-- 중앙 빛 (무한의 끝) -->
  <rect x="14" y="7" width="4" height="2" fill="#EEDDFF"/>
  <rect x="15" y="6" width="2" height="4" fill="#FFFFFF"/>
  <rect x="15" y="7" width="2" height="2" fill="#FFFFFF"/>
  <!-- 황금빛 테두리 장식 -->
  <rect x="1"  y="1" width="2" height="2" fill="#554422"/>
  <rect x="29" y="1" width="2" height="2" fill="#554422"/>
  <rect x="1"  y="13" width="2" height="2" fill="#554422"/>
  <rect x="29" y="13" width="2" height="2" fill="#554422"/>
</svg>
