<svg xmlns="http://www.w3.org/2000/svg" viewBox="0 0 32 16" style="image-rendering:pixelated">
  <rect x="0" y="0" width="32" height="16" fill="#6AB4E0"/>
  <!-- 작은 구름들 -->
  <rect x="2"  y="2" width="5" height="2" fill="#FFFFFF"/>
  <rect x="3"  y="1" width="3" height="3" fill="#FFFFFF"/>
  <rect x="25" y="3" width="5" height="2" fill="#FFFFFF"/>
  <rect x="26" y="2" width="3" height="3" fill="#FFFFFF"/>
  <!-- 부유 섬 (메인) -->
  <rect x="7"  y="6" width="18" height="5" fill="#5C8A1E"/>
  <rect x="6"  y="7" width="20" height="4" fill="#7AAB30"/>
  <rect x="8"  y="6" width="16" height="1" fill="#8ABB40"/>
  <!-- 섬 아래 흙 -->
  <rect x="8"  y="11" width="16" height="4" fill="#8B5A1A"/>
  <rect x="10" y="13" width="12" height="2" fill="#7A4A0A"/>
  <rect x="12" y="14" width="8"  height="2" fill="#5A3A08"/>
  <!-- 작은 부유 섬 -->
  <rect x="0"  y="10" width="5"  height="3" fill="#5C8A1E"/>
  <rect x="0"  y="13" width="5"  height="2" fill="#8B5A1A"/>
  <rect x="26" y="9"  width="6"  height="3" fill="#5C8A1E"/>
  <rect x="26" y="12" width="6"  height="2" fill="#8B5A1A"/>
  <!-- 나무들 -->
  <rect x="10" y="3" width="3"  height="4" fill="#228B22"/>
  <rect x="11" y="2" width="1"  height="5" fill="#1A6B1A"/>
  <rect x="11" y="9" width="1"  height="2" fill="#5A3010"/>
  <rect x="19" y="4" width="3"  height="3" fill="#228B22"/>
  <rect x="20" y="3" width="1"  height="4" fill="#1A6B1A"/>
  <rect x="20" y="9" width="1"  height="2" fill="#5A3010"/>
  <!-- 폭포 -->
  <rect x="14" y="11" width="2" height="5" fill="#4FC3F7"/>
  <rect x="14" y="12" width="1" height="4" fill="#80D8FF"/>
</svg>
