<svg xmlns="http://www.w3.org/2000/svg" viewBox="0 0 32 16" style="image-rendering:pixelated">
  <rect x="0" y="0" width="32" height="16" fill="#020108"/>
  <!-- 나선 팔 (배경) -->
  <rect x="0"  y="5" width="8"  height="6" fill="#110022"/>
  <rect x="24" y="5" width="8"  height="6" fill="#110022"/>
  <rect x="4"  y="2" width="6"  height="4" fill="#220033"/>
  <rect x="22" y="10" width="6" height="4" fill="#220033"/>
  <!-- 나선 팔 세부 -->
  <rect x="2"  y="6" width="6" height="2" fill="#331155"/>
  <rect x="3"  y="5" width="4" height="2" fill="#442266"/>
  <rect x="24" y="8" width="6" height="2" fill="#331155"/>
  <rect x="25" y="9" width="4" height="2" fill="#442266"/>
  <!-- 중간 구역 -->
  <rect x="8"  y="4" width="16" height="8" fill="#331144"/>
  <rect x="9"  y="3" width="14" height="10" fill="#442255"/>
  <!-- 은하 중심핵 (초고밀도 별 집단) -->
  <rect x="10" y="5" width="12" height="6" fill="#665588"/>
  <rect x="11" y="4" width="10" height="8" fill="#887799"/>
  <rect x="12" y="5" width="8"  height="6" fill="#AAAACC"/>
  <rect x="13" y="5" width="6"  height="6" fill="#CCBBDD"/>
  <!-- 중앙 블랙홀 + 별 집중 -->
  <rect x="14" y="6" width="4"  height="4" fill="#FFEEBB"/>
  <rect x="15" y="5" width="2"  height="6" fill="#FFFFFF"/>
  <rect x="14" y="7" width="4"  height="2" fill="#FFFFFF"/>
  <!-- 별 무리 -->
  <rect x="10" y="4" width="1" height="1" fill="#FFDDAA"/>
  <rect x="12" y="3" width="1" height="1" fill="#FFDDAA"/>
  <rect x="20" y="12" width="1" height="1" fill="#FFDDAA"/>
  <rect x="18" y="11" width="1" height="1" fill="#EEBBAA"/>
  <rect x="9"  y="9" width="1" height="1" fill="#FFDDAA"/>
  <rect x="22" y="4" width="1" height="1" fill="#FFDDAA"/>
</svg>
