<svg xmlns="http://www.w3.org/2000/svg" viewBox="0 0 32 16" style="image-rendering:pixelated">
  <rect x="0" y="0" width="32" height="16" fill="#0A2808"/>
  <!-- 하늘 (좁게) -->
  <rect x="7" y="0" width="18" height="3" fill="#4A9A30"/>
  <!-- 야자나무 -->
  <rect x="3" y="2" width="2" height="12" fill="#8B5A1A"/>
  <rect x="0" y="1" width="7" height="3" fill="#2A8A18"/>
  <rect x="1" y="0" width="5" height="2" fill="#1A7A10"/>
  <rect x="22" y="3" width="2" height="11" fill="#8B5A1A"/>
  <rect x="19" y="2" width="7" height="3" fill="#2A8A18"/>
  <rect x="20" y="1" width="5" height="2" fill="#1A7A10"/>
  <!-- 덩굴 -->
  <rect x="13" y="0" width="1" height="8" fill="#3A9A28"/>
  <rect x="13" y="3" width="2" height="1" fill="#2A8A18"/>
  <rect x="13" y="6" width="2" height="1" fill="#2A8A18"/>
  <rect x="28" y="1" width="1" height="6" fill="#3A9A28"/>
  <!-- 바닥 (정글) -->
  <rect x="0" y="12" width="32" height="4" fill="#1A3A10"/>
  <rect x="0" y="12" width="32" height="1" fill="#2A5A18"/>
  <!-- 식물들 -->
  <rect x="7"  y="11" width="3" height="2" fill="#2A8A18"/>
  <rect x="8"  y="10" width="1" height="3" fill="#3A9A28"/>
  <rect x="17" y="11" width="4" height="2" fill="#2A8A18"/>
  <rect x="18" y="10" width="2" height="3" fill="#3A9A28"/>
  <!-- 꽃 -->
  <rect x="11" y="12" width="1" height="1" fill="#FF4488"/>
  <rect x="25" y="11" width="1" height="1" fill="#FFAA00"/>
</svg>
