<svg xmlns="http://www.w3.org/2000/svg" viewBox="0 0 32 16" style="image-rendering:pixelated">
  <rect x="0" y="0" width="32" height="16" fill="#040418"/>
  <!-- 은하수 띠 -->
  <rect x="0"  y="3" width="32" height="10" fill="#0A0830"/>
  <rect x="0"  y="4" width="32" height="8"  fill="#100A38"/>
  <rect x="2"  y="5" width="28" height="6"  fill="#181048"/>
  <rect x="4"  y="6" width="24" height="4"  fill="#201458"/>
  <!-- 은하수 색상 -->
  <rect x="6"  y="6" width="20" height="4"  fill="#280C50"/>
  <rect x="8"  y="7" width="16" height="2"  fill="#381068"/>
  <rect x="10" y="7" width="12" height="2"  fill="#4A1480"/>
  <rect x="12" y="7" width="8"  height="2"  fill="#6820A0"/>
  <!-- 별들 (은하수) -->
  <rect x="5"  y="6" width="1" height="1" fill="#FFFFFF"/>
  <rect x="8"  y="5" width="1" height="1" fill="#FFFFCC"/>
  <rect x="12" y="7" width="1" height="1" fill="#FFFFFF"/>
  <rect x="15" y="6" width="1" height="1" fill="#FFFFCC"/>
  <rect x="18" y="8" width="1" height="1" fill="#FFFFFF"/>
  <rect x="21" y="7" width="1" height="1" fill="#FFFFFF"/>
  <rect x="25" y="6" width="1" height="1" fill="#FFFFCC"/>
  <rect x="28" y="8" width="1" height="1" fill="#FFFFFF"/>
  <!-- 밝은 별들 (주변) -->
  <rect x="1"  y="1" width="1" height="1" fill="#FFFFFF"/>
  <rect x="6"  y="2" width="1" height="1" fill="#CCCCFF"/>
  <rect x="11" y="1" width="1" height="1" fill="#FFFFFF"/>
  <rect x="17" y="2" width="1" height="1" fill="#FFCCFF"/>
  <rect x="23" y="1" width="1" height="1" fill="#CCCCFF"/>
  <rect x="30" y="2" width="1" height="1" fill="#FFFFFF"/>
  <rect x="3"  y="13" width="1" height="1" fill="#FFFFFF"/>
  <rect x="14" y="14" width="1" height="1" fill="#CCCCFF"/>
  <rect x="27" y="13" width="1" height="1" fill="#FFFFFF"/>
  <!-- 성운 (보라) -->
  <rect x="0"  y="4" width="6" height="5" fill="#1A0838"/>
  <rect x="26" y="5" width="6" height="5" fill="#0A1840"/>
</svg>
