<svg xmlns="http://www.w3.org/2000/svg" viewBox="0 0 32 16" style="image-rendering:pixelated">
  <rect x="0" y="0" width="32" height="16" fill="#040410"/>
  <!-- 별 -->
  <rect x="3"  y="1" width="1" height="1" fill="#FFFFFF"/>
  <rect x="12" y="2" width="1" height="1" fill="#FFFFFF"/>
  <rect x="20" y="1" width="1" height="1" fill="#FFFFFF"/>
  <rect x="28" y="2" width="1" height="1" fill="#CCCCFF"/>
  <rect x="7"  y="3" width="1" height="1" fill="#AAAAFF"/>
  <!-- 지구 (배경) -->
  <rect x="22" y="0" width="8" height="8" fill="#1A6080"/>
  <rect x="24" y="0" width="5" height="8" fill="#2A80A0"/>
  <rect x="22" y="1" width="2" height="2" fill="#FFFFFF"/>
  <rect x="26" y="3" width="3" height="2" fill="#FFFFFF"/>
  <rect x="23" y="5" width="2" height="2" fill="#3A7020"/>
  <rect x="27" y="1" width="3" height="2" fill="#3A7020"/>
  <!-- 달 표면 -->
  <rect x="0" y="8" width="32" height="8" fill="#C8C8C0"/>
  <rect x="0" y="8" width="32" height="1" fill="#D8D8D0"/>
  <!-- 크레이터 -->
  <rect x="3"  y="10" width="5" height="3" fill="#B8B8B0"/>
  <rect x="4"  y="10" width="3" height="2" fill="#A8A8A0"/>
  <rect x="15" y="9"  width="6" height="4" fill="#B8B8B0"/>
  <rect x="16" y="9"  width="4" height="3" fill="#A8A8A0"/>
  <rect x="25" y="11" width="4" height="3" fill="#B8B8B0"/>
  <!-- 달 기지 -->
  <rect x="10" y="7"  width="10" height="5" fill="#8090A0"/>
  <rect x="11" y="6"  width="8"  height="3" fill="#90A0B0"/>
  <rect x="12" y="7"  width="6"  height="2" fill="#A0B0C0"/>
  <!-- 창문 (빛) -->
  <rect x="12" y="8"  width="2" height="2" fill="#FFFF88"/>
  <rect x="16" y="8"  width="2" height="2" fill="#FFFF88"/>
  <!-- 안테나 -->
  <rect x="14" y="5"  width="1" height="3" fill="#606070"/>
  <rect x="13" y="4"  width="3" height="1" fill="#606070"/>
</svg>
