<svg xmlns="http://www.w3.org/2000/svg" viewBox="0 0 32 16" style="image-rendering:pixelated">
  <!-- 보라빛 하늘 -->
  <rect x="0" y="0" width="32" height="8" fill="#7A50A0"/>
  <rect x="0" y="0" width="32" height="3" fill="#9A70C0"/>
  <!-- 자주색 땅 -->
  <rect x="0" y="8" width="32" height="8" fill="#5A2A7A"/>
  <rect x="0" y="8" width="32" height="1" fill="#7A4A9A"/>
  <!-- 큰 버섯 1 -->
  <rect x="3"  y="4" width="7" height="5" fill="#FF4444"/>
  <rect x="2"  y="5" width="9" height="4" fill="#FF6666"/>
  <rect x="4"  y="3" width="5" height="3" fill="#FF8888"/>
  <rect x="6"  y="9" width="2" height="5" fill="#EEEECC"/>
  <!-- 버섯 점 -->
  <rect x="4"  y="4" width="1" height="1" fill="#FFFFFF"/>
  <rect x="7"  y="4" width="1" height="1" fill="#FFFFFF"/>
  <rect x="5"  y="6" width="1" height="1" fill="#FFFFFF"/>
  <!-- 큰 버섯 2 -->
  <rect x="20" y="3" width="9" height="5" fill="#4444FF"/>
  <rect x="19" y="4" width="11" height="4" fill="#6666FF"/>
  <rect x="21" y="2" width="7" height="3" fill="#8888FF"/>
  <rect x="23" y="8" width="2" height="5" fill="#EEEECC"/>
  <!-- 버섯 점 -->
  <rect x="21" y="3" width="1" height="1" fill="#FFFFFF"/>
  <rect x="25" y="3" width="1" height="1" fill="#FFFFFF"/>
  <rect x="23" y="5" width="1" height="1" fill="#FFFFFF"/>
  <!-- 작은 버섯들 -->
  <rect x="13" y="7" width="3" height="2" fill="#FFCC00"/>
  <rect x="14" y="6" width="1" height="3" fill="#FFD700"/>
  <rect x="14" y="9" width="1" height="4" fill="#EEEECC"/>
  <!-- 발광 포자 -->
  <rect x="9"  y="5" width="1" height="1" fill="#AAAAFF"/>
  <rect x="16" y="4" width="1" height="1" fill="#FFAAFF"/>
  <rect x="18" y="6" width="1" height="1" fill="#AAFFAA"/>
</svg>
