<svg xmlns="http://www.w3.org/2000/svg" viewBox="0 0 32 16" style="image-rendering:pixelated">
  <!-- 하늘 -->
  <rect x="0" y="0" width="32" height="9" fill="#87CEEB"/>
  <!-- 구름 -->
  <rect x="3" y="2" width="6" height="2" fill="#FFFFFF"/>
  <rect x="4" y="1" width="4" height="3" fill="#FFFFFF"/>
  <rect x="20" y="3" width="5" height="2" fill="#FFFFFF"/>
  <rect x="21" y="2" width="3" height="3" fill="#FFFFFF"/>
  <!-- 태양 -->
  <rect x="27" y="1" width="3" height="3" fill="#FFD700"/>
  <rect x="28" y="0" width="1" height="1" fill="#FFD700"/>
  <!-- 잔디 -->
  <rect x="0" y="9" width="32" height="7" fill="#5C8A1E"/>
  <rect x="0" y="9" width="32" height="2" fill="#7AAB30"/>
  <!-- 나무 1 -->
  <rect x="6" y="5" width="3" height="5" fill="#228B22"/>
  <rect x="7" y="4" width="1" height="5" fill="#1A6B1A"/>
  <rect x="7" y="10" width="1" height="3" fill="#8B5A2B"/>
  <!-- 나무 2 -->
  <rect x="22" y="6" width="3" height="4" fill="#228B22"/>
  <rect x="23" y="5" width="1" height="4" fill="#1A6B1A"/>
  <rect x="23" y="10" width="1" height="3" fill="#8B5A2B"/>
  <!-- 꽃 -->
  <rect x="12" y="10" width="1" height="1" fill="#FF69B4"/>
  <rect x="16" y="11" width="1" height="1" fill="#FFD700"/>
  <rect x="19" y="10" width="1" height="1" fill="#FF4488"/>
</svg>
