<svg xmlns="http://www.w3.org/2000/svg" viewBox="0 0 32 16" style="image-rendering:pixelated">
  <rect x="0" y="0" width="32" height="16" fill="#020412"/>
  <!-- 별 -->
  <rect x="1"  y="2" width="1" height="1" fill="#FFFFFF"/>
  <rect x="7"  y="1" width="1" height="1" fill="#AAAAFF"/>
  <rect x="25" y="2" width="1" height="1" fill="#FFFFFF"/>
  <rect x="30" y="1" width="1" height="1" fill="#CCCCFF"/>
  <rect x="0"  y="13" width="1" height="1" fill="#FFFFFF"/>
  <rect x="31" y="14" width="1" height="1" fill="#AAAAFF"/>
  <!-- 전자기 빔 (좌우로 뻗는 광선) -->
  <rect x="0"  y="7" width="12" height="2" fill="#00FFFF"/>
  <rect x="0"  y="6" width="10" height="1" fill="#0088FF"/>
  <rect x="0"  y="9" width="10" height="1" fill="#0066FF"/>
  <rect x="20" y="7" width="12" height="2" fill="#00FFFF"/>
  <rect x="22" y="6" width="10" height="1" fill="#0088FF"/>
  <rect x="22" y="9" width="10" height="1" fill="#0066FF"/>
  <!-- 빔 코어 (밝은 부분) -->
  <rect x="0"  y="7" width="6" height="2" fill="#FFFFFF"/>
  <rect x="26" y="7" width="6" height="2" fill="#FFFFFF"/>
  <!-- 펄서 중성자별 중심 -->
  <rect x="13" y="6" width="6" height="4" fill="#8888FF"/>
  <rect x="14" y="5" width="4" height="6" fill="#AAAAFF"/>
  <rect x="15" y="5" width="2" height="6" fill="#FFFFFF"/>
  <rect x="14" y="6" width="4" height="4" fill="#DDDDFF"/>
  <!-- 링 패턴 (펄스 파동) -->
  <rect x="10" y="5" width="2" height="6" fill="#4444AA"/>
  <rect x="20" y="5" width="2" height="6" fill="#4444AA"/>
  <rect x="8"  y="6" width="2" height="4" fill="#333388"/>
  <rect x="22" y="6" width="2" height="4" fill="#333388"/>
</svg>
