<svg xmlns="http://www.w3.org/2000/svg" viewBox="0 0 32 16" style="image-rendering:pixelated">
  <rect x="0" y="0" width="32" height="16" fill="#3A3020"/>
  <rect x="0" y="0" width="32" height="6" fill="#5A4A30"/>
  <!-- 돌기둥 1 -->
  <rect x="3"  y="4" width="4" height="12" fill="#7A6848"/>
  <rect x="3"  y="3" width="5" height="2"  fill="#8A7858"/>
  <!-- 부서진 기둥 -->
  <rect x="3"  y="8" width="4" height="1"  fill="#5A4830"/>
  <!-- 돌기둥 2 -->
  <rect x="13" y="2" width="4" height="14" fill="#6A5838"/>
  <rect x="12" y="1" width="6" height="2"  fill="#8A7858"/>
  <!-- 돌기둥 3 (부서짐) -->
  <rect x="23" y="5" width="4" height="11" fill="#7A6848"/>
  <rect x="22" y="4" width="6" height="2"  fill="#8A7858"/>
  <rect x="22" y="9" width="7" height="1"  fill="#5A4830"/>
  <!-- 돌 파편 -->
  <rect x="8"  y="14" width="2" height="1" fill="#8A7858"/>
  <rect x="18" y="13" width="3" height="1" fill="#7A6848"/>
  <rect x="27" y="14" width="2" height="1" fill="#8A7858"/>
  <!-- 덩굴 -->
  <rect x="3"  y="7"  width="1" height="5" fill="#3A7020"/>
  <rect x="23" y="6"  width="1" height="4" fill="#3A7020"/>
  <rect x="13" y="5"  width="1" height="6" fill="#3A7020"/>
  <!-- 모닥불 -->
  <rect x="9"  y="12" width="3" height="2" fill="#8B5A1A"/>
  <rect x="10" y="11" width="1" height="2" fill="#FF8800"/>
  <rect x="9"  y="11" width="3" height="1" fill="#FF4400"/>
  <!-- 바닥 -->
  <rect x="0"  y="14" width="32" height="2" fill="#4A3820"/>
</svg>
