<svg xmlns="http://www.w3.org/2000/svg" viewBox="0 0 32 16" style="image-rendering:pixelated">
  <rect x="0" y="0" width="32" height="16" fill="#050510"/>
  <!-- 어둠 탑들 -->
  <rect x="2"  y="3" width="5" height="13" fill="#0A0A20"/>
  <rect x="2"  y="2" width="6" height="2"  fill="#151528"/>
  <rect x="3"  y="1" width="2" height="2"  fill="#0A0A20"/>
  <rect x="5"  y="0" width="2" height="2"  fill="#0A0A20"/>
  <rect x="14" y="1" width="4" height="15" fill="#0A0A18"/>
  <rect x="13" y="0" width="6" height="2"  fill="#151525"/>
  <rect x="24" y="4" width="5" height="12" fill="#0A0A20"/>
  <rect x="23" y="3" width="7" height="2"  fill="#151528"/>
  <!-- 마법진 바닥 -->
  <rect x="0" y="12" width="32" height="4" fill="#0A0820"/>
  <rect x="0" y="12" width="32" height="1" fill="#150A30"/>
  <rect x="6"  y="12" width="20" height="1" fill="#2A0860"/>
  <rect x="10" y="13" width="12" height="1" fill="#4010908"/>
  <!-- 혼령들 -->
  <rect x="8"  y="6" width="3" height="4" fill="#4030608"/>
  <rect x="9"  y="5" width="1" height="5" fill="#6040A0"/>
  <rect x="8"  y="6" width="1" height="1" fill="#AAAAFF"/>
  <rect x="10" y="6" width="1" height="1" fill="#AAAAFF"/>
  <rect x="20" y="7" width="3" height="4" fill="#603050"/>
  <rect x="21" y="6" width="1" height="5" fill="#904060"/>
  <!-- 불꽃 보라 -->
  <rect x="3"  y="1" width="1" height="2" fill="#8020C0"/>
  <rect x="16" y="0" width="1" height="2" fill="#A030E0"/>
  <rect x="26" y="3" width="1" height="2" fill="#8020C0"/>
  <!-- 눈 빛 -->
  <rect x="9"  y="6" width="1" height="1" fill="#FFFFFF"/>
  <rect x="11" y="6" width="1" height="1" fill="#FFFFFF"/>
  <rect x="21" y="7" width="1" height="1" fill="#FF0000"/>
  <rect x="23" y="7" width="1" height="1" fill="#FF0000"/>
</svg>
