<svg xmlns="http://www.w3.org/2000/svg" viewBox="0 0 32 16" style="image-rendering:pixelated">
  <!-- 하늘 (차가운 파랑) -->
  <rect x="0" y="0" width="32" height="9" fill="#A0C8E0"/>
  <!-- 설산 실루엣 -->
  <rect x="0" y="4" width="10" height="5" fill="#B0C8D8"/>
  <rect x="4" y="2" width="4" height="3" fill="#D0E8F8"/>
  <rect x="5" y="1" width="2" height="2" fill="#FFFFFF"/>
  <rect x="16" y="3" width="12" height="6" fill="#B0C8D8"/>
  <rect x="20" y="1" width="5" height="4" fill="#D0E8F8"/>
  <rect x="22" y="0" width="2" height="2" fill="#FFFFFF"/>
  <!-- 눈 바닥 -->
  <rect x="0" y="9" width="32" height="7" fill="#EEEEEE"/>
  <rect x="0" y="9" width="32" height="2" fill="#FFFFFF"/>
  <!-- 눈송이 -->
  <rect x="4"  y="2" width="1" height="1" fill="#FFFFFF"/>
  <rect x="12" y="1" width="1" height="1" fill="#FFFFFF"/>
  <rect x="20" y="3" width="1" height="1" fill="#FFFFFF"/>
  <rect x="28" y="1" width="1" height="1" fill="#FFFFFF"/>
  <rect x="8"  y="4" width="1" height="1" fill="#FFFFFF"/>
  <rect x="24" y="5" width="1" height="1" fill="#FFFFFF"/>
  <!-- 전나무 -->
  <rect x="7"  y="7" width="3" height="3" fill="#228B22"/>
  <rect x="8"  y="6" width="1" height="4" fill="#1A6B1A"/>
  <rect x="8"  y="11" width="1" height="2" fill="#5A3010"/>
  <rect x="22" y="7" width="3" height="3" fill="#228B22"/>
  <rect x="23" y="6" width="1" height="4" fill="#1A6B1A"/>
  <rect x="23" y="11" width="1" height="2" fill="#5A3010"/>
  <!-- 눈덮인 나무 꼭대기 -->
  <rect x="7" y="6" width="3" height="1" fill="#FFFFFF"/>
  <rect x="22" y="6" width="3" height="1" fill="#FFFFFF"/>
</svg>
