<svg xmlns="http://www.w3.org/2000/svg" viewBox="0 0 32 16" style="image-rendering:pixelated">
  <!-- 폭풍 하늘 -->
  <rect x="0" y="0" width="32" height="16" fill="#1A1A2A"/>
  <rect x="0" y="0" width="32" height="8"  fill="#252535"/>
  <!-- 검은 구름 -->
  <rect x="0"  y="0" width="14" height="5" fill="#2A2A3A"/>
  <rect x="10" y="0" width="12" height="6" fill="#1A1A28"/>
  <rect x="20" y="0" width="12" height="5" fill="#2A2A3A"/>
  <rect x="5"  y="0" width="8"  height="4" fill="#303040"/>
  <rect x="18" y="0" width="8"  height="4" fill="#303040"/>
  <!-- 번개 -->
  <rect x="14" y="3" width="2" height="4" fill="#FFEE00"/>
  <rect x="13" y="5" width="2" height="3" fill="#FFEE00"/>
  <rect x="15" y="8" width="2" height="4" fill="#FFFFFF"/>
  <rect x="25" y="2" width="1" height="3" fill="#FFFFAA"/>
  <rect x="24" y="4" width="2" height="3" fill="#FFFFAA"/>
  <!-- 산봉우리 -->
  <rect x="0"  y="7" width="12" height="9" fill="#383838"/>
  <rect x="4"  y="5" width="6"  height="4" fill="#484848"/>
  <rect x="6"  y="3" width="3"  height="3" fill="#585858"/>
  <rect x="7"  y="2" width="1"  height="2" fill="#888888"/>
  <rect x="20" y="8" width="12" height="8" fill="#383838"/>
  <rect x="22" y="6" width="8"  height="4" fill="#484848"/>
  <rect x="24" y="4" width="5"  height="3" fill="#585858"/>
  <rect x="26" y="3" width="2"  height="2" fill="#888888"/>
  <!-- 눈 꼭대기 -->
  <rect x="6" y="2" width="3" height="1" fill="#DDDDDD"/>
  <rect x="25" y="3" width="4" height="1" fill="#DDDDDD"/>
  <!-- 빗줄기 -->
  <rect x="3"  y="5" width="1" height="3" fill="#4488AA"/>
  <rect x="9"  y="4" width="1" height="3" fill="#4488AA"/>
  <rect x="17" y="5" width="1" height="3" fill="#4488AA"/>
  <rect x="22" y="4" width="1" height="3" fill="#4488AA"/>
  <rect x="29" y="5" width="1" height="3" fill="#4488AA"/>
</svg>
