<svg xmlns="http://www.w3.org/2000/svg" viewBox="0 0 32 16" style="image-rendering:pixelated">
  <rect x="0" y="0" width="32" height="16" fill="#060208"/>
  <!-- 별 (멀리) -->
  <rect x="1"  y="1" width="1" height="1" fill="#FFFFFF"/>
  <rect x="30" y="2" width="1" height="1" fill="#CCCCFF"/>
  <rect x="0"  y="14" width="1" height="1" fill="#FFFFFF"/>
  <rect x="31" y="13" width="1" height="1" fill="#AAAAFF"/>
  <!-- 폭발 충격파 (바깥쪽) -->
  <rect x="4"  y="4" width="24" height="8" fill="#330011"/>
  <rect x="6"  y="2" width="20" height="12" fill="#440011"/>
  <rect x="8"  y="1" width="16" height="14" fill="#550022"/>
  <!-- 중간 폭발 레이어 -->
  <rect x="9"  y="2" width="14" height="12" fill="#882200"/>
  <rect x="10" y="3" width="12" height="10" fill="#BB3300"/>
  <rect x="11" y="4" width="10" height="8"  fill="#EE5500"/>
  <!-- 내부 폭발 -->
  <rect x="12" y="5" width="8"  height="6"  fill="#FF8800"/>
  <rect x="13" y="5" width="6"  height="6"  fill="#FFAA00"/>
  <rect x="13" y="6" width="6"  height="4"  fill="#FFCC00"/>
  <!-- 폭발 중심 (눈부신 흰빛) -->
  <rect x="14" y="6" width="4"  height="4"  fill="#FFFFFF"/>
  <rect x="15" y="5" width="2"  height="6"  fill="#FFFFFF"/>
  <rect x="14" y="5" width="4"  height="1"  fill="#FFEEAA"/>
  <!-- 파편 (debris) -->
  <rect x="3"  y="7" width="1" height="1" fill="#FF5500"/>
  <rect x="28" y="7" width="1" height="1" fill="#FF4400"/>
  <rect x="7"  y="1" width="1" height="1" fill="#FF8800"/>
  <rect x="24" y="14" width="1" height="1" fill="#FF6600"/>
  <rect x="5"  y="13" width="1" height="1" fill="#EE4400"/>
</svg>
