<svg xmlns="http://www.w3.org/2000/svg" viewBox="0 0 32 16" style="image-rendering:pixelated">
  <rect x="0" y="0" width="32" height="16" fill="#1A2A10"/>
  <!-- 안개 하늘 -->
  <rect x="0" y="0" width="32" height="7" fill="#3A4A28"/>
  <!-- 안개 -->
  <rect x="0" y="5" width="32" height="3" fill="#4A5A38"/>
  <rect x="5" y="5" width="8" height="2" fill="#5A6A48"/>
  <rect x="18" y="6" width="10" height="1" fill="#5A6A48"/>
  <!-- 습지 물 -->
  <rect x="0" y="10" width="32" height="6" fill="#2A3A18"/>
  <rect x="0" y="10" width="32" height="1" fill="#3A4A28"/>
  <!-- 물 반짝임 -->
  <rect x="4"  y="11" width="3" height="1" fill="#3A5A28"/>
  <rect x="14" y="12" width="4" height="1" fill="#3A5A28"/>
  <rect x="24" y="11" width="3" height="1" fill="#3A5A28"/>
  <!-- 갈대 -->
  <rect x="2"  y="6" width="1" height="6" fill="#8B6030"/>
  <rect x="1"  y="5" width="3" height="2" fill="#A07040"/>
  <rect x="9"  y="7" width="1" height="5" fill="#8B6030"/>
  <rect x="8"  y="6" width="3" height="2" fill="#A07040"/>
  <rect x="18" y="6" width="1" height="6" fill="#8B6030"/>
  <rect x="26" y="7" width="1" height="5" fill="#8B6030"/>
  <rect x="25" y="6" width="3" height="2" fill="#A07040"/>
  <!-- 연꽃 -->
  <rect x="12" y="11" width="3" height="1" fill="#228B22"/>
  <rect x="13" y="10" width="1" height="1" fill="#FF69B4"/>
  <rect x="22" y="12" width="3" height="1" fill="#228B22"/>
  <!-- 나무 -->
  <rect x="28" y="4" width="3" height="8" fill="#2A4A18"/>
  <rect x="29" y="9" width="1" height="3" fill="#5A3010"/>
</svg>
