<svg xmlns="http://www.w3.org/2000/svg" viewBox="0 0 32 32" style="image-rendering:pixelated;image-rendering:crisp-edges">
  <!-- ══ TIARA / CROWN (gold) ══ -->
  <rect x="11" y="0" width="10" height="2" fill="#FFD700"/>
  <rect x="10" y="1" width="12" height="1" fill="#FFEE88"/>
  <rect x="11" y="0" width="2"  height="3" fill="#FFD700"/>
  <rect x="15" y="0" width="2"  height="3" fill="#FFD700"/>
  <rect x="19" y="0" width="2"  height="3" fill="#FFD700"/>
  <rect x="12" y="0" width="1"  height="1" fill="#FF69B4"/>
  <rect x="15" y="0" width="2"  height="1" fill="#FF1493"/>
  <rect x="19" y="0" width="1"  height="1" fill="#FF69B4"/>

  <!-- ══ HAIR (warm golden-pink) ══ -->
  <rect x="9"  y="2" width="14" height="3" fill="#E8A840"/>
  <rect x="8"  y="4" width="2"  height="11" fill="#E8A840"/>
  <rect x="22" y="4" width="2"  height="11" fill="#E8A840"/>
  <rect x="6"  y="6" width="3"  height="9"  fill="#D09030"/>
  <rect x="23" y="6" width="3"  height="9"  fill="#D09030"/>
  <rect x="5"  y="9" width="2"  height="6"  fill="#B87820"/>
  <rect x="25" y="9" width="2"  height="6"  fill="#B87820"/>
  <rect x="12" y="2" width="8"  height="1"  fill="#FFD060"/>
  <rect x="8"  y="15" width="4" height="3"  fill="#E8A840"/>
  <rect x="20" y="15" width="4" height="3"  fill="#E8A840"/>

  <!-- ══ FACE (fair princess) ══ -->
  <rect x="9"  y="5"  width="14" height="11" fill="#FFEECC"/>
  <rect x="10" y="16" width="12" height="1"  fill="#FFEECC"/>
  <rect x="11" y="17" width="10" height="1"  fill="#FFEECC"/>

  <!-- ══ EYEBROWS ══ -->
  <rect x="10" y="6" width="4" height="1" fill="#C87820"/>
  <rect x="18" y="6" width="4" height="1" fill="#C87820"/>

  <!-- ══ EYES (big sparkly pink) ══ -->
  <rect x="10" y="8" width="5" height="5" fill="#1A0828"/>
  <rect x="10" y="8" width="5" height="4" fill="#D03080"/>
  <rect x="10" y="8" width="5" height="2" fill="#FF69B4"/>
  <rect x="14" y="8" width="1" height="1" fill="#FFFFFF"/>
  <rect x="10" y="12" width="2" height="1" fill="#FF99CC"/>
  <rect x="9"  y="8" width="1" height="1" fill="#1A0828"/>
  <rect x="15" y="8" width="1" height="1" fill="#1A0828"/>
  <rect x="17" y="8" width="5" height="5" fill="#1A0828"/>
  <rect x="17" y="8" width="5" height="4" fill="#D03080"/>
  <rect x="17" y="8" width="5" height="2" fill="#FF69B4"/>
  <rect x="17" y="8" width="1" height="1" fill="#FFFFFF"/>
  <rect x="21" y="12" width="2" height="1" fill="#FF99CC"/>
  <rect x="16" y="8" width="1" height="1" fill="#1A0828"/>
  <rect x="22" y="8" width="1" height="1" fill="#1A0828"/>

  <!-- ══ NOSE + CHEEKS + MOUTH ══ -->
  <rect x="15" y="11" width="2" height="1" fill="#EEBB88"/>
  <rect x="9"  y="11" width="3" height="2" fill="#FFB0C8"/>
  <rect x="20" y="11" width="3" height="2" fill="#FFB0C8"/>
  <rect x="12" y="14" width="8" height="1" fill="#FF6090"/>
  <rect x="11" y="13" width="1" height="1" fill="#FF6090"/>
  <rect x="20" y="13" width="1" height="1" fill="#FF6090"/>

  <!-- ══ NECK ══ -->
  <rect x="14" y="18" width="4" height="2" fill="#FFEECC"/>

  <!-- ══ PRINCESS DRESS (NO accessories, arms open) ══ -->
  <rect x="11" y="18" width="10" height="1" fill="#FFFFFF"/>
  <rect x="10" y="19" width="12" height="4" fill="#F060A0"/>
  <rect x="10" y="19" width="12" height="1" fill="#FF90C0"/>
  <!-- ribbon bow -->
  <rect x="13" y="19" width="3" height="2" fill="#FF1493"/>
  <rect x="16" y="19" width="3" height="2" fill="#FF1493"/>
  <rect x="15" y="20" width="2" height="1" fill="#CC0060"/>

  <!-- ══ ARMS (open, relaxed at sides) ══ -->
  <rect x="7"  y="19" width="4" height="7" fill="#F060A0"/>
  <rect x="21" y="19" width="4" height="7" fill="#F060A0"/>
  <!-- hands -->
  <rect x="6"  y="25" width="4" height="3" fill="#FFEECC"/>
  <rect x="22" y="25" width="4" height="3" fill="#FFEECC"/>

  <!-- skirt -->
  <rect x="8"  y="23" width="16" height="3" fill="#F060A0"/>
  <rect x="8"  y="23" width="16" height="1" fill="#FF90C0"/>
  <rect x="7"  y="26" width="18" height="3" fill="#E04090"/>
  <rect x="7"  y="26" width="18" height="1" fill="#F060A0"/>
  <rect x="6"  y="29" width="20" height="1" fill="#FF90C0"/>

  <!-- ══ LEGS ══ -->
  <rect x="11" y="29" width="4" height="2" fill="#FFFFFF"/>
  <rect x="17" y="29" width="4" height="2" fill="#FFFFFF"/>

  <!-- ══ SHOES (normal, not glass) ══ -->
  <rect x="10" y="31" width="5" height="1" fill="#E04090"/>
  <rect x="17" y="31" width="5" height="1" fill="#E04090"/>
</svg>
