<svg xmlns="http://www.w3.org/2000/svg" viewBox="0 0 32 32" style="image-rendering:pixelated;image-rendering:crisp-edges">
  <!-- ══ HAIR (vibrant purple spiky) ══ -->
  <rect x="12" y="0" width="3" height="3" fill="#7020C0"/>
  <rect x="17" y="0" width="3" height="3" fill="#7020C0"/>
  <rect x="10" y="1" width="12" height="3" fill="#8030D8"/>
  <rect x="9"  y="3" width="14" height="2" fill="#9040E8"/>
  <rect x="8"  y="4" width="2"  height="9" fill="#7020C0"/>
  <rect x="22" y="4" width="2"  height="9" fill="#7020C0"/>
  <rect x="13" y="0" width="1"  height="2" fill="#A060F0"/>
  <rect x="18" y="0" width="1"  height="2" fill="#A060F0"/>
  <rect x="7"  y="5" width="2"  height="6" fill="#5010A0"/>
  <rect x="23" y="5" width="2"  height="6" fill="#5010A0"/>
  <rect x="9"  y="13" width="3" height="1" fill="#7020C0"/>
  <rect x="20" y="13" width="3" height="1" fill="#7020C0"/>

  <!-- ══ FACE ══ -->
  <rect x="9"  y="5"  width="14" height="9" fill="#F5C17A"/>
  <rect x="10" y="14" width="12" height="1" fill="#F5C17A"/>
  <rect x="11" y="15" width="10" height="1" fill="#F5C17A"/>

  <!-- ══ EYEBROWS (fierce) ══ -->
  <rect x="10" y="6" width="5" height="1" fill="#4010A0"/>
  <rect x="17" y="6" width="5" height="1" fill="#4010A0"/>
  <rect x="14" y="6" width="1" height="1" fill="#200870"/>
  <rect x="17" y="6" width="1" height="1" fill="#200870"/>

  <!-- ══ EYES (fierce violet) ══ -->
  <rect x="10" y="8" width="5" height="4" fill="#1A0828"/>
  <rect x="10" y="8" width="5" height="3" fill="#8020D0"/>
  <rect x="10" y="8" width="5" height="1" fill="#C060FF"/>
  <rect x="14" y="8" width="1" height="1" fill="#FFFFFF"/>
  <rect x="9"  y="8" width="1" height="2" fill="#DDA055"/>
  <rect x="17" y="8" width="5" height="4" fill="#1A0828"/>
  <rect x="17" y="8" width="5" height="3" fill="#8020D0"/>
  <rect x="17" y="8" width="5" height="1" fill="#C060FF"/>
  <rect x="17" y="8" width="1" height="1" fill="#FFFFFF"/>

  <!-- ══ NOSE + CHEEKS + MOUTH ══ -->
  <rect x="15" y="11" width="2" height="1" fill="#DDA055"/>
  <rect x="9"  y="11" width="3" height="1" fill="#F0A090"/>
  <rect x="20" y="11" width="3" height="1" fill="#F0A090"/>
  <rect x="13" y="13" width="6" height="1" fill="#CC5533"/>
  <rect x="14" y="14" width="4" height="1" fill="#AA3311"/>

  <!-- ══ NECK ══ -->
  <rect x="14" y="16" width="4" height="2" fill="#F5C17A"/>

  <!-- ══ PURPLE ARMOR BODY (NO weapon in hand) ══ -->
  <rect x="5"  y="17" width="6" height="5" fill="#6020A0"/>
  <rect x="21" y="17" width="6" height="5" fill="#6020A0"/>
  <rect x="5"  y="17" width="6" height="1" fill="#9050D0"/>
  <rect x="21" y="17" width="6" height="1" fill="#9050D0"/>
  <!-- shoulder spikes -->
  <rect x="5"  y="16" width="2" height="2" fill="#8030C0"/>
  <rect x="8"  y="15" width="2" height="3" fill="#8030C0"/>
  <rect x="22" y="16" width="2" height="2" fill="#8030C0"/>
  <rect x="21" y="15" width="2" height="3" fill="#8030C0"/>
  <rect x="5"  y="21" width="6" height="1" fill="#FFD700"/>
  <rect x="21" y="21" width="6" height="1" fill="#FFD700"/>
  <rect x="11" y="17" width="10" height="1" fill="#FFD700"/>
  <!-- chest plate -->
  <rect x="9"  y="18" width="14" height="7" fill="#6020A0"/>
  <rect x="10" y="18" width="5"  height="2" fill="#9050D0"/>
  <!-- center jewel (smaller without hands blocking) -->
  <rect x="14" y="20" width="4" height="4" fill="#C060FF"/>
  <rect x="15" y="19" width="2" height="5" fill="#E090FF"/>
  <rect x="14" y="21" width="4" height="2" fill="#8020D0"/>
  <!-- armor lines -->
  <rect x="9"  y="18" width="2" height="7" fill="#401080"/>
  <rect x="21" y="18" width="2" height="7" fill="#401080"/>

  <!-- ══ BELT ══ -->
  <rect x="9"  y="25" width="14" height="2" fill="#401080"/>
  <rect x="9"  y="25" width="14" height="1" fill="#6020A0"/>
  <rect x="14" y="24" width="4"  height="3" fill="#FFD700"/>

  <!-- ══ ARMS (relaxed, empty hands) ══ -->
  <rect x="6"  y="19" width="4" height="7" fill="#6020A0"/>
  <rect x="22" y="19" width="4" height="7" fill="#6020A0"/>
  <!-- hands -->
  <rect x="5"  y="25" width="4" height="3" fill="#F5C17A"/>
  <rect x="23" y="25" width="4" height="3" fill="#F5C17A"/>

  <!-- ══ LEGS ══ -->
  <rect x="10" y="27" width="5" height="3" fill="#300860"/>
  <rect x="17" y="27" width="5" height="3" fill="#300860"/>

  <!-- ══ ARMORED BOOTS ══ -->
  <rect x="9"  y="30" width="6" height="2" fill="#401080"/>
  <rect x="9"  y="30" width="6" height="1" fill="#6020A0"/>
  <rect x="17" y="30" width="6" height="2" fill="#401080"/>
  <rect x="17" y="30" width="6" height="1" fill="#6020A0"/>
</svg>
