<svg xmlns="http://www.w3.org/2000/svg" viewBox="0 0 32 32" style="image-rendering:pixelated;image-rendering:crisp-edges">
  <!-- ══ WITCH HAT (tall, dark purple) ══ -->
  <rect x="15" y="0" width="2" height="1" fill="#2A0048"/>
  <rect x="14" y="1" width="4" height="1" fill="#3A0060"/>
  <rect x="13" y="2" width="6" height="1" fill="#3A0060"/>
  <rect x="12" y="3" width="8" height="1" fill="#4A1080"/>
  <rect x="11" y="4" width="10" height="1" fill="#4A1080"/>
  <rect x="10" y="5" width="12" height="2" fill="#5A20A0"/>
  <!-- hat band gold -->
  <rect x="9"  y="7" width="14" height="2" fill="#FFD700"/>
  <rect x="9"  y="7" width="14" height="1" fill="#FFEE88"/>
  <!-- hat brim -->
  <rect x="6"  y="9" width="20" height="2" fill="#3A0060"/>
  <rect x="6"  y="9" width="20" height="1" fill="#5A1090"/>
  <!-- star on hat -->
  <rect x="19" y="5" width="1" height="1" fill="#FFD700"/>
  <rect x="11" y="4" width="1" height="1" fill="#C0C0FF"/>

  <!-- ══ HAIR (dark purple, flowing) ══ -->
  <rect x="7"  y="11" width="2" height="10" fill="#5A1090"/>
  <rect x="23" y="11" width="2" height="10" fill="#5A1090"/>
  <rect x="6"  y="13" width="2" height="9"  fill="#3A0060"/>
  <rect x="24" y="13" width="2" height="9"  fill="#3A0060"/>
  <rect x="7"  y="21" width="4" height="3"  fill="#5A1090"/>
  <rect x="21" y="21" width="4" height="3"  fill="#5A1090"/>

  <!-- ══ FACE ══ -->
  <rect x="9"  y="11" width="14" height="10" fill="#FFDDAA"/>
  <rect x="10" y="21" width="12" height="1"  fill="#FFDDAA"/>
  <rect x="11" y="22" width="10" height="1"  fill="#FFDDAA"/>

  <!-- ══ EYEBROWS ══ -->
  <rect x="10" y="12" width="4" height="1" fill="#3A0060"/>
  <rect x="18" y="12" width="4" height="1" fill="#3A0060"/>

  <!-- ══ EYES (mysterious purple) ══ -->
  <rect x="10" y="14" width="5" height="4" fill="#1A0828"/>
  <rect x="10" y="14" width="5" height="3" fill="#7030B8"/>
  <rect x="10" y="14" width="5" height="1" fill="#B060F0"/>
  <rect x="14" y="14" width="1" height="1" fill="#FFFFFF"/>
  <rect x="9"  y="14" width="1" height="1" fill="#1A0828"/>
  <rect x="15" y="14" width="1" height="1" fill="#1A0828"/>
  <rect x="17" y="14" width="5" height="4" fill="#1A0828"/>
  <rect x="17" y="14" width="5" height="3" fill="#7030B8"/>
  <rect x="17" y="14" width="5" height="1" fill="#B060F0"/>
  <rect x="17" y="14" width="1" height="1" fill="#FFFFFF"/>
  <rect x="16" y="14" width="1" height="1" fill="#1A0828"/>
  <rect x="22" y="14" width="1" height="1" fill="#1A0828"/>

  <!-- ══ NOSE + CHEEKS + MOUTH ══ -->
  <rect x="15" y="17" width="2" height="1" fill="#EEB888"/>
  <rect x="9"  y="17" width="3" height="1" fill="#F0B0C0"/>
  <rect x="20" y="17" width="3" height="1" fill="#F0B0C0"/>
  <rect x="13" y="19" width="6" height="1" fill="#AA3355"/>
  <rect x="12" y="18" width="1" height="1" fill="#AA3355"/>
  <rect x="19" y="18" width="1" height="1" fill="#AA3355"/>

  <!-- ══ NECK ══ -->
  <rect x="14" y="23" width="4" height="2" fill="#FFDDAA"/>

  <!-- ══ FAIRY DRESS ══ -->
  <rect x="10" y="23" width="12" height="2" fill="#8840C0"/>
  <rect x="10" y="23" width="12" height="1" fill="#B070E8"/>
  <rect x="8"  y="25" width="16" height="2" fill="#9050D0"/>
  <rect x="8"  y="25" width="16" height="1" fill="#C090F0"/>
  <!-- fairy skirt (layered, light) -->
  <rect x="7"  y="27" width="18" height="2" fill="#C080F0"/>
  <rect x="7"  y="27" width="18" height="1" fill="#E0B0FF"/>
  <!-- sparkles on skirt -->
  <rect x="10" y="27" width="1" height="1" fill="#FFFFFF"/>
  <rect x="15" y="28" width="1" height="1" fill="#FFFFFF"/>
  <rect x="20" y="27" width="1" height="1" fill="#FFFFFF"/>
  <rect x="12" y="26" width="1" height="1" fill="#FFD700"/>
  <rect x="19" y="26" width="1" height="1" fill="#FFD700"/>

  <!-- ══ ARMS ══ -->
  <rect x="6"  y="25" width="3" height="5" fill="#6030A0"/>
  <rect x="23" y="25" width="3" height="5" fill="#6030A0"/>
  <!-- hands -->
  <rect x="5"  y="28" width="3" height="2" fill="#FFDDAA"/>
  <rect x="24" y="28" width="3" height="2" fill="#FFDDAA"/>

  <!-- ══ FAIRY LEGS (light lavender stockings) ══ -->
  <rect x="11" y="29" width="4" height="1" fill="#E8D0FF"/>
  <rect x="17" y="29" width="4" height="1" fill="#E8D0FF"/>

  <!-- ══ FAIRY SHOES (sparkly purple) ══ -->
  <rect x="10" y="30" width="5" height="2" fill="#C060F0"/>
  <rect x="10" y="30" width="5" height="1" fill="#E090FF"/>
  <rect x="17" y="30" width="5" height="2" fill="#C060F0"/>
  <rect x="17" y="30" width="5" height="1" fill="#E090FF"/>
</svg>
