<svg xmlns="http://www.w3.org/2000/svg" viewBox="0 0 32 32" style="image-rendering:pixelated;image-rendering:crisp-edges">
  <!-- ══ 나뭇잎 왕관 ══ -->
  <rect x="8"  y="1" width="4" height="4" fill="#3A7820"/>
  <rect x="13" y="0" width="4" height="4" fill="#3A7820"/>
  <rect x="20" y="1" width="4" height="4" fill="#3A7820"/>
  <rect x="10" y="1" width="12" height="3" fill="#4A9028"/>
  <rect x="9"  y="2" width="2"  height="3" fill="#60B040"/>
  <rect x="14" y="1" width="2"  height="3" fill="#60B040"/>
  <rect x="21" y="2" width="2"  height="3" fill="#60B040"/>
  <!-- 꽃 장식 -->
  <rect x="15" y="0" width="2" height="1" fill="#FF8080"/>

  <!-- ══ 머리 (밝은 갈색) ══ -->
  <rect x="8"  y="3" width="2"  height="10" fill="#9B6A30"/>
  <rect x="22" y="3" width="2"  height="10" fill="#9B6A30"/>
  <rect x="7"  y="5" width="2"  height="8"  fill="#7B4A18"/>
  <rect x="23" y="5" width="2"  height="8"  fill="#7B4A18"/>
  <rect x="8"  y="13" width="4" height="2"  fill="#9B6A30"/>
  <rect x="20" y="13" width="4" height="2"  fill="#9B6A30"/>

  <!-- ══ 얼굴 ══ -->
  <rect x="9"  y="4"  width="14" height="10" fill="#F5C17A"/>
  <rect x="10" y="14" width="12" height="1"  fill="#F5C17A"/>
  <rect x="11" y="15" width="10" height="1"  fill="#F5C17A"/>

  <!-- ══ 눈썹 ══ -->
  <rect x="10" y="5" width="5" height="1" fill="#5B3010"/>
  <rect x="17" y="5" width="5" height="1" fill="#5B3010"/>

  <!-- ══ 눈 (녹색, 자연) ══ -->
  <rect x="10" y="7" width="5" height="4" fill="#1A0828"/>
  <rect x="10" y="7" width="5" height="3" fill="#308038"/>
  <rect x="10" y="7" width="5" height="1" fill="#58C058"/>
  <rect x="14" y="7" width="1" height="1" fill="#FFFFFF"/>
  <rect x="17" y="7" width="5" height="4" fill="#1A0828"/>
  <rect x="17" y="7" width="5" height="3" fill="#308038"/>
  <rect x="17" y="7" width="5" height="1" fill="#58C058"/>
  <rect x="17" y="7" width="1" height="1" fill="#FFFFFF"/>

  <!-- ══ 볼·입 ══ -->
  <rect x="9"  y="10" width="3" height="1" fill="#F0A090"/>
  <rect x="20" y="10" width="3" height="1" fill="#F0A090"/>
  <rect x="12" y="12" width="8" height="1" fill="#CC5533"/>
  <rect x="13" y="13" width="6" height="1" fill="#AA3311"/>

  <!-- ══ 목 ══ -->
  <rect x="14" y="16" width="4" height="2" fill="#F5C17A"/>

  <!-- ══ 나무껍질 로브 ══ -->
  <rect x="8"  y="18" width="16" height="2" fill="#7A5A28"/>
  <rect x="8"  y="18" width="16" height="1" fill="#9A7A48"/>
  <!-- 덩굴 칼라 -->
  <rect x="10" y="17" width="12" height="2" fill="#3A7820"/>
  <rect x="11" y="17" width="1"  height="2" fill="#60B040"/>
  <rect x="14" y="17" width="1"  height="2" fill="#60B040"/>
  <rect x="17" y="17" width="1"  height="2" fill="#60B040"/>
  <rect x="20" y="17" width="1"  height="2" fill="#60B040"/>
  <!-- 로브 몸통 -->
  <rect x="9"  y="20" width="14" height="6" fill="#7A5A28"/>
  <rect x="10" y="20" width="5"  height="3" fill="#9A7A48"/>
  <!-- 자연 무늬 (잎사귀) -->
  <rect x="14" y="22" width="4" height="3" fill="#3A7820"/>
  <rect x="13" y="23" width="6" height="2" fill="#4A9028"/>
  <rect x="15" y="22" width="2" height="3" fill="#60B040"/>
  <!-- 로브 옆단 -->
  <rect x="7"  y="20" width="3" height="8" fill="#6B4A18"/>
  <rect x="22" y="20" width="3" height="8" fill="#6B4A18"/>

  <!-- ══ 벨트 (포도나무) ══ -->
  <rect x="9"  y="26" width="14" height="2" fill="#3A7820"/>
  <rect x="9"  y="26" width="14" height="1" fill="#60B040"/>

  <!-- ══ 다리·부츠 ══ -->
  <rect x="10" y="28" width="5" height="2" fill="#5A3A18"/>
  <rect x="17" y="28" width="5" height="2" fill="#5A3A18"/>
  <rect x="9"  y="30" width="6" height="2" fill="#4A5A20"/>
  <rect x="9"  y="30" width="6" height="1" fill="#6A8A30"/>
  <rect x="17" y="30" width="6" height="2" fill="#4A5A20"/>
  <rect x="17" y="30" width="6" height="1" fill="#6A8A30"/>
</svg>
