<svg xmlns="http://www.w3.org/2000/svg" viewBox="0 0 32 32" style="image-rendering:pixelated;image-rendering:crisp-edges">
  <!-- ══ 마검사 — 검은 머리 스파이크 ══ -->
  <rect x="10" y="0" width="3"  height="3" fill="#1A1020"/>
  <rect x="19" y="0" width="3"  height="3" fill="#1A1020"/>
  <rect x="9"  y="1" width="14" height="3" fill="#201828"/>
  <rect x="8"  y="3" width="16" height="3" fill="#2A2030"/>
  <rect x="7"  y="4" width="2"  height="9" fill="#1A1020"/>
  <rect x="23" y="4" width="2"  height="9" fill="#1A1020"/>
  <rect x="8"  y="13" width="3" height="2" fill="#201828"/>
  <rect x="21" y="13" width="3" height="2" fill="#201828"/>

  <!-- ══ 얼굴 ══ -->
  <rect x="9"  y="5"  width="14" height="9" fill="#E8A860"/>
  <rect x="10" y="14" width="12" height="1" fill="#E8A860"/>
  <rect x="11" y="15" width="10" height="1" fill="#E8A860"/>

  <!-- ══ 눈썹·눈 (전기 보라) ══ -->
  <rect x="10" y="6"  width="5" height="1" fill="#0A0818"/>
  <rect x="17" y="6"  width="5" height="1" fill="#0A0818"/>
  <rect x="10" y="8"  width="5" height="4" fill="#1A0828"/>
  <rect x="10" y="8"  width="5" height="3" fill="#6020C0"/>
  <rect x="10" y="8"  width="5" height="1" fill="#C040FF"/>
  <rect x="14" y="8"  width="1" height="1" fill="#FFFFFF"/>
  <rect x="17" y="8"  width="5" height="4" fill="#1A0828"/>
  <rect x="17" y="8"  width="5" height="3" fill="#6020C0"/>
  <rect x="17" y="8"  width="5" height="1" fill="#C040FF"/>
  <rect x="17" y="8"  width="1" height="1" fill="#FFFFFF"/>

  <!-- ══ 볼·입 (날카로운 미소) ══ -->
  <rect x="13" y="12" width="7"  height="1" fill="#AA3311"/>
  <rect x="12" y="11" width="1"  height="1" fill="#AA3311"/>
  <rect x="19" y="11" width="1"  height="1" fill="#AA3311"/>
  <rect x="14" y="13" width="5"  height="1" fill="#881100"/>

  <!-- ══ 목 ══ -->
  <rect x="14" y="16" width="4" height="2" fill="#E8A860"/>

  <!-- ══ 마검사 갑옷 ══ -->
  <!-- 전기 아우라 -->
  <rect x="5"  y="17" width="3" height="10" fill="#6020C0"/>
  <rect x="24" y="17" width="3" height="10" fill="#6020C0"/>
  <rect x="4"  y="20" width="2" height="6"  fill="#C040FF"/>
  <rect x="26" y="20" width="2" height="6"  fill="#C040FF"/>
  <!-- 어깨 (어둠) -->
  <rect x="6"  y="17" width="6"  height="6" fill="#201828"/>
  <rect x="20" y="17" width="6"  height="6" fill="#201828"/>
  <rect x="6"  y="17" width="6"  height="1" fill="#3A2840"/>
  <rect x="20" y="17" width="6"  height="1" fill="#3A2840"/>
  <rect x="6"  y="22" width="6"  height="1" fill="#C040FF"/>
  <rect x="20" y="22" width="6"  height="1" fill="#C040FF"/>
  <rect x="11" y="17" width="1"  height="1" fill="#C040FF"/>
  <rect x="20" y="17" width="1"  height="1" fill="#C040FF"/>
  <!-- 가슴 -->
  <rect x="9"  y="18" width="14" height="7" fill="#181020"/>
  <rect x="10" y="18" width="4"  height="3" fill="#281830"/>
  <!-- 검기 문양 (X자) -->
  <rect x="13" y="20" width="6"  height="1" fill="#C040FF"/>
  <rect x="16" y="19" width="1"  height="5" fill="#C040FF"/>
  <rect x="14" y="20" width="4"  height="3" fill="#A020E0"/>
  <rect x="15" y="20" width="2"  height="3" fill="#C040FF"/>

  <!-- ══ 벨트 ══ -->
  <rect x="9"  y="25" width="14" height="2" fill="#0A0818"/>
  <rect x="9"  y="25" width="14" height="1" fill="#201828"/>
  <rect x="14" y="24" width="4"  height="3" fill="#C040FF"/>

  <!-- ══ 다리·부츠 ══ -->
  <rect x="10" y="27" width="5" height="3" fill="#181020"/>
  <rect x="17" y="27" width="5" height="3" fill="#181020"/>
  <rect x="9"  y="30" width="6" height="2" fill="#100A18"/>
  <rect x="9"  y="30" width="6" height="1" fill="#201828"/>
  <rect x="17" y="30" width="6" height="2" fill="#100A18"/>
  <rect x="17" y="30" width="6" height="1" fill="#201828"/>
</svg>
