<svg xmlns="http://www.w3.org/2000/svg" viewBox="0 0 32 32" style="image-rendering:pixelated;image-rendering:crisp-edges">
  <!-- 별의마법사 — 별빛 왕관 -->
  <rect x="9"  y="0" width="14" height="3" fill="#0A0828"/>
  <!-- 별 5개 -->
  <rect x="9"  y="0" width="2"  height="2" fill="#FFD700"/>
  <rect x="12" y="0" width="2"  height="3" fill="#FFEE00"/>
  <rect x="15" y="0" width="2"  height="4" fill="#FFD700"/>
  <rect x="18" y="0" width="2"  height="3" fill="#FFEE00"/>
  <rect x="21" y="0" width="2"  height="2" fill="#FFD700"/>
  <rect x="10" y="0" width="12" height="2" fill="#1A1040"/>
  <rect x="10" y="0" width="1"  height="1" fill="#FFEE88"/>
  <rect x="13" y="0" width="1"  height="2" fill="#FFEE88"/>
  <rect x="16" y="0" width="1"  height="2" fill="#FFD700"/>
  <rect x="19" y="0" width="1"  height="2" fill="#FFEE88"/>
  <rect x="21" y="0" width="1"  height="1" fill="#FFEE88"/>

  <!-- ══ 머리 (별빛 은발) ══ -->
  <rect x="9"  y="2" width="14" height="3" fill="#8090C0"/>
  <rect x="8"  y="3" width="16" height="3" fill="#9090C8"/>
  <rect x="7"  y="5" width="2"  height="8" fill="#8080B8"/>
  <rect x="23" y="5" width="2"  height="8" fill="#8080B8"/>
  <rect x="8"  y="13" width="3" height="2" fill="#8080B8"/>
  <rect x="21" y="13" width="3" height="2" fill="#8080B8"/>
  <rect x="12" y="2" width="8"  height="1" fill="#C0C8E8"/>

  <!-- ══ 얼굴 ══ -->
  <rect x="9"  y="5"  width="14" height="9" fill="#E8D8C8"/>
  <rect x="10" y="14" width="12" height="1" fill="#E8D8C8"/>
  <rect x="11" y="15" width="10" height="1" fill="#E8D8C8"/>

  <!-- ══ 눈썹·눈 (별빛 금) ══ -->
  <rect x="10" y="6"  width="5" height="1" fill="#5060808"/>
  <rect x="17" y="6"  width="5" height="1" fill="#506080"/>
  <rect x="10" y="8"  width="5" height="4" fill="#1A0828"/>
  <rect x="10" y="8"  width="5" height="3" fill="#806800"/>
  <rect x="10" y="8"  width="5" height="1" fill="#FFD700"/>
  <rect x="14" y="8"  width="1" height="1" fill="#FFFFFF"/>
  <rect x="17" y="8"  width="5" height="4" fill="#1A0828"/>
  <rect x="17" y="8"  width="5" height="3" fill="#806800"/>
  <rect x="17" y="8"  width="5" height="1" fill="#FFD700"/>
  <rect x="17" y="8"  width="1" height="1" fill="#FFFFFF"/>

  <!-- ══ 볼·입 ══ -->
  <rect x="9"  y="11" width="3" height="1" fill="#D0B090"/>
  <rect x="20" y="11" width="3" height="1" fill="#D0B090"/>
  <rect x="13" y="12" width="6" height="1" fill="#AA7744"/>
  <rect x="14" y="13" width="4" height="1" fill="#886633"/>

  <!-- ══ 목 ══ -->
  <rect x="14" y="16" width="4" height="2" fill="#E8D8C8"/>

  <!-- ══ 별의마법사 로브 (우주빛) ══ -->
  <rect x="9"  y="18" width="14" height="2" fill="#0A0828"/>
  <rect x="9"  y="18" width="14" height="1" fill="#1A1840"/>
  <!-- 별자리 칼라 -->
  <rect x="10" y="17" width="12" height="2" fill="#FFD700"/>
  <rect x="11" y="18" width="2"  height="1" fill="#FFEE88"/>
  <rect x="14" y="18" width="2"  height="1" fill="#FFEE88"/>
  <rect x="17" y="18" width="2"  height="1" fill="#FFEE88"/>
  <rect x="20" y="18" width="2"  height="1" fill="#FFEE88"/>
  <!-- 로브 -->
  <rect x="9"  y="20" width="14" height="8" fill="#050318"/>
  <rect x="8"  y="21" width="16" height="7" fill="#080520"/>
  <rect x="10" y="20" width="4"  height="3" fill="#0A0828"/>
  <!-- 별자리 패턴 -->
  <rect x="14" y="22" width="1"  height="1" fill="#FFD700"/>
  <rect x="12" y="24" width="1"  height="1" fill="#FFFFFF"/>
  <rect x="18" y="23" width="1"  height="1" fill="#88CCFF"/>
  <rect x="16" y="25" width="1"  height="1" fill="#FFD700"/>
  <rect x="11" y="26" width="1"  height="1" fill="#FFEE88"/>
  <rect x="20" y="26" width="1"  height="1" fill="#FFFFFF"/>
  <rect x="13" y="28" width="1"  height="1" fill="#FFD700"/>
  <rect x="19" y="27" width="1"  height="1" fill="#88CCFF"/>
  <!-- 별 라인 (연결선) -->
  <rect x="14" y="22" width="5"  height="1" fill="#303060"/>
  <rect x="16" y="22" width="1"  height="4" fill="#303060"/>
  <!-- 로브 옆 -->
  <rect x="7"  y="21" width="3"  height="7" fill="#050318"/>
  <rect x="22" y="21" width="3"  height="7" fill="#050318"/>

  <!-- ══ 다리·부츠 ══ -->
  <rect x="10" y="28" width="5" height="2" fill="#050318"/>
  <rect x="17" y="28" width="5" height="2" fill="#050318"/>
  <rect x="9"  y="30" width="6" height="2" fill="#0A0828"/>
  <rect x="9"  y="30" width="6" height="1" fill="#1A1840"/>
  <rect x="17" y="30" width="6" height="2" fill="#0A0828"/>
  <rect x="17" y="30" width="6" height="1" fill="#1A1840"/>
</svg>
