<svg xmlns="http://www.w3.org/2000/svg" viewBox="0 0 32 32" style="image-rendering:pixelated;image-rendering:crisp-edges">
  <!-- ══ 신성 후광 ══ -->
  <rect x="9"  y="0" width="14" height="1" fill="#FFD700"/>
  <rect x="7"  y="1" width="18" height="1" fill="#FFEE88"/>

  <!-- ══ 황금 머리 (신성) ══ -->
  <rect x="9"  y="1" width="14" height="2" fill="#E8D050"/>
  <rect x="8"  y="2" width="16" height="3" fill="#F0DC60"/>
  <rect x="7"  y="4" width="2"  height="9" fill="#E8D050"/>
  <rect x="23" y="4" width="2"  height="9" fill="#E8D050"/>
  <rect x="8"  y="13" width="3" height="2" fill="#E8D050"/>
  <rect x="21" y="13" width="3" height="2" fill="#E8D050"/>

  <!-- ══ 얼굴 ══ -->
  <rect x="9"  y="4"  width="14" height="10" fill="#FFEECC"/>
  <rect x="10" y="14" width="12" height="1"  fill="#FFEECC"/>
  <rect x="11" y="15" width="10" height="1"  fill="#FFEECC"/>

  <!-- ══ 눈썹 ══ -->
  <rect x="10" y="5" width="5" height="1" fill="#C0A820"/>
  <rect x="17" y="5" width="5" height="1" fill="#C0A820"/>

  <!-- ══ 눈 (신성 금빛) ══ -->
  <rect x="10" y="7" width="5" height="4" fill="#1A0828"/>
  <rect x="10" y="7" width="5" height="3" fill="#D0A020"/>
  <rect x="10" y="7" width="5" height="1" fill="#FFEE00"/>
  <rect x="14" y="7" width="1" height="1" fill="#FFFFFF"/>
  <rect x="17" y="7" width="5" height="4" fill="#1A0828"/>
  <rect x="17" y="7" width="5" height="3" fill="#D0A020"/>
  <rect x="17" y="7" width="5" height="1" fill="#FFEE00"/>
  <rect x="17" y="7" width="1" height="1" fill="#FFFFFF"/>

  <!-- ══ 볼·입 ══ -->
  <rect x="9"  y="10" width="3" height="1" fill="#F0B090"/>
  <rect x="20" y="10" width="3" height="1" fill="#F0B090"/>
  <rect x="13" y="12" width="6" height="1" fill="#CC9944"/>
  <rect x="14" y="13" width="4" height="1" fill="#AA7722"/>

  <!-- ══ 목 ══ -->
  <rect x="14" y="16" width="4" height="2" fill="#FFEECC"/>

  <!-- ══ 신성 날개 (작은) ══ -->
  <rect x="4"  y="18" width="5" height="6" fill="#FFFFFF"/>
  <rect x="23" y="18" width="5" height="6" fill="#FFFFFF"/>
  <rect x="3"  y="19" width="5" height="5" fill="#FFFFF0"/>
  <rect x="24" y="19" width="5" height="5" fill="#FFFFF0"/>
  <rect x="4"  y="19" width="3" height="1" fill="#FFD700"/>
  <rect x="25" y="19" width="3" height="1" fill="#FFD700"/>

  <!-- ══ 흰 갑옷 ══ -->
  <rect x="7"  y="18" width="5" height="5" fill="#E8E0C8"/>
  <rect x="20" y="18" width="5" height="5" fill="#E8E0C8"/>
  <rect x="7"  y="18" width="5" height="1" fill="#FFFFF0"/>
  <rect x="20" y="18" width="5" height="1" fill="#FFFFF0"/>
  <rect x="7"  y="22" width="5" height="1" fill="#FFD700"/>
  <rect x="20" y="22" width="5" height="1" fill="#FFD700"/>
  <rect x="10" y="18" width="12" height="1" fill="#FFD700"/>

  <!-- ══ 가슴 ══ -->
  <rect x="9"  y="19" width="14" height="7" fill="#E8E0C8"/>
  <rect x="10" y="19" width="5"  height="2" fill="#FFFFF0"/>
  <!-- 십자 문양 (금) -->
  <rect x="14" y="21" width="4"  height="5" fill="#FFD700"/>
  <rect x="12" y="23" width="8"  height="2" fill="#FFD700"/>
  <rect x="14" y="21" width="4"  height="1" fill="#FFEE88"/>

  <!-- ══ 벨트 ══ -->
  <rect x="9"  y="26" width="14" height="2" fill="#C8A820"/>
  <rect x="9"  y="26" width="14" height="1" fill="#FFD700"/>

  <!-- ══ 다리·부츠 ══ -->
  <rect x="10" y="28" width="5" height="2" fill="#D0C8A0"/>
  <rect x="17" y="28" width="5" height="2" fill="#D0C8A0"/>
  <rect x="9"  y="30" width="6" height="2" fill="#C8A820"/>
  <rect x="9"  y="30" width="6" height="1" fill="#FFD700"/>
  <rect x="17" y="30" width="6" height="2" fill="#C8A820"/>
  <rect x="17" y="30" width="6" height="1" fill="#FFD700"/>
</svg>
