<svg xmlns="http://www.w3.org/2000/svg" viewBox="0 0 32 32" style="image-rendering:pixelated;image-rendering:crisp-edges">
  <!-- ══ WINGS (translucent, behind character) ══ -->
  <!-- left wing -->
  <rect x="0"  y="17" width="8" height="6" fill="#C0E8FF"/>
  <rect x="1"  y="16" width="7" height="7" fill="#C0E8FF"/>
  <rect x="0"  y="17" width="8" height="1" fill="#FFFFFF"/>
  <rect x="0"  y="20" width="6" height="1" fill="#A0C8FF"/>
  <!-- right wing -->
  <rect x="24" y="17" width="8" height="6" fill="#C0E8FF"/>
  <rect x="24" y="16" width="7" height="7" fill="#C0E8FF"/>
  <rect x="24" y="17" width="8" height="1" fill="#FFFFFF"/>
  <rect x="26" y="20" width="6" height="1" fill="#A0C8FF"/>
  <!-- wing sparkles -->
  <rect x="2"  y="17" width="1" height="1" fill="#FFFFFF"/>
  <rect x="5"  y="19" width="1" height="1" fill="#FFFFFF"/>
  <rect x="26" y="17" width="1" height="1" fill="#FFFFFF"/>
  <rect x="29" y="20" width="1" height="1" fill="#FFFFFF"/>

  <!-- ══ HAIR golden blonde ══ -->
  <rect x="9"  y="1" width="14" height="1" fill="#C8A020"/>
  <rect x="8"  y="2" width="16" height="3" fill="#D4B030"/>
  <rect x="7"  y="4" width="2"  height="9" fill="#C8A020"/>
  <rect x="23" y="4" width="2"  height="9" fill="#C8A020"/>
  <!-- flowing curls -->
  <rect x="6"  y="6" width="2"  height="7" fill="#E0C040"/>
  <rect x="24" y="6" width="2"  height="7" fill="#E0C040"/>
  <rect x="5"  y="9" width="2"  height="4" fill="#C8A020"/>
  <rect x="25" y="9" width="2"  height="4" fill="#C8A020"/>
  <!-- flower crown -->
  <rect x="10" y="1" width="2" height="2" fill="#FF69B4"/>
  <rect x="14" y="0" width="4" height="2" fill="#FF69B4"/>
  <rect x="14" y="0" width="4" height="1" fill="#FF99CC"/>
  <rect x="20" y="1" width="2" height="2" fill="#FF69B4"/>
  <!-- hair bottom -->
  <rect x="8"  y="13" width="3" height="3" fill="#C8A020"/>
  <rect x="21" y="13" width="3" height="3" fill="#C8A020"/>

  <!-- ══ FACE skin (fair) ══ -->
  <rect x="9"  y="4"  width="14" height="10" fill="#FFDDAA"/>
  <rect x="10" y="14" width="12" height="1"  fill="#FFDDAA"/>
  <rect x="11" y="15" width="10" height="1"  fill="#FFDDAA"/>

  <!-- ══ EYEBROWS (soft, arched) ══ -->
  <rect x="10" y="5" width="4" height="1" fill="#9A7820"/>
  <rect x="18" y="5" width="4" height="1" fill="#9A7820"/>

  <!-- ══ EYES LEFT (sparkly aqua) ══ -->
  <rect x="10" y="7" width="5" height="4" fill="#1A0828"/>
  <rect x="10" y="7" width="5" height="3" fill="#2090A0"/>
  <rect x="10" y="7" width="5" height="1" fill="#40C0D0"/>
  <rect x="14" y="7" width="1" height="1" fill="#FFFFFF"/>
  <rect x="10" y="10" width="1" height="1" fill="#80E0F0"/>

  <!-- ══ EYES RIGHT ══ -->
  <rect x="17" y="7" width="5" height="4" fill="#1A0828"/>
  <rect x="17" y="7" width="5" height="3" fill="#2090A0"/>
  <rect x="17" y="7" width="5" height="1" fill="#40C0D0"/>
  <rect x="17" y="7" width="1" height="1" fill="#FFFFFF"/>
  <rect x="21" y="10" width="1" height="1" fill="#80E0F0"/>

  <!-- ══ NOSE ══ -->
  <rect x="15" y="10" width="2" height="1" fill="#EEB080"/>

  <!-- ══ CHEEKS (rosy) ══ -->
  <rect x="9"  y="10" width="3" height="2" fill="#FFB0B0"/>
  <rect x="20" y="10" width="3" height="2" fill="#FFB0B0"/>

  <!-- ══ MOUTH (cute smile) ══ -->
  <rect x="12" y="12" width="8" height="1" fill="#FF8080"/>
  <rect x="11" y="11" width="1" height="1" fill="#FF8080"/>
  <rect x="20" y="11" width="1" height="1" fill="#FF8080"/>
  <rect x="13" y="13" width="6" height="1" fill="#DD6060"/>

  <!-- ══ NECK ══ -->
  <rect x="14" y="16" width="4" height="2" fill="#FFDDAA"/>

  <!-- ══ FAIRY DRESS (soft pink gradient) ══ -->
  <!-- top -->
  <rect x="10" y="18" width="12" height="3" fill="#F090C0"/>
  <rect x="10" y="18" width="12" height="1" fill="#FFB0D8"/>
  <!-- ribbon bow -->
  <rect x="12" y="17" width="3" height="2" fill="#FF69B4"/>
  <rect x="17" y="17" width="3" height="2" fill="#FF69B4"/>
  <rect x="14" y="18" width="4" height="1" fill="#FF4499"/>
  <!-- skirt petal layers -->
  <rect x="8"  y="21" width="16" height="3" fill="#F090C0"/>
  <rect x="8"  y="21" width="16" height="1" fill="#FFB0D8"/>
  <rect x="7"  y="24" width="18" height="3" fill="#E070A8"/>
  <rect x="7"  y="24" width="18" height="1" fill="#F090C0"/>
  <rect x="6"  y="27" width="20" height="2" fill="#C85090"/>

  <!-- ══ LEGS (soft) ══ -->
  <rect x="11" y="28" width="4" height="2" fill="#FFEECC"/>
  <rect x="17" y="28" width="4" height="2" fill="#FFEECC"/>

  <!-- ══ SPARKLE SHOES ══ -->
  <rect x="10" y="30" width="5" height="2" fill="#FFD700"/>
  <rect x="10" y="30" width="5" height="1" fill="#FFFFFF"/>
  <rect x="17" y="30" width="5" height="2" fill="#FFD700"/>
  <rect x="17" y="30" width="5" height="1" fill="#FFFFFF"/>
</svg>
