<svg xmlns="http://www.w3.org/2000/svg" viewBox="0 0 32 32" style="image-rendering:pixelated;image-rendering:crisp-edges">
  <!-- ══ HAIR brown bob ══ -->
  <rect x="9"  y="1" width="14" height="1" fill="#5A3010"/>
  <rect x="8"  y="2" width="16" height="3" fill="#6B3A18"/>
  <rect x="7"  y="4" width="2"  height="10" fill="#6B3A18"/>
  <rect x="23" y="4" width="2"  height="10" fill="#6B3A18"/>
  <!-- neat side parts -->
  <rect x="8"  y="14" width="3" height="2" fill="#6B3A18"/>
  <rect x="21" y="14" width="3" height="2" fill="#6B3A18"/>
  <!-- top highlight -->
  <rect x="12" y="2" width="8" height="1" fill="#8A5828"/>

  <!-- ══ FACE skin ══ -->
  <rect x="9"  y="4"  width="14" height="11" fill="#F5C17A"/>
  <rect x="10" y="15" width="12" height="1"  fill="#F5C17A"/>
  <rect x="11" y="16" width="10" height="1"  fill="#F5C17A"/>

  <!-- ══ EYEBROWS ══ -->
  <rect x="10" y="5" width="5" height="1" fill="#3A1808"/>
  <rect x="17" y="5" width="5" height="1" fill="#3A1808"/>

  <!-- ══ GLASSES ══ -->
  <rect x="9"  y="7" width="6" height="5" fill="none"/>
  <rect x="9"  y="7" width="6" height="1" fill="#303030"/>
  <rect x="9"  y="11" width="6" height="1" fill="#303030"/>
  <rect x="9"  y="7" width="1" height="5" fill="#303030"/>
  <rect x="14" y="7" width="1" height="5" fill="#303030"/>
  <rect x="15" y="9" width="2" height="1" fill="#303030"/>
  <rect x="17" y="7" width="6" height="1" fill="#303030"/>
  <rect x="17" y="11" width="6" height="1" fill="#303030"/>
  <rect x="17" y="7" width="1" height="5" fill="#303030"/>
  <rect x="22" y="7" width="1" height="5" fill="#303030"/>

  <!-- ══ EYES (blue - studious) ══ -->
  <rect x="10" y="8" width="4" height="3" fill="#2050B0"/>
  <rect x="10" y="8" width="4" height="1" fill="#4080E0"/>
  <rect x="13" y="8" width="1" height="1" fill="#FFFFFF"/>

  <rect x="18" y="8" width="4" height="3" fill="#2050B0"/>
  <rect x="18" y="8" width="4" height="1" fill="#4080E0"/>
  <rect x="18" y="8" width="1" height="1" fill="#FFFFFF"/>

  <!-- ══ NOSE ══ -->
  <rect x="15" y="11" width="2" height="1" fill="#DDA055"/>

  <!-- ══ CHEEKS ══ -->
  <rect x="9"  y="11" width="3" height="1" fill="#F0A090"/>
  <rect x="20" y="11" width="3" height="1" fill="#F0A090"/>

  <!-- ══ MOUTH (diligent smile) ══ -->
  <rect x="13" y="13" width="6" height="1" fill="#CC5533"/>
  <rect x="14" y="14" width="4" height="1" fill="#AA3311"/>

  <!-- ══ NECK ══ -->
  <rect x="14" y="17" width="4" height="2" fill="#F5C17A"/>

  <!-- ══ UNIFORM (navy jacket) ══ -->
  <!-- white collar/shirt -->
  <rect x="12" y="17" width="8" height="3" fill="#FFFFFF"/>
  <rect x="12" y="17" width="8" height="1" fill="#EEEEEE"/>
  <!-- tie (red) -->
  <rect x="15" y="18" width="2" height="5" fill="#CC1020"/>
  <rect x="15" y="20" width="2" height="1" fill="#AA0810"/>
  <!-- navy jacket -->
  <rect x="8"  y="19" width="7"  height="7" fill="#1A2858"/>
  <rect x="17" y="19" width="7"  height="7" fill="#1A2858"/>
  <rect x="8"  y="19" width="7"  height="1" fill="#2A3878"/>
  <rect x="17" y="19" width="7"  height="1" fill="#2A3878"/>
  <!-- jacket buttons -->
  <rect x="9"  y="22" width="1" height="1" fill="#D0D0D0"/>
  <rect x="9"  y="24" width="1" height="1" fill="#D0D0D0"/>
  <rect x="22" y="22" width="1" height="1" fill="#D0D0D0"/>
  <rect x="22" y="24" width="1" height="1" fill="#D0D0D0"/>
  <!-- school bag strap -->
  <rect x="8"  y="20" width="2" height="6" fill="#8B5030"/>
  <rect x="7"  y="22" width="3" height="3" fill="#A06840"/>

  <!-- ══ BELT/SKIRT ══ -->
  <rect x="8"  y="26" width="16" height="2" fill="#1A2858"/>
  <rect x="7"  y="27" width="18" height="1" fill="#2A3878"/>

  <!-- ══ LEGS (dark stockings) ══ -->
  <rect x="10" y="28" width="5" height="2" fill="#2A2A38"/>
  <rect x="17" y="28" width="5" height="2" fill="#2A2A38"/>

  <!-- ══ SHOES (black) ══ -->
  <rect x="9"  y="30" width="6" height="2" fill="#1A1A28"/>
  <rect x="9"  y="30" width="6" height="1" fill="#2A2A38"/>
  <rect x="17" y="30" width="6" height="2" fill="#1A1A28"/>
  <rect x="17" y="30" width="6" height="1" fill="#2A2A38"/>
</svg>
