<svg xmlns="http://www.w3.org/2000/svg" viewBox="0 0 32 32" style="image-rendering:pixelated;image-rendering:crisp-edges">
  <!-- 태양 기사 투구 (황금+불꽃) -->
  <rect x="8"  y="1" width="16" height="5" fill="#C87020"/>
  <rect x="7"  y="3" width="18" height="4" fill="#E89030"/>
  <!-- 태양 광선 투구 -->
  <rect x="6"  y="0" width="3"  height="4" fill="#FFD700"/>
  <rect x="10" y="0" width="2"  height="3" fill="#FFD700"/>
  <rect x="14" y="0" width="4"  height="3" fill="#FFD700"/>
  <rect x="20" y="0" width="2"  height="3" fill="#FFD700"/>
  <rect x="23" y="0" width="3"  height="4" fill="#FFD700"/>
  <rect x="7"  y="0" width="2"  height="1" fill="#FFEE88"/>
  <rect x="15" y="0" width="2"  height="1" fill="#FFEE88"/>
  <rect x="24" y="0" width="2"  height="1" fill="#FFEE88"/>
  <!-- 바이저 -->
  <rect x="9"  y="5" width="14" height="3" fill="#A86010"/>
  <rect x="10" y="6" width="5"  height="1" fill="#FFD700"/>
  <rect x="17" y="6" width="5"  height="1" fill="#FFD700"/>
  <!-- 목 -->
  <rect x="11" y="8" width="10" height="3" fill="#A86010"/>
  <rect x="14" y="11" width="4" height="2" fill="#FFEECC"/>
  <!-- ══ 태양 기사 갑옷 ══ -->
  <!-- 태양 아우라 -->
  <rect x="3"  y="17" width="4" height="14" fill="#FFD700"/>
  <rect x="25" y="17" width="4" height="14" fill="#FFD700"/>
  <rect x="2"  y="20" width="3" height="9"  fill="#FF8800"/>
  <rect x="27" y="20" width="3" height="9"  fill="#FF8800"/>
  <!-- 어깨 (금) -->
  <rect x="4"  y="17" width="8"  height="6" fill="#C87020"/>
  <rect x="20" y="17" width="8"  height="6" fill="#C87020"/>
  <rect x="4"  y="17" width="8"  height="1" fill="#FFD700"/>
  <rect x="20" y="17" width="8"  height="1" fill="#FFD700"/>
  <rect x="4"  y="22" width="8"  height="1" fill="#FF8800"/>
  <rect x="20" y="22" width="8"  height="1" fill="#FF8800"/>
  <rect x="11" y="17" width="10" height="1" fill="#FFD700"/>
  <!-- 가슴 -->
  <rect x="9"  y="18" width="14" height="6" fill="#A86010"/>
  <rect x="10" y="18" width="5"  height="3" fill="#C87020"/>
  <!-- 태양 문양 -->
  <rect x="14" y="21" width="4"  height="3" fill="#FFD700"/>
  <rect x="13" y="22" width="6"  height="1" fill="#FFD700"/>
  <rect x="15" y="20" width="2"  height="4" fill="#FFEE88"/>
  <rect x="11" y="22" width="3"  height="1" fill="#FF8800"/>
  <rect x="18" y="22" width="3"  height="1" fill="#FF8800"/>
  <!-- ══ 벨트·다리·부츠 ══ -->
  <rect x="9"  y="24" width="14" height="2" fill="#906010"/>
  <rect x="9"  y="24" width="14" height="1" fill="#C87020"/>
  <rect x="10" y="26" width="5"  height="4" fill="#906010"/>
  <rect x="17" y="26" width="5"  height="4" fill="#906010"/>
  <rect x="9"  y="30" width="6"  height="2" fill="#C87020"/>
  <rect x="9"  y="30" width="6"  height="1" fill="#FFD700"/>
  <rect x="17" y="30" width="6"  height="2" fill="#C87020"/>
  <rect x="17" y="30" width="6"  height="1" fill="#FFD700"/>
</svg>
