<svg xmlns="http://www.w3.org/2000/svg" viewBox="0 0 32 32" style="image-rendering:pixelated;image-rendering:crisp-edges">
  <!-- 해왕 — 파도 왕관 -->
  <rect x="8"  y="1" width="16" height="3" fill="#0040A0"/>
  <rect x="7"  y="2" width="18" height="2" fill="#1060C0"/>
  <rect x="9"  y="0" width="3"  height="3" fill="#40C0FF"/>
  <rect x="14" y="0" width="4"  height="4" fill="#00A0FF"/>
  <rect x="15" y="0" width="2"  height="3" fill="#80D0FF"/>
  <rect x="20" y="0" width="3"  height="3" fill="#40C0FF"/>
  <!-- 물결 보석 -->
  <rect x="10" y="1" width="2"  height="1" fill="#00FFCC"/>
  <rect x="20" y="1" width="2"  height="1" fill="#00FFCC"/>
  <!-- ══ 머리 (청록) ══ -->
  <rect x="8"  y="3" width="16" height="3" fill="#0080C0"/>
  <rect x="7"  y="5" width="2"  height="8" fill="#0070B0"/>
  <rect x="23" y="5" width="2"  height="8" fill="#0070B0"/>
  <rect x="8"  y="13" width="4" height="3" fill="#0070B0"/>
  <rect x="20" y="13" width="4" height="3" fill="#0070B0"/>
  <!-- ══ 얼굴 ══ -->
  <rect x="9"  y="5"  width="14" height="9" fill="#E0F0F8"/>
  <rect x="10" y="14" width="12" height="1" fill="#E0F0F8"/>
  <rect x="11" y="15" width="10" height="1" fill="#E0F0F8"/>
  <!-- 눈썹·눈 -->
  <rect x="10" y="6"  width="5" height="1" fill="#003060"/>
  <rect x="17" y="6"  width="5" height="1" fill="#003060"/>
  <rect x="10" y="8"  width="5" height="4" fill="#1A1838"/>
  <rect x="10" y="8"  width="5" height="3" fill="#0060A0"/>
  <rect x="10" y="8"  width="5" height="1" fill="#40C0FF"/>
  <rect x="14" y="8"  width="1" height="1" fill="#FFFFFF"/>
  <rect x="17" y="8"  width="5" height="4" fill="#1A1838"/>
  <rect x="17" y="8"  width="5" height="3" fill="#0060A0"/>
  <rect x="17" y="8"  width="5" height="1" fill="#40C0FF"/>
  <rect x="17" y="8"  width="1" height="1" fill="#FFFFFF"/>
  <!-- 볼·입 -->
  <rect x="9"  y="11" width="3" height="1" fill="#A0D0E8"/>
  <rect x="20" y="11" width="3" height="1" fill="#A0D0E8"/>
  <rect x="13" y="12" width="6" height="1" fill="#4070A0"/>
  <!-- 목 -->
  <rect x="14" y="16" width="4" height="2" fill="#E0F0F8"/>
  <!-- ══ 해왕 갑옷 ══ -->
  <!-- 망토 (파도) -->
  <rect x="4"  y="19" width="5" height="13" fill="#0040A0"/>
  <rect x="23" y="19" width="5" height="13" fill="#0040A0"/>
  <rect x="3"  y="23" width="4" height="9"  fill="#003090"/>
  <rect x="25" y="23" width="4" height="9"  fill="#003090"/>
  <!-- 어깨 -->
  <rect x="6"  y="18" width="6"  height="5" fill="#0060C0"/>
  <rect x="20" y="18" width="6"  height="5" fill="#0060C0"/>
  <rect x="6"  y="18" width="6"  height="1" fill="#40A0FF"/>
  <rect x="20" y="18" width="6"  height="1" fill="#40A0FF"/>
  <rect x="6"  y="22" width="6"  height="1" fill="#00CCFF"/>
  <rect x="20" y="22" width="6"  height="1" fill="#00CCFF"/>
  <rect x="11" y="18" width="10" height="1" fill="#00CCFF"/>
  <!-- 가슴 -->
  <rect x="9"  y="19" width="14" height="6" fill="#0050B0"/>
  <rect x="10" y="19" width="5"  height="3" fill="#0070C8"/>
  <!-- 해왕 문양 (삼지창) -->
  <rect x="14" y="22" width="1"  height="3" fill="#00CCFF"/>
  <rect x="15" y="22" width="1"  height="3" fill="#00CCFF"/>
  <rect x="16" y="22" width="1"  height="3" fill="#00CCFF"/>
  <rect x="13" y="21" width="6"  height="1" fill="#00CCFF"/>
  <rect x="14" y="20" width="1"  height="2" fill="#00FFCC"/>
  <rect x="16" y="20" width="1"  height="2" fill="#00FFCC"/>
  <!-- ══ 벨트·다리·부츠 ══ -->
  <rect x="9"  y="25" width="14" height="2" fill="#003090"/>
  <rect x="9"  y="25" width="14" height="1" fill="#0050B0"/>
  <rect x="10" y="27" width="5"  height="3" fill="#003090"/>
  <rect x="17" y="27" width="5"  height="3" fill="#003090"/>
  <rect x="9"  y="30" width="6"  height="2" fill="#0050B0"/>
  <rect x="9"  y="30" width="6"  height="1" fill="#40A0FF"/>
  <rect x="17" y="30" width="6"  height="2" fill="#0050B0"/>
  <rect x="17" y="30" width="6"  height="1" fill="#40A0FF"/>
</svg>
