<svg xmlns="http://www.w3.org/2000/svg" viewBox="0 0 32 32" style="image-rendering:pixelated;image-rendering:crisp-edges">
  <!-- 얼음 여왕 크리스탈 왕관 -->
  <rect x="8"  y="1" width="16" height="2" fill="#CCEEFF"/>
  <rect x="7"  y="2" width="18" height="2" fill="#AADDFF"/>
  <rect x="9"  y="0" width="3"  height="3" fill="#E8F8FF"/>
  <rect x="14" y="0" width="4"  height="4" fill="#FFFFFF"/>
  <rect x="15" y="0" width="2"  height="3" fill="#CCEEFF"/>
  <rect x="20" y="0" width="3"  height="3" fill="#E8F8FF"/>
  <!-- 왕관 보석 -->
  <rect x="10" y="0" width="1"  height="1" fill="#88CCFF"/>
  <rect x="15" y="0" width="2"  height="1" fill="#AADDFF"/>
  <rect x="21" y="0" width="1"  height="1" fill="#88CCFF"/>
  <!-- ══ 머리 (은발) ══ -->
  <rect x="8"  y="3" width="16" height="3" fill="#DDEEFF"/>
  <rect x="7"  y="5" width="2"  height="8" fill="#CCDDE8"/>
  <rect x="23" y="5" width="2"  height="8" fill="#CCDDE8"/>
  <rect x="6"  y="7" width="2"  height="6" fill="#BBCCD8"/>
  <rect x="24" y="7" width="2"  height="6" fill="#BBCCD8"/>
  <rect x="7"  y="13" width="4" height="3" fill="#CCDDE8"/>
  <rect x="21" y="13" width="4" height="3" fill="#CCDDE8"/>
  <!-- ══ 얼굴 (창백) ══ -->
  <rect x="9"  y="5"  width="14" height="9" fill="#E8F0F8"/>
  <rect x="10" y="14" width="12" height="1" fill="#E8F0F8"/>
  <rect x="11" y="15" width="10" height="1" fill="#E8F0F8"/>
  <!-- 눈썹·눈 -->
  <rect x="10" y="6"  width="5" height="1" fill="#6090B0"/>
  <rect x="17" y="6"  width="5" height="1" fill="#6090B0"/>
  <rect x="10" y="8"  width="5" height="4" fill="#1A1838"/>
  <rect x="10" y="8"  width="5" height="3" fill="#2070A0"/>
  <rect x="10" y="8"  width="5" height="1" fill="#60C0FF"/>
  <rect x="14" y="8"  width="1" height="1" fill="#FFFFFF"/>
  <rect x="17" y="8"  width="5" height="4" fill="#1A1838"/>
  <rect x="17" y="8"  width="5" height="3" fill="#2070A0"/>
  <rect x="17" y="8"  width="5" height="1" fill="#60C0FF"/>
  <rect x="17" y="8"  width="1" height="1" fill="#FFFFFF"/>
  <!-- 볼·입 -->
  <rect x="9"  y="11" width="3" height="1" fill="#B0D0E8"/>
  <rect x="20" y="11" width="3" height="1" fill="#B0D0E8"/>
  <rect x="13" y="12" width="6" height="1" fill="#8090B0"/>
  <!-- 목 -->
  <rect x="14" y="16" width="4" height="2" fill="#E8F0F8"/>
  <!-- ══ 얼음 여왕 드레스 ══ -->
  <rect x="9"  y="18" width="14" height="2" fill="#AADDFF"/>
  <rect x="9"  y="18" width="14" height="1" fill="#CCEEFF"/>
  <rect x="9"  y="20" width="14" height="8" fill="#6090C8"/>
  <rect x="8"  y="21" width="16" height="7" fill="#7090D0"/>
  <rect x="10" y="20" width="4"  height="3" fill="#80A0E0"/>
  <!-- 얼음 결정 드레스 -->
  <rect x="14" y="23" width="4"  height="4" fill="#CCEEFF"/>
  <rect x="13" y="24" width="6"  height="2" fill="#CCEEFF"/>
  <rect x="15" y="22" width="2"  height="5" fill="#AADDFF"/>
  <!-- 얼음 날개 -->
  <rect x="4"  y="19" width="5" height="8" fill="#DDEEFF"/>
  <rect x="23" y="19" width="5" height="8" fill="#DDEEFF"/>
  <rect x="4"  y="19" width="5" height="1" fill="#FFFFFF"/>
  <rect x="23" y="19" width="5" height="1" fill="#FFFFFF"/>
  <!-- 로브 옆 -->
  <rect x="7"  y="21" width="3" height="7" fill="#5080B0"/>
  <rect x="22" y="21" width="3" height="7" fill="#5080B0"/>
  <!-- 다리·부츠 -->
  <rect x="10" y="28" width="5" height="2" fill="#4070A0"/>
  <rect x="17" y="28" width="5" height="2" fill="#4070A0"/>
  <rect x="9"  y="30" width="6" height="2" fill="#5080B8"/>
  <rect x="9"  y="30" width="6" height="1" fill="#AADDFF"/>
  <rect x="17" y="30" width="6" height="2" fill="#5080B8"/>
  <rect x="17" y="30" width="6" height="1" fill="#AADDFF"/>
</svg>
