<svg xmlns="http://www.w3.org/2000/svg" viewBox="0 0 32 32" style="image-rendering:pixelated;image-rendering:crisp-edges">
  <!-- 달빛 마법사 — 달 왕관 -->
  <rect x="9"  y="1" width="14" height="3" fill="#1A1030"/>
  <rect x="8"  y="2" width="16" height="3" fill="#2A2040"/>
  <!-- 달 문양 -->
  <rect x="14" y="0" width="6"  height="4" fill="#D0D0F0"/>
  <rect x="15" y="0" width="5"  height="3" fill="#E8E8FF"/>
  <rect x="16" y="0" width="2"  height="4" fill="#FFFFFF"/>
  <rect x="17" y="1" width="3"  height="2" fill="#1A1030"/>
  <!-- ══ 머리 (달빛 은발) ══ -->
  <rect x="7"  y="4" width="2"  height="8" fill="#5060808"/>
  <rect x="23" y="4" width="2"  height="8" fill="#506080"/>
  <rect x="6"  y="6" width="2"  height="6" fill="#3A4060"/>
  <rect x="24" y="6" width="2"  height="6" fill="#3A4060"/>
  <rect x="8"  y="12" width="3" height="2" fill="#506080"/>
  <rect x="21" y="12" width="3" height="2" fill="#506080"/>
  <!-- ══ 얼굴 ══ -->
  <rect x="9"  y="4"  width="14" height="9" fill="#D8D0E8"/>
  <rect x="10" y="13" width="12" height="1" fill="#D8D0E8"/>
  <rect x="11" y="14" width="10" height="1" fill="#D8D0E8"/>
  <!-- 눈썹·눈 (보라+은) -->
  <rect x="10" y="5"  width="5" height="1" fill="#3A3060"/>
  <rect x="17" y="5"  width="5" height="1" fill="#3A3060"/>
  <rect x="10" y="7"  width="5" height="4" fill="#1A0828"/>
  <rect x="10" y="7"  width="5" height="3" fill="#5040808"/>
  <rect x="10" y="7"  width="5" height="1" fill="#C0B0E8"/>
  <rect x="14" y="7"  width="1" height="1" fill="#FFFFFF"/>
  <rect x="17" y="7"  width="5" height="4" fill="#1A0828"/>
  <rect x="17" y="7"  width="5" height="3" fill="#504080"/>
  <rect x="17" y="7"  width="5" height="1" fill="#C0B0E8"/>
  <rect x="17" y="7"  width="1" height="1" fill="#FFFFFF"/>
  <!-- 볼·입 -->
  <rect x="9"  y="10" width="3" height="1" fill="#B0A8C0"/>
  <rect x="20" y="10" width="3" height="1" fill="#B0A8C0"/>
  <rect x="13" y="11" width="6" height="1" fill="#8070A0"/>
  <!-- 목 -->
  <rect x="14" y="15" width="4" height="2" fill="#D8D0E8"/>
  <!-- ══ 달빛 로브 ══ -->
  <rect x="9"  y="17" width="14" height="2" fill="#1A1030"/>
  <rect x="9"  y="17" width="14" height="1" fill="#3A3060"/>
  <rect x="9"  y="19" width="14" height="8" fill="#100820"/>
  <rect x="8"  y="20" width="16" height="7" fill="#1A1030"/>
  <rect x="10" y="19" width="4"  height="3" fill="#2A2040"/>
  <!-- 달+별 문양 -->
  <rect x="13" y="23" width="6"  height="4" fill="#D0D0F0"/>
  <rect x="12" y="24" width="8"  height="2" fill="#D0D0F0"/>
  <rect x="14" y="22" width="4"  height="5" fill="#B0B0D8"/>
  <rect x="16" y="23" width="3"  height="3" fill="#1A1030"/>
  <rect x="11" y="22" width="1"  height="1" fill="#FFFFFF"/>
  <rect x="20" y="24" width="1"  height="1" fill="#FFFFFF"/>
  <rect x="9"  y="26" width="1"  height="1" fill="#C0C0E0"/>
  <!-- 로브 옆 -->
  <rect x="7"  y="20" width="3"  height="8" fill="#100820"/>
  <rect x="22" y="20" width="3"  height="8" fill="#100820"/>
  <!-- 다리·부츠 -->
  <rect x="10" y="27" width="5" height="3" fill="#100820"/>
  <rect x="17" y="27" width="5" height="3" fill="#100820"/>
  <rect x="9"  y="30" width="6" height="2" fill="#1A1030"/>
  <rect x="9"  y="30" width="6" height="1" fill="#C0B0E8"/>
  <rect x="17" y="30" width="6" height="2" fill="#1A1030"/>
  <rect x="17" y="30" width="6" height="1" fill="#C0B0E8"/>
</svg>
