<svg xmlns="http://www.w3.org/2000/svg" viewBox="0 0 32 32" style="image-rendering:pixelated;image-rendering:crisp-edges">
  <!-- 마녀 고깔 -->
  <rect x="15" y="0" width="2"  height="1" fill="#2A1040"/>
  <rect x="14" y="1" width="4"  height="1" fill="#3A1858"/>
  <rect x="13" y="2" width="6"  height="2" fill="#3A1858"/>
  <rect x="12" y="4" width="8"  height="2" fill="#4A2070"/>
  <rect x="11" y="6" width="10" height="2" fill="#5A3080"/>
  <rect x="7"  y="7" width="18" height="2" fill="#3A1858"/>
  <rect x="6"  y="8" width="20" height="1" fill="#2A1040"/>
  <!-- 별 장식 -->
  <rect x="19" y="3" width="1"  height="1" fill="#FFD700"/>
  <rect x="12" y="5" width="1"  height="1" fill="#FF80FF"/>
  <!-- ══ 머리 (보라) ══ -->
  <rect x="7"  y="8" width="2"  height="8" fill="#5A3080"/>
  <rect x="23" y="8" width="2"  height="8" fill="#5A3080"/>
  <rect x="6"  y="10" width="2" height="6" fill="#3A1858"/>
  <rect x="24" y="10" width="2" height="6" fill="#3A1858"/>
  <rect x="7"  y="16" width="4" height="2" fill="#5A3080"/>
  <rect x="21" y="16" width="4" height="2" fill="#5A3080"/>
  <!-- ══ 얼굴 ══ -->
  <rect x="9"  y="9"  width="14" height="8" fill="#EEDDAA"/>
  <rect x="10" y="17" width="12" height="1" fill="#EEDDAA"/>
  <rect x="11" y="18" width="10" height="1" fill="#EEDDAA"/>
  <!-- 눈썹·눈 -->
  <rect x="10" y="10" width="5" height="1" fill="#3A1858"/>
  <rect x="17" y="10" width="5" height="1" fill="#3A1858"/>
  <rect x="10" y="12" width="5" height="4" fill="#1A0828"/>
  <rect x="10" y="12" width="5" height="3" fill="#7030B0"/>
  <rect x="10" y="12" width="5" height="1" fill="#C060FF"/>
  <rect x="14" y="12" width="1" height="1" fill="#FFFFFF"/>
  <rect x="17" y="12" width="5" height="4" fill="#1A0828"/>
  <rect x="17" y="12" width="5" height="3" fill="#7030B0"/>
  <rect x="17" y="12" width="5" height="1" fill="#C060FF"/>
  <rect x="17" y="12" width="1" height="1" fill="#FFFFFF"/>
  <!-- 코 (마녀 특유) -->
  <rect x="15" y="14" width="3" height="2" fill="#D0AA70"/>
  <rect x="16" y="15" width="2" height="2" fill="#C09060"/>
  <!-- 볼·입 (교활한) -->
  <rect x="13" y="16" width="7" height="1" fill="#AA4422"/>
  <rect x="12" y="15" width="1" height="1" fill="#AA4422"/>
  <rect x="20" y="15" width="1" height="1" fill="#AA4422"/>
  <!-- 목 -->
  <rect x="14" y="19" width="4" height="2" fill="#EEDDAA"/>
  <!-- ══ 마녀 드레스 ══ -->
  <rect x="9"  y="21" width="14" height="2" fill="#3A1858"/>
  <rect x="9"  y="21" width="14" height="1" fill="#5A3080"/>
  <rect x="9"  y="23" width="14" height="7" fill="#2A1040"/>
  <rect x="8"  y="24" width="16" height="6" fill="#3A1858"/>
  <rect x="10" y="23" width="4"  height="3" fill="#4A2070"/>
  <!-- 별 무늬 -->
  <rect x="14" y="26" width="1" height="1" fill="#FFD700"/>
  <rect x="12" y="27" width="1" height="1" fill="#FF80FF"/>
  <rect x="18" y="25" width="1" height="1" fill="#C0C0FF"/>
  <!-- 빗자루 (옆) -->
  <rect x="5"  y="20" width="2"  height="12" fill="#8B5A1A"/>
  <rect x="3"  y="20" width="4"  height="3"  fill="#C8A060"/>
  <rect x="3"  y="21" width="4"  height="1"  fill="#E8C080"/>
  <!-- 로브 옆 -->
  <rect x="7"  y="24" width="3"  height="6" fill="#2A1040"/>
  <rect x="22" y="24" width="3"  height="6" fill="#2A1040"/>
  <!-- 다리·부츠 -->
  <rect x="10" y="30" width="5" height="2" fill="#1A0828"/>
  <rect x="17" y="30" width="5" height="2" fill="#1A0828"/>
</svg>
