<svg xmlns="http://www.w3.org/2000/svg" viewBox="0 0 32 32" style="image-rendering:pixelated;image-rendering:crisp-edges">
  <!-- 룬마스터 — 룬 문자 이마 -->
  <rect x="9"  y="1" width="14" height="4" fill="#2A3060"/>
  <rect x="8"  y="2" width="16" height="3" fill="#3A4070"/>
  <rect x="7"  y="4" width="2"  height="8" fill="#2A3060"/>
  <rect x="23" y="4" width="2"  height="8" fill="#2A3060"/>
  <!-- 룬 문양 이마 -->
  <rect x="13" y="1" width="6"  height="3" fill="#60A0FF"/>
  <rect x="14" y="1" width="1"  height="2" fill="#A0D0FF"/>
  <rect x="16" y="1" width="2"  height="2" fill="#A0D0FF"/>
  <rect x="14" y="3" width="4"  height="1" fill="#60A0FF"/>
  <rect x="8"  y="12" width="3" height="2" fill="#2A3060"/>
  <rect x="21" y="12" width="3" height="2" fill="#2A3060"/>
  <!-- ══ 얼굴 ══ -->
  <rect x="9"  y="4"  width="14" height="9" fill="#E8E0D8"/>
  <rect x="10" y="13" width="12" height="1" fill="#E8E0D8"/>
  <rect x="11" y="14" width="10" height="1" fill="#E8E0D8"/>
  <!-- 눈썹·눈 (룬 파랑) -->
  <rect x="10" y="5"  width="5" height="1" fill="#1A2A60"/>
  <rect x="17" y="5"  width="5" height="1" fill="#1A2A60"/>
  <rect x="10" y="7"  width="5" height="4" fill="#1A0828"/>
  <rect x="10" y="7"  width="5" height="3" fill="#2040A0"/>
  <rect x="10" y="7"  width="5" height="1" fill="#60A0FF"/>
  <rect x="14" y="7"  width="1" height="1" fill="#FFFFFF"/>
  <rect x="17" y="7"  width="5" height="4" fill="#1A0828"/>
  <rect x="17" y="7"  width="5" height="3" fill="#2040A0"/>
  <rect x="17" y="7"  width="5" height="1" fill="#60A0FF"/>
  <rect x="17" y="7"  width="1" height="1" fill="#FFFFFF"/>
  <!-- 볼·입 -->
  <rect x="9"  y="10" width="3" height="1" fill="#C0B8C8"/>
  <rect x="20" y="10" width="3" height="1" fill="#C0B8C8"/>
  <rect x="13" y="11" width="6" height="1" fill="#8090B0"/>
  <!-- 목 -->
  <rect x="14" y="15" width="4" height="2" fill="#E8E0D8"/>
  <!-- ══ 룬마스터 갑옷 ══ -->
  <rect x="9"  y="17" width="14" height="2" fill="#1A2A60"/>
  <rect x="9"  y="17" width="14" height="1" fill="#3A4A80"/>
  <rect x="9"  y="19" width="14" height="8" fill="#101828"/>
  <rect x="8"  y="20" width="16" height="7" fill="#1A2838"/>
  <rect x="10" y="19" width="4"  height="3" fill="#2A3848"/>
  <!-- 어깨 룬 -->
  <rect x="6"  y="17" width="5"  height="5" fill="#1A2A60"/>
  <rect x="21" y="17" width="5"  height="5" fill="#1A2A60"/>
  <rect x="7"  y="18" width="3"  height="2" fill="#60A0FF"/>
  <rect x="22" y="18" width="3"  height="2" fill="#60A0FF"/>
  <!-- 룬 문양 -->
  <rect x="12" y="22" width="8"  height="1" fill="#60A0FF"/>
  <rect x="15" y="20" width="2"  height="5" fill="#60A0FF"/>
  <rect x="13" y="23" width="6"  height="1" fill="#A0D0FF"/>
  <rect x="11" y="25" width="2"  height="2" fill="#3060C0"/>
  <rect x="19" y="25" width="2"  height="2" fill="#3060C0"/>
  <!-- 로브 옆 -->
  <rect x="7"  y="20" width="3"  height="8" fill="#101828"/>
  <rect x="22" y="20" width="3"  height="8" fill="#101828"/>
  <!-- 다리·부츠 -->
  <rect x="10" y="27" width="5" height="3" fill="#101828"/>
  <rect x="17" y="27" width="5" height="3" fill="#101828"/>
  <rect x="9"  y="30" width="6" height="2" fill="#1A2838"/>
  <rect x="9"  y="30" width="6" height="1" fill="#60A0FF"/>
  <rect x="17" y="30" width="6" height="2" fill="#1A2838"/>
  <rect x="17" y="30" width="6" height="1" fill="#60A0FF"/>
</svg>
