<svg xmlns="http://www.w3.org/2000/svg" viewBox="0 0 32 32" style="image-rendering:pixelated;image-rendering:crisp-edges">
  <!-- 공허 군주 — 완전한 어둠 왕관 -->
  <rect x="8"  y="0" width="16" height="4" fill="#050310"/>
  <rect x="7"  y="2" width="18" height="3" fill="#0A0820"/>
  <!-- 공허 균열 왕관 -->
  <rect x="9"  y="0" width="3"  height="3" fill="#300060"/>
  <rect x="14" y="0" width="4"  height="4" fill="#5000A0"/>
  <rect x="15" y="0" width="2"  height="3" fill="#8000FF"/>
  <rect x="20" y="0" width="3"  height="3" fill="#300060"/>
  <!-- 왕관 보석 (공허 빛) -->
  <rect x="10" y="0" width="1"  height="1" fill="#C040FF"/>
  <rect x="15" y="0" width="2"  height="1" fill="#FFFFFF"/>
  <rect x="21" y="0" width="1"  height="1" fill="#C040FF"/>
  <!-- ══ 머리 (공허 검정) ══ -->
  <rect x="7"  y="3" width="2"  height="9" fill="#050310"/>
  <rect x="23" y="3" width="2"  height="9" fill="#050310"/>
  <rect x="6"  y="5" width="2"  height="7" fill="#030208"/>
  <rect x="24" y="5" width="2"  height="7" fill="#030208"/>
  <rect x="7"  y="12" width="3" height="2" fill="#050310"/>
  <rect x="22" y="12" width="3" height="2" fill="#050310"/>
  <!-- ══ 얼굴 (공허 창백) ══ -->
  <rect x="9"  y="4"  width="14" height="9" fill="#B0A0C0"/>
  <rect x="10" y="13" width="12" height="1" fill="#B0A0C0"/>
  <rect x="11" y="14" width="10" height="1" fill="#B0A0C0"/>
  <!-- 공허 균열 얼굴 -->
  <rect x="9"  y="7"  width="2" height="4" fill="#5000A0"/>
  <rect x="21" y="9"  width="2" height="2" fill="#5000A0"/>
  <!-- 눈 (공허 보라) -->
  <rect x="10" y="6"  width="5" height="4" fill="#0A0010"/>
  <rect x="10" y="6"  width="5" height="3" fill="#5000A0"/>
  <rect x="10" y="6"  width="5" height="1" fill="#C040FF"/>
  <rect x="14" y="6"  width="1" height="1" fill="#FFFFFF"/>
  <rect x="17" y="6"  width="5" height="4" fill="#0A0010"/>
  <rect x="17" y="6"  width="5" height="3" fill="#5000A0"/>
  <rect x="17" y="6"  width="5" height="1" fill="#C040FF"/>
  <rect x="17" y="6"  width="1" height="1" fill="#FFFFFF"/>
  <!-- 볼·입 (공허) -->
  <rect x="9"  y="10" width="3" height="1" fill="#9080A8"/>
  <rect x="20" y="10" width="3" height="1" fill="#9080A8"/>
  <rect x="13" y="11" width="6" height="1" fill="#706090"/>
  <!-- 목 -->
  <rect x="14" y="15" width="4" height="2" fill="#B0A0C0"/>
  <!-- ══ 공허 군주 갑옷 ══ -->
  <!-- 공허 아우라 -->
  <rect x="0"  y="17" width="6" height="15" fill="#0A0820"/>
  <rect x="26" y="17" width="6" height="15" fill="#0A0820"/>
  <rect x="0"  y="14" width="4" height="5"  fill="#5000A0"/>
  <rect x="28" y="14" width="4" height="5"  fill="#5000A0"/>
  <!-- 어깨 (거대 공허) -->
  <rect x="3"  y="16" width="10" height="8" fill="#050310"/>
  <rect x="19" y="16" width="10" height="8" fill="#050310"/>
  <rect x="3"  y="16" width="10" height="1" fill="#5000A0"/>
  <rect x="19" y="16" width="10" height="1" fill="#5000A0"/>
  <rect x="3"  y="23" width="10" height="1" fill="#C040FF"/>
  <rect x="19" y="23" width="10" height="1" fill="#C040FF"/>
  <!-- 칼라 -->
  <rect x="12" y="17" width="8"  height="1" fill="#C040FF"/>
  <!-- 가슴 -->
  <rect x="9"  y="18" width="14" height="6" fill="#030208"/>
  <rect x="10" y="18" width="4"  height="3" fill="#050310"/>
  <!-- 공허 심장 문양 -->
  <rect x="14" y="21" width="4"  height="3" fill="#5000A0"/>
  <rect x="13" y="22" width="6"  height="1" fill="#5000A0"/>
  <rect x="15" y="20" width="2"  height="4" fill="#C040FF"/>
  <rect x="14" y="22" width="4"  height="1" fill="#030208"/>
  <rect x="15" y="22" width="2"  height="1" fill="#C040FF"/>
  <!-- ══ 벨트·다리·부츠 ══ -->
  <rect x="9"  y="24" width="14" height="2" fill="#030208"/>
  <rect x="9"  y="24" width="14" height="1" fill="#5000A0"/>
  <rect x="10" y="26" width="5"  height="4" fill="#030208"/>
  <rect x="17" y="26" width="5"  height="4" fill="#030208"/>
  <rect x="9"  y="30" width="6"  height="2" fill="#050310"/>
  <rect x="9"  y="30" width="6"  height="1" fill="#C040FF"/>
  <rect x="17" y="30" width="6"  height="2" fill="#050310"/>
  <rect x="17" y="30" width="6"  height="1" fill="#C040FF"/>
</svg>
