<svg xmlns="http://www.w3.org/2000/svg" viewBox="0 0 32 32" style="image-rendering:pixelated;image-rendering:crisp-edges">
  <!-- 치유사 — 흰 후드 -->
  <rect x="9"  y="2" width="14" height="3" fill="#FFFFFF"/>
  <rect x="8"  y="3" width="16" height="3" fill="#F0F0F8"/>
  <rect x="7"  y="5" width="2"  height="8" fill="#FFFFFF"/>
  <rect x="23" y="5" width="2"  height="8" fill="#FFFFFF"/>
  <rect x="8"  y="13" width="3" height="2" fill="#FFFFFF"/>
  <rect x="21" y="13" width="3" height="2" fill="#FFFFFF"/>
  <!-- 십자 문양 -->
  <rect x="14" y="2" width="4"  height="4" fill="#FF6060"/>
  <rect x="13" y="3" width="6"  height="2" fill="#FF6060"/>
  <rect x="15" y="2" width="2"  height="4" fill="#FFFFFF"/>
  <!-- ══ 얼굴 ══ -->
  <rect x="9"  y="5"  width="14" height="9" fill="#FFEECC"/>
  <rect x="10" y="14" width="12" height="1" fill="#FFEECC"/>
  <rect x="11" y="15" width="10" height="1" fill="#FFEECC"/>
  <!-- 눈썹·눈 -->
  <rect x="10" y="6"  width="5" height="1" fill="#9A7020"/>
  <rect x="17" y="6"  width="5" height="1" fill="#9A7020"/>
  <rect x="10" y="8"  width="5" height="4" fill="#1A0828"/>
  <rect x="10" y="8"  width="5" height="3" fill="#2050A0"/>
  <rect x="10" y="8"  width="5" height="1" fill="#60B0FF"/>
  <rect x="14" y="8"  width="1" height="1" fill="#FFFFFF"/>
  <rect x="17" y="8"  width="5" height="4" fill="#1A0828"/>
  <rect x="17" y="8"  width="5" height="3" fill="#2050A0"/>
  <rect x="17" y="8"  width="5" height="1" fill="#60B0FF"/>
  <rect x="17" y="8"  width="1" height="1" fill="#FFFFFF"/>
  <!-- 볼·입 -->
  <rect x="9"  y="10" width="3" height="1" fill="#FFD0C0"/>
  <rect x="20" y="10" width="3" height="1" fill="#FFD0C0"/>
  <rect x="13" y="12" width="6" height="1" fill="#FF8888"/>
  <rect x="14" y="13" width="4" height="1" fill="#DD6666"/>
  <!-- 목 -->
  <rect x="14" y="16" width="4" height="2" fill="#FFEECC"/>
  <!-- ══ 흰 로브 ══ -->
  <rect x="9"  y="18" width="14" height="2" fill="#F0F0F8"/>
  <rect x="9"  y="18" width="14" height="1" fill="#FFFFFF"/>
  <rect x="9"  y="20" width="14" height="8" fill="#E8E8F8"/>
  <rect x="8"  y="21" width="16" height="7" fill="#F0F0F8"/>
  <rect x="10" y="20" width="4"  height="3" fill="#FFFFFF"/>
  <!-- 치유 십자 -->
  <rect x="14" y="23" width="4"  height="4" fill="#FF6060"/>
  <rect x="13" y="24" width="6"  height="2" fill="#FF6060"/>
  <rect x="15" y="23" width="2"  height="4" fill="#FFFFFF"/>
  <!-- 로브 옆 -->
  <rect x="7"  y="21" width="3"  height="7" fill="#E0E0F0"/>
  <rect x="22" y="21" width="3"  height="7" fill="#E0E0F0"/>
  <!-- 다리·부츠 -->
  <rect x="10" y="28" width="5" height="2" fill="#D0D0E8"/>
  <rect x="17" y="28" width="5" height="2" fill="#D0D0E8"/>
  <rect x="9"  y="30" width="6" height="2" fill="#E0E0F0"/>
  <rect x="9"  y="30" width="6" height="1" fill="#FFFFFF"/>
  <rect x="17" y="30" width="6" height="2" fill="#E0E0F0"/>
  <rect x="17" y="30" width="6" height="1" fill="#FFFFFF"/>
</svg>
