<svg xmlns="http://www.w3.org/2000/svg" viewBox="0 0 32 32" style="image-rendering:pixelated;image-rendering:crisp-edges">
  <!-- 광부 안전모 -->
  <rect x="8"  y="2" width="16" height="4" fill="#FFD700"/>
  <rect x="7"  y="4" width="18" height="2" fill="#E8C000"/>
  <rect x="9"  y="2" width="14" height="1" fill="#FFEE88"/>
  <!-- 헤드램프 -->
  <rect x="14" y="3" width="4"  height="3" fill="#FFFFFF"/>
  <rect x="15" y="3" width="2"  height="2" fill="#FFFF88"/>
  <!-- ══ 머리 (검은) ══ -->
  <rect x="7"  y="5" width="2"  height="7" fill="#2A1A0A"/>
  <rect x="23" y="5" width="2"  height="7" fill="#2A1A0A"/>
  <rect x="8"  y="12" width="3" height="1" fill="#2A1A0A"/>
  <rect x="21" y="12" width="3" height="1" fill="#2A1A0A"/>
  <!-- ══ 얼굴 (그을린) ══ -->
  <rect x="9"  y="5"  width="14" height="8" fill="#C07840"/>
  <rect x="10" y="13" width="12" height="1" fill="#C07840"/>
  <rect x="11" y="14" width="10" height="1" fill="#C07840"/>
  <!-- 석탄 먼지 -->
  <rect x="9"  y="9"  width="2" height="2" fill="#5A3A20"/>
  <rect x="21" y="8"  width="2" height="2" fill="#5A3A20"/>
  <!-- 눈썹·눈 -->
  <rect x="10" y="6"  width="5" height="1" fill="#1A0A00"/>
  <rect x="17" y="6"  width="5" height="1" fill="#1A0A00"/>
  <rect x="10" y="8"  width="5" height="3" fill="#1A0828"/>
  <rect x="10" y="8"  width="5" height="2" fill="#704020"/>
  <rect x="10" y="8"  width="5" height="1" fill="#A06030"/>
  <rect x="14" y="8"  width="1" height="1" fill="#FFFFFF"/>
  <rect x="17" y="8"  width="5" height="3" fill="#1A0828"/>
  <rect x="17" y="8"  width="5" height="2" fill="#704020"/>
  <rect x="17" y="8"  width="5" height="1" fill="#A06030"/>
  <rect x="17" y="8"  width="1" height="1" fill="#FFFFFF"/>
  <!-- 볼·입 -->
  <rect x="9"  y="10" width="3" height="1" fill="#A06030"/>
  <rect x="20" y="10" width="3" height="1" fill="#A06030"/>
  <rect x="13" y="12" width="6" height="1" fill="#884422"/>
  <!-- 목 -->
  <rect x="14" y="15" width="4" height="2" fill="#C07840"/>
  <!-- ══ 광부 작업복 ══ -->
  <rect x="9"  y="17" width="14" height="2" fill="#3A2818"/>
  <rect x="9"  y="17" width="14" height="1" fill="#5A4028"/>
  <rect x="9"  y="19" width="14" height="9" fill="#4A3020"/>
  <rect x="8"  y="20" width="16" height="8" fill="#5A4028"/>
  <rect x="10" y="19" width="4"  height="3" fill="#6A5030"/>
  <!-- 멜빵 -->
  <rect x="12" y="17" width="2"  height="9" fill="#8B5A1A"/>
  <rect x="18" y="17" width="2"  height="9" fill="#8B5A1A"/>
  <!-- 곡괭이 (오른손) -->
  <rect x="22" y="15" width="2"  height="10" fill="#8B5A1A"/>
  <rect x="20" y="15" width="6"  height="2"  fill="#808080"/>
  <rect x="20" y="15" width="6"  height="1"  fill="#A0A0A0"/>
  <rect x="25" y="14" width="2"  height="3"  fill="#606060"/>
  <!-- 돌멩이 (왼손) -->
  <rect x="5"  y="19" width="5"  height="4" fill="#808080"/>
  <rect x="6"  y="19" width="3"  height="3" fill="#A0A0A0"/>
  <!-- 다리·부츠 -->
  <rect x="10" y="28" width="5" height="2" fill="#3A2818"/>
  <rect x="17" y="28" width="5" height="2" fill="#3A2818"/>
  <rect x="9"  y="30" width="6" height="2" fill="#4A3820"/>
  <rect x="9"  y="30" width="6" height="1" fill="#6A5030"/>
  <rect x="17" y="30" width="6" height="2" fill="#4A3820"/>
  <rect x="17" y="30" width="6" height="1" fill="#6A5030"/>
</svg>
