<svg xmlns="http://www.w3.org/2000/svg" viewBox="0 0 32 32" style="image-rendering:pixelated;image-rendering:crisp-edges">
  <!-- 불사조 마법사 — 불꽃+금 날개 머리 -->
  <rect x="3"  y="4" width="5"  height="6" fill="#FF6600"/>
  <rect x="24" y="4" width="5"  height="6" fill="#FF6600"/>
  <rect x="4"  y="3" width="4"  height="5" fill="#FF8800"/>
  <rect x="24" y="3" width="4"  height="5" fill="#FF8800"/>
  <rect x="5"  y="2" width="3"  height="3" fill="#FFAA00"/>
  <rect x="24" y="2" width="3"  height="3" fill="#FFAA00"/>
  <rect x="9"  y="1" width="14" height="3" fill="#CC4400"/>
  <rect x="8"  y="2" width="16" height="3" fill="#EE6600"/>
  <rect x="7"  y="4" width="2"  height="8" fill="#CC4400"/>
  <rect x="23" y="4" width="2"  height="8" fill="#CC4400"/>
  <rect x="8"  y="12" width="3" height="2" fill="#CC4400"/>
  <rect x="21" y="12" width="3" height="2" fill="#CC4400"/>
  <!-- ══ 얼굴 ══ -->
  <rect x="9"  y="4"  width="14" height="9" fill="#F0B070"/>
  <rect x="10" y="13" width="12" height="1" fill="#F0B070"/>
  <rect x="11" y="14" width="10" height="1" fill="#F0B070"/>
  <!-- 눈썹·눈 (불사조 금눈) -->
  <rect x="10" y="5"  width="6" height="1" fill="#8A2000"/>
  <rect x="16" y="5"  width="6" height="1" fill="#8A2000"/>
  <rect x="10" y="7"  width="5" height="4" fill="#1A0808"/>
  <rect x="10" y="7"  width="5" height="3" fill="#C06000"/>
  <rect x="10" y="7"  width="5" height="1" fill="#FFD700"/>
  <rect x="14" y="7"  width="1" height="1" fill="#FFFFFF"/>
  <rect x="17" y="7"  width="5" height="4" fill="#1A0808"/>
  <rect x="17" y="7"  width="5" height="3" fill="#C06000"/>
  <rect x="17" y="7"  width="5" height="1" fill="#FFD700"/>
  <rect x="17" y="7"  width="1" height="1" fill="#FFFFFF"/>
  <!-- 볼·입 -->
  <rect x="9"  y="11" width="3" height="1" fill="#E09060"/>
  <rect x="20" y="11" width="3" height="1" fill="#E09060"/>
  <rect x="13" y="12" width="6" height="1" fill="#CC4422"/>
  <!-- 목 -->
  <rect x="14" y="15" width="4" height="2" fill="#F0B070"/>
  <!-- ══ 불사조 로브 ══ -->
  <rect x="9"  y="17" width="14" height="2" fill="#8A2000"/>
  <rect x="9"  y="17" width="14" height="1" fill="#CC4400"/>
  <rect x="9"  y="19" width="14" height="8" fill="#6A1800"/>
  <rect x="8"  y="20" width="16" height="7" fill="#882800"/>
  <rect x="10" y="19" width="4"  height="3" fill="#AA3A10"/>
  <!-- 불사조 불꽃 날개 -->
  <rect x="3"  y="18" width="7"  height="10" fill="#FF6600"/>
  <rect x="4"  y="18" width="6"  height="9"  fill="#FF8800"/>
  <rect x="5"  y="19" width="4"  height="7"  fill="#FFAA00"/>
  <rect x="5"  y="19" width="4"  height="1"  fill="#FFD700"/>
  <rect x="22" y="18" width="7"  height="10" fill="#FF6600"/>
  <rect x="22" y="18" width="6"  height="9"  fill="#FF8800"/>
  <rect x="23" y="19" width="4"  height="7"  fill="#FFAA00"/>
  <rect x="23" y="19" width="4"  height="1"  fill="#FFD700"/>
  <!-- 불꽃 문양 -->
  <rect x="14" y="22" width="4"  height="4" fill="#FF6600"/>
  <rect x="13" y="23" width="6"  height="2" fill="#FF8800"/>
  <rect x="15" y="21" width="2"  height="5" fill="#FFAA00"/>
  <rect x="15" y="24" width="2"  height="1" fill="#FFD700"/>
  <!-- 다리·부츠 -->
  <rect x="10" y="27" width="5" height="3" fill="#5A1400"/>
  <rect x="17" y="27" width="5" height="3" fill="#5A1400"/>
  <rect x="9"  y="30" width="6" height="2" fill="#882800"/>
  <rect x="9"  y="30" width="6" height="1" fill="#FF6600"/>
  <rect x="17" y="30" width="6" height="2" fill="#882800"/>
  <rect x="17" y="30" width="6" height="1" fill="#FF6600"/>
</svg>
