<svg xmlns="http://www.w3.org/2000/svg" viewBox="0 0 32 32" style="image-rendering:pixelated;image-rendering:crisp-edges">
  <!-- 상인 챙 모자 -->
  <rect x="10" y="2" width="12" height="3" fill="#8B5A1A"/>
  <rect x="6"  y="4" width="20" height="2" fill="#7A4A0A"/>
  <rect x="7"  y="4" width="18" height="1" fill="#A07030"/>
  <!-- 모자 깃털 -->
  <rect x="20" y="1" width="2"  height="5" fill="#1A0A1A"/>
  <!-- ══ 머리 ══ -->
  <rect x="8"  y="5" width="2"  height="8" fill="#9B6A30"/>
  <rect x="22" y="5" width="2"  height="8" fill="#9B6A30"/>
  <rect x="8"  y="13" width="3" height="1" fill="#9B6A30"/>
  <rect x="21" y="13" width="3" height="1" fill="#9B6A30"/>
  <!-- ══ 얼굴 ══ -->
  <rect x="9"  y="5"  width="14" height="9" fill="#E8A860"/>
  <rect x="10" y="14" width="12" height="1" fill="#E8A860"/>
  <rect x="11" y="15" width="10" height="1" fill="#E8A860"/>
  <!-- 눈썹·눈 -->
  <rect x="10" y="6"  width="5" height="1" fill="#5A2A08"/>
  <rect x="17" y="6"  width="5" height="1" fill="#5A2A08"/>
  <rect x="10" y="8"  width="5" height="3" fill="#1A0828"/>
  <rect x="10" y="8"  width="5" height="2" fill="#6B3A10"/>
  <rect x="10" y="8"  width="5" height="1" fill="#A06030"/>
  <rect x="14" y="8"  width="1" height="1" fill="#FFFFFF"/>
  <rect x="17" y="8"  width="5" height="3" fill="#1A0828"/>
  <rect x="17" y="8"  width="5" height="2" fill="#6B3A10"/>
  <rect x="17" y="8"  width="5" height="1" fill="#A06030"/>
  <rect x="17" y="8"  width="1" height="1" fill="#FFFFFF"/>
  <!-- 볼·입 (상인 미소) -->
  <rect x="9"  y="10" width="3" height="1" fill="#D09060"/>
  <rect x="20" y="10" width="3" height="1" fill="#D09060"/>
  <rect x="12" y="12" width="8" height="1" fill="#CC6633"/>
  <rect x="11" y="11" width="1" height="1" fill="#CC6633"/>
  <rect x="20" y="11" width="1" height="1" fill="#CC6633"/>
  <!-- 목 -->
  <rect x="14" y="16" width="4" height="2" fill="#E8A860"/>
  <!-- ══ 상인 의상 ══ -->
  <rect x="9"  y="18" width="14" height="2" fill="#C87020"/>
  <rect x="9"  y="18" width="14" height="1" fill="#E89030"/>
  <rect x="9"  y="20" width="14" height="8" fill="#A86010"/>
  <rect x="8"  y="21" width="16" height="7" fill="#C87020"/>
  <rect x="10" y="20" width="4"  height="3" fill="#E89030"/>
  <!-- 동전 주머니 -->
  <rect x="6"  y="22" width="5"  height="6" fill="#C8A000"/>
  <rect x="7"  y="23" width="3"  height="4" fill="#FFCC00"/>
  <rect x="7"  y="23" width="3"  height="1" fill="#FFE040"/>
  <!-- 동전 기호 -->
  <rect x="7"  y="24" width="1"  height="1" fill="#C8A000"/>
  <rect x="9"  y="24" width="1"  height="1" fill="#C8A000"/>
  <rect x="21" y="22" width="5"  height="6" fill="#C8A000"/>
  <rect x="22" y="23" width="3"  height="4" fill="#FFCC00"/>
  <!-- 중앙 코트 장식 -->
  <rect x="14" y="22" width="4"  height="5" fill="#8B5A1A"/>
  <rect x="15" y="21" width="2"  height="6" fill="#C87020"/>
  <!-- 로브 옆 -->
  <rect x="7"  y="21" width="3"  height="7" fill="#8B5A1A"/>
  <rect x="22" y="21" width="3"  height="7" fill="#8B5A1A"/>
  <!-- 다리·부츠 -->
  <rect x="10" y="28" width="5" height="2" fill="#6B3A10"/>
  <rect x="17" y="28" width="5" height="2" fill="#6B3A10"/>
  <rect x="9"  y="30" width="6" height="2" fill="#8B5A1A"/>
  <rect x="9"  y="30" width="6" height="1" fill="#C87020"/>
  <rect x="17" y="30" width="6" height="2" fill="#8B5A1A"/>
  <rect x="17" y="30" width="6" height="1" fill="#C87020"/>
</svg>
