<svg xmlns="http://www.w3.org/2000/svg" viewBox="0 0 32 32" style="image-rendering:pixelated;image-rendering:crisp-edges">
  <!-- 용암 기사 투구 (검붉은) -->
  <rect x="8"  y="1" width="16" height="5" fill="#3A1000"/>
  <rect x="7"  y="3" width="18" height="4" fill="#5A1800"/>
  <rect x="9"  y="1" width="14" height="1" fill="#7A2A00"/>
  <!-- 용암 눈 슬릿 -->
  <rect x="9"  y="5" width="14" height="3" fill="#2A0800"/>
  <rect x="10" y="6" width="5"  height="1" fill="#FF4400"/>
  <rect x="17" y="6" width="5"  height="1" fill="#FF4400"/>
  <rect x="11" y="6" width="3"  height="1" fill="#FF8800"/>
  <rect x="18" y="6" width="3"  height="1" fill="#FF8800"/>
  <!-- 용암 흐름 투구 -->
  <rect x="8"  y="5" width="2"  height="5" fill="#FF4400"/>
  <rect x="22" y="7" width="2"  height="3" fill="#FF8800"/>
  <!-- 목 -->
  <rect x="11" y="8" width="10" height="3" fill="#2A0800"/>
  <rect x="14" y="11" width="4" height="2" fill="#D09050"/>
  <!-- ══ 용암 갑옷 ══ -->
  <!-- 용암 아우라 -->
  <rect x="3"  y="17" width="4" height="14" fill="#FF4400"/>
  <rect x="25" y="17" width="4" height="14" fill="#FF4400"/>
  <rect x="2"  y="21" width="3" height="8"  fill="#FF8800"/>
  <rect x="27" y="21" width="3" height="8"  fill="#FF8800"/>
  <!-- 어깨 (검붉) -->
  <rect x="4"  y="17" width="8"  height="6" fill="#3A1000"/>
  <rect x="20" y="17" width="8"  height="6" fill="#3A1000"/>
  <rect x="4"  y="17" width="8"  height="1" fill="#7A2A00"/>
  <rect x="20" y="17" width="8"  height="1" fill="#7A2A00"/>
  <rect x="4"  y="22" width="8"  height="1" fill="#FF4400"/>
  <rect x="20" y="22" width="8"  height="1" fill="#FF4400"/>
  <rect x="11" y="17" width="10" height="1" fill="#FF4400"/>
  <!-- 가슴 -->
  <rect x="9"  y="18" width="14" height="7" fill="#2A0800"/>
  <rect x="10" y="18" width="5"  height="3" fill="#4A1800"/>
  <!-- 용암 갈라짐 문양 -->
  <rect x="14" y="21" width="4"  height="4" fill="#FF4400"/>
  <rect x="13" y="22" width="6"  height="2" fill="#FF4400"/>
  <rect x="15" y="21" width="2"  height="4" fill="#FF8800"/>
  <rect x="14" y="23" width="4"  height="1" fill="#FFCC00"/>
  <!-- ══ 벨트·다리·부츠 ══ -->
  <rect x="9"  y="25" width="14" height="2" fill="#1A0600"/>
  <rect x="9"  y="25" width="14" height="1" fill="#3A1000"/>
  <rect x="10" y="27" width="5"  height="3" fill="#1A0600"/>
  <rect x="17" y="27" width="5"  height="3" fill="#1A0600"/>
  <rect x="9"  y="30" width="6"  height="2" fill="#2A0800"/>
  <rect x="9"  y="30" width="6"  height="1" fill="#FF4400"/>
  <rect x="17" y="30" width="6"  height="2" fill="#2A0800"/>
  <rect x="17" y="30" width="6"  height="1" fill="#FF4400"/>
</svg>
