<svg xmlns="http://www.w3.org/2000/svg" viewBox="0 0 32 32" style="image-rendering:pixelated;image-rendering:crisp-edges">
  <!-- 트릭스터 — 장난스러운 두 색 머리 -->
  <rect x="9"  y="1" width="7"  height="3" fill="#FF4499"/>
  <rect x="16" y="1" width="7"  height="3" fill="#44AAFF"/>
  <rect x="8"  y="2" width="16" height="3" fill="#FF22778"/>
  <rect x="7"  y="4" width="2"  height="7" fill="#FF4499"/>
  <rect x="23" y="4" width="2"  height="7" fill="#44AAFF"/>
  <rect x="8"  y="11" width="3" height="2" fill="#FF4499"/>
  <rect x="21" y="11" width="3" height="2" fill="#44AAFF"/>
  <!-- ══ 얼굴 ══ -->
  <rect x="9"  y="5"  width="14" height="7" fill="#F5C17A"/>
  <rect x="10" y="12" width="12" height="1" fill="#F5C17A"/>
  <rect x="11" y="13" width="10" height="1" fill="#F5C17A"/>
  <!-- 눈썹 (비대칭) -->
  <rect x="10" y="6"  width="5" height="1" fill="#CC2266"/>
  <rect x="17" y="5"  width="5" height="2" fill="#2288CC"/>
  <!-- 눈 (비대칭) -->
  <rect x="10" y="8"  width="5" height="3" fill="#1A0828"/>
  <rect x="10" y="8"  width="5" height="2" fill="#FF2266"/>
  <rect x="10" y="8"  width="5" height="1" fill="#FF88AA"/>
  <rect x="14" y="8"  width="1" height="1" fill="#FFFFFF"/>
  <rect x="17" y="7"  width="5" height="4" fill="#1A0828"/>
  <rect x="17" y="7"  width="5" height="3" fill="#2266CC"/>
  <rect x="17" y="7"  width="5" height="1" fill="#66AAFF"/>
  <rect x="17" y="7"  width="1" height="1" fill="#FFFFFF"/>
  <!-- 트릭 미소 (삐딱) -->
  <rect x="12" y="10" width="8" height="1" fill="#CC5533"/>
  <rect x="11" y="9"  width="1" height="1" fill="#CC5533"/>
  <rect x="19" y="10" width="2" height="1" fill="#AA3311"/>
  <!-- 목 -->
  <rect x="14" y="14" width="4" height="2" fill="#F5C17A"/>
  <!-- ══ 트릭스터 의상 (반반) ══ -->
  <rect x="9"  y="16" width="7"  height="2" fill="#FF4499"/>
  <rect x="16" y="16" width="7"  height="2" fill="#44AAFF"/>
  <rect x="9"  y="18" width="7"  height="10" fill="#CC1166"/>
  <rect x="16" y="18" width="7"  height="10" fill="#1188CC"/>
  <rect x="8"  y="19" width="3"  height="9" fill="#CC1166"/>
  <rect x="21" y="19" width="3"  height="9" fill="#1188CC"/>
  <!-- 중앙 단추 -->
  <rect x="15" y="18" width="2"  height="9" fill="#FFFFFF"/>
  <rect x="15" y="19" width="2"  height="1" fill="#FFD700"/>
  <rect x="15" y="22" width="2"  height="1" fill="#FFD700"/>
  <rect x="15" y="25" width="2"  height="1" fill="#FFD700"/>
  <!-- 다리·부츠 -->
  <rect x="10" y="28" width="5" height="2" fill="#AA1155"/>
  <rect x="17" y="28" width="5" height="2" fill="#1177BB"/>
  <rect x="9"  y="30" width="6" height="2" fill="#CC1166"/>
  <rect x="9"  y="30" width="6" height="1" fill="#FF4499"/>
  <rect x="17" y="30" width="6" height="2" fill="#1188CC"/>
  <rect x="17" y="30" width="6" height="1" fill="#44AAFF"/>
</svg>
