<svg xmlns="http://www.w3.org/2000/svg" viewBox="0 0 32 32" style="image-rendering:pixelated;image-rendering:crisp-edges">
  <!-- 공허 마법사 — 검은 공허 머리 -->
  <rect x="9"  y="1" width="14" height="3" fill="#050310"/>
  <rect x="8"  y="2" width="16" height="3" fill="#0A0820"/>
  <rect x="7"  y="4" width="2"  height="8" fill="#050310"/>
  <rect x="23" y="4" width="2"  height="8" fill="#050310"/>
  <rect x="8"  y="12" width="3" height="2" fill="#050310"/>
  <rect x="21" y="12" width="3" height="2" fill="#050310"/>
  <!-- 공허 파편 -->
  <rect x="6"  y="4" width="2"  height="1" fill="#6000C0"/>
  <rect x="24" y="6" width="2"  height="1" fill="#6000C0"/>
  <rect x="22" y="3" width="2"  height="1" fill="#A020FF"/>
  <!-- ══ 얼굴 ══ -->
  <rect x="9"  y="4"  width="14" height="9" fill="#C0B0D0"/>
  <rect x="10" y="13" width="12" height="1" fill="#C0B0D0"/>
  <rect x="11" y="14" width="10" height="1" fill="#C0B0D0"/>
  <!-- 눈썹·눈 (공허 빛) -->
  <rect x="10" y="5"  width="5" height="1" fill="#300050"/>
  <rect x="17" y="5"  width="5" height="1" fill="#300050"/>
  <rect x="10" y="7"  width="5" height="4" fill="#0A0010"/>
  <rect x="10" y="7"  width="5" height="3" fill="#4000808"/>
  <rect x="10" y="7"  width="5" height="1" fill="#A020FF"/>
  <rect x="14" y="7"  width="1" height="1" fill="#FFFFFF"/>
  <rect x="17" y="7"  width="5" height="4" fill="#0A0010"/>
  <rect x="17" y="7"  width="5" height="3" fill="#400080"/>
  <rect x="17" y="7"  width="5" height="1" fill="#A020FF"/>
  <rect x="17" y="7"  width="1" height="1" fill="#FFFFFF"/>
  <!-- 볼·입 -->
  <rect x="9"  y="10" width="3" height="1" fill="#9080A0"/>
  <rect x="20" y="10" width="3" height="1" fill="#9080A0"/>
  <rect x="13" y="11" width="6" height="1" fill="#705080"/>
  <!-- 목 -->
  <rect x="14" y="15" width="4" height="2" fill="#C0B0D0"/>
  <!-- ══ 공허 로브 ══ -->
  <rect x="9"  y="17" width="14" height="2" fill="#050310"/>
  <rect x="9"  y="17" width="14" height="1" fill="#0A0820"/>
  <rect x="9"  y="19" width="14" height="8" fill="#030208"/>
  <rect x="8"  y="20" width="16" height="7" fill="#050310"/>
  <rect x="10" y="19" width="4"  height="3" fill="#0A0820"/>
  <!-- 공허 소용돌이 -->
  <rect x="14" y="22" width="4"  height="4" fill="#6000C0"/>
  <rect x="13" y="23" width="6"  height="2" fill="#6000C0"/>
  <rect x="15" y="21" width="2"  height="5" fill="#A020FF"/>
  <rect x="14" y="23" width="4"  height="2" fill="#050310"/>
  <rect x="15" y="23" width="2"  height="2" fill="#A020FF"/>
  <!-- 공허 균열 -->
  <rect x="9"  y="21" width="3"  height="5" fill="#200040"/>
  <rect x="10" y="23" width="1"  height="3" fill="#6000C0"/>
  <rect x="20" y="22" width="3"  height="4" fill="#200040"/>
  <!-- 로브 옆 -->
  <rect x="7"  y="20" width="3"  height="8" fill="#030208"/>
  <rect x="22" y="20" width="3"  height="8" fill="#030208"/>
  <!-- 다리·부츠 -->
  <rect x="10" y="27" width="5" height="3" fill="#030208"/>
  <rect x="17" y="27" width="5" height="3" fill="#030208"/>
  <rect x="9"  y="30" width="6" height="2" fill="#050310"/>
  <rect x="9"  y="30" width="6" height="1" fill="#A020FF"/>
  <rect x="17" y="30" width="6" height="2" fill="#050310"/>
  <rect x="17" y="30" width="6" height="1" fill="#A020FF"/>
</svg>
