<svg xmlns="http://www.w3.org/2000/svg" viewBox="0 0 32 32" style="image-rendering:pixelated;image-rendering:crisp-edges">
  <!-- 서리 궁수 — 얼음 머리 -->
  <rect x="9"  y="1" width="14" height="3" fill="#A0C8E0"/>
  <rect x="8"  y="2" width="16" height="3" fill="#C0E0F8"/>
  <rect x="7"  y="4" width="2"  height="8" fill="#A0C8E0"/>
  <rect x="23" y="4" width="2"  height="8" fill="#A0C8E0"/>
  <!-- 얼음 결정 머리 -->
  <rect x="8"  y="2" width="3"  height="2" fill="#FFFFFF"/>
  <rect x="21" y="3" width="3"  height="2" fill="#FFFFFF"/>
  <rect x="8"  y="12" width="3" height="2" fill="#A0C8E0"/>
  <rect x="21" y="12" width="3" height="2" fill="#A0C8E0"/>
  <!-- ══ 얼굴 ══ -->
  <rect x="9"  y="4"  width="14" height="9" fill="#E8F4FC"/>
  <rect x="10" y="13" width="12" height="1" fill="#E8F4FC"/>
  <rect x="11" y="14" width="10" height="1" fill="#E8F4FC"/>
  <!-- 눈썹·눈 -->
  <rect x="10" y="5"  width="5" height="1" fill="#5080A0"/>
  <rect x="17" y="5"  width="5" height="1" fill="#5080A0"/>
  <rect x="10" y="7"  width="5" height="4" fill="#1A1838"/>
  <rect x="10" y="7"  width="5" height="3" fill="#1860A0"/>
  <rect x="10" y="7"  width="5" height="1" fill="#50B0E8"/>
  <rect x="14" y="7"  width="1" height="1" fill="#FFFFFF"/>
  <rect x="17" y="7"  width="5" height="4" fill="#1A1838"/>
  <rect x="17" y="7"  width="5" height="3" fill="#1860A0"/>
  <rect x="17" y="7"  width="5" height="1" fill="#50B0E8"/>
  <rect x="17" y="7"  width="1" height="1" fill="#FFFFFF"/>
  <!-- 볼·입 -->
  <rect x="9"  y="10" width="3" height="1" fill="#C0D8F0"/>
  <rect x="20" y="10" width="3" height="1" fill="#C0D8F0"/>
  <rect x="13" y="11" width="6" height="1" fill="#7090B0"/>
  <!-- 목 -->
  <rect x="14" y="15" width="4" height="2" fill="#E8F4FC"/>
  <!-- ══ 서리 궁수 의상 ══ -->
  <rect x="8"  y="17" width="16" height="2" fill="#3070A0"/>
  <rect x="8"  y="17" width="16" height="1" fill="#5090C0"/>
  <rect x="9"  y="19" width="14" height="7" fill="#1850808"/>
  <rect x="8"  y="20" width="16" height="6" fill="#2860A8"/>
  <rect x="10" y="19" width="4"  height="3" fill="#3870B0"/>
  <!-- 서리 갑옷 -->
  <rect x="6"  y="17" width="4"  height="6" fill="#3878A8"/>
  <rect x="22" y="17" width="4"  height="6" fill="#3878A8"/>
  <rect x="6"  y="17" width="4"  height="1" fill="#80C0E8"/>
  <rect x="22" y="17" width="4"  height="1" fill="#80C0E8"/>
  <!-- 화살통 + 얼음 화살 -->
  <rect x="21" y="15" width="4"  height="10" fill="#3870B0"/>
  <rect x="22" y="13" width="1"  height="5"  fill="#CCEEFF"/>
  <rect x="23" y="12" width="1"  height="5"  fill="#AADDFF"/>
  <!-- 서리 문양 -->
  <rect x="13" y="22" width="6"  height="3" fill="#A0D0E8"/>
  <rect x="15" y="21" width="2"  height="5" fill="#CCEEFF"/>
  <!-- 벨트·다리·부츠 -->
  <rect x="9"  y="26" width="14" height="2" fill="#1850808"/>
  <rect x="10" y="28" width="5"  height="2" fill="#1040608"/>
  <rect x="17" y="28" width="5"  height="2" fill="#104060"/>
  <rect x="9"  y="30" width="6"  height="2" fill="#1850808"/>
  <rect x="9"  y="30" width="6"  height="1" fill="#80C0E8"/>
  <rect x="17" y="30" width="6"  height="2" fill="#185080"/>
  <rect x="17" y="30" width="6"  height="1" fill="#80C0E8"/>
</svg>
