<svg xmlns="http://www.w3.org/2000/svg" viewBox="0 0 32 32" style="image-rendering:pixelated;image-rendering:crisp-edges">
  <!-- 대지 현자 — 돌 왕관 -->
  <rect x="8"  y="2" width="16" height="3" fill="#6A5040"/>
  <rect x="7"  y="3" width="18" height="2" fill="#8A7050"/>
  <rect x="9"  y="1" width="3"  height="3" fill="#888878"/>
  <rect x="13" y="0" width="2"  height="4" fill="#AAAAAA"/>
  <rect x="16" y="1" width="2"  height="4" fill="#999999"/>
  <rect x="19" y="1" width="3"  height="3" fill="#888878"/>
  <!-- 나뭇잎 장식 -->
  <rect x="10" y="1" width="2"  height="1" fill="#3A7020"/>
  <rect x="20" y="1" width="2"  height="1" fill="#3A7020"/>
  <!-- ══ 머리 (갈색 장발) ══ -->
  <rect x="8"  y="4" width="2"  height="9" fill="#7A5020"/>
  <rect x="22" y="4" width="2"  height="9" fill="#7A5020"/>
  <rect x="7"  y="6" width="2"  height="7" fill="#5A3A10"/>
  <rect x="23" y="6" width="2"  height="7" fill="#5A3A10"/>
  <rect x="8"  y="13" width="4" height="3" fill="#7A5020"/>
  <rect x="20" y="13" width="4" height="3" fill="#7A5020"/>
  <!-- ══ 얼굴 ══ -->
  <rect x="9"  y="5"  width="14" height="9" fill="#E0A870"/>
  <rect x="10" y="14" width="12" height="1" fill="#E0A870"/>
  <rect x="11" y="15" width="10" height="1" fill="#E0A870"/>
  <!-- 눈썹·눈 (녹갈색) -->
  <rect x="10" y="6"  width="5" height="1" fill="#5A3010"/>
  <rect x="17" y="6"  width="5" height="1" fill="#5A3010"/>
  <rect x="10" y="8"  width="5" height="4" fill="#1A0828"/>
  <rect x="10" y="8"  width="5" height="3" fill="#286028"/>
  <rect x="10" y="8"  width="5" height="1" fill="#508050"/>
  <rect x="14" y="8"  width="1" height="1" fill="#FFFFFF"/>
  <rect x="17" y="8"  width="5" height="4" fill="#1A0828"/>
  <rect x="17" y="8"  width="5" height="3" fill="#286028"/>
  <rect x="17" y="8"  width="5" height="1" fill="#508050"/>
  <rect x="17" y="8"  width="1" height="1" fill="#FFFFFF"/>
  <!-- 볼·입 -->
  <rect x="9"  y="11" width="3" height="1" fill="#C09060"/>
  <rect x="20" y="11" width="3" height="1" fill="#C09060"/>
  <rect x="13" y="12" width="6" height="1" fill="#9A6030"/>
  <!-- 수염 (현자) -->
  <rect x="10" y="13" width="12" height="2" fill="#8A7050"/>
  <!-- 목 -->
  <rect x="14" y="16" width="4" height="2" fill="#E0A870"/>
  <!-- ══ 대지 현자 로브 ══ -->
  <rect x="9"  y="18" width="14" height="2" fill="#6A5040"/>
  <rect x="9"  y="18" width="14" height="1" fill="#8A7050"/>
  <rect x="9"  y="20" width="14" height="8" fill="#5A4030"/>
  <rect x="8"  y="21" width="16" height="7" fill="#6A5040"/>
  <rect x="10" y="20" width="4"  height="3" fill="#7A6050"/>
  <!-- 돌+나무 문양 -->
  <rect x="13" y="23" width="6"  height="4" fill="#8A7050"/>
  <rect x="12" y="24" width="8"  height="2" fill="#8A7050"/>
  <rect x="15" y="22" width="2"  height="5" fill="#3A7020"/>
  <rect x="14" y="23" width="4"  height="2" fill="#888878"/>
  <!-- 대지 지팡이 -->
  <rect x="5"  y="17" width="2"  height="15" fill="#7A5020"/>
  <rect x="4"  y="16" width="4"  height="3"  fill="#888878"/>
  <rect x="5"  y="14" width="2"  height="4"  fill="#3A7020"/>
  <!-- 로브 옆 -->
  <rect x="7"  y="21" width="3"  height="7" fill="#4A3020"/>
  <rect x="22" y="21" width="3"  height="7" fill="#4A3020"/>
  <!-- 다리·부츠 -->
  <rect x="10" y="28" width="5" height="2" fill="#4A3020"/>
  <rect x="17" y="28" width="5" height="2" fill="#4A3020"/>
  <rect x="9"  y="30" width="6" height="2" fill="#6A5040"/>
  <rect x="9"  y="30" width="6" height="1" fill="#8A7050"/>
  <rect x="17" y="30" width="6" height="2" fill="#6A5040"/>
  <rect x="17" y="30" width="6" height="1" fill="#8A7050"/>
</svg>
