<svg xmlns="http://www.w3.org/2000/svg" viewBox="0 0 32 32" style="image-rendering:pixelated;image-rendering:crisp-edges">
  <!-- 꿈술사 — 몽환적 머리 (분홍+보라) -->
  <rect x="9"  y="1" width="14" height="3" fill="#D060C0"/>
  <rect x="8"  y="2" width="16" height="3" fill="#E880D8"/>
  <rect x="7"  y="4" width="2"  height="8" fill="#D060C0"/>
  <rect x="23" y="4" width="2"  height="8" fill="#D060C0"/>
  <!-- 꽃 왕관 -->
  <rect x="10" y="1" width="3"  height="2" fill="#FF80C0"/>
  <rect x="15" y="0" width="2"  height="3" fill="#FFCCEE"/>
  <rect x="19" y="1" width="3"  height="2" fill="#FF80C0"/>
  <rect x="11" y="0" width="2"  height="1" fill="#FFD0E8"/>
  <rect x="19" y="0" width="2"  height="1" fill="#FFD0E8"/>
  <rect x="8"  y="12" width="3" height="3" fill="#D060C0"/>
  <rect x="21" y="12" width="3" height="3" fill="#D060C0"/>
  <!-- ══ 얼굴 ══ -->
  <rect x="9"  y="4"  width="14" height="10" fill="#FFEEF8"/>
  <rect x="10" y="14" width="12" height="1"  fill="#FFEEF8"/>
  <rect x="11" y="15" width="10" height="1"  fill="#FFEEF8"/>
  <!-- 눈썹·눈 (몽환 보라) -->
  <rect x="10" y="5"  width="4" height="1" fill="#A040C0"/>
  <rect x="18" y="5"  width="4" height="1" fill="#A040C0"/>
  <rect x="9"  y="6"  width="1" height="1" fill="#A040C0"/>
  <rect x="22" y="6"  width="1" height="1" fill="#A040C0"/>
  <rect x="10" y="7"  width="5" height="4" fill="#1A0828"/>
  <rect x="10" y="7"  width="5" height="3" fill="#8020C0"/>
  <rect x="10" y="7"  width="5" height="1" fill="#FF80FF"/>
  <rect x="14" y="7"  width="1" height="1" fill="#FFFFFF"/>
  <rect x="17" y="7"  width="5" height="4" fill="#1A0828"/>
  <rect x="17" y="7"  width="5" height="3" fill="#8020C0"/>
  <rect x="17" y="7"  width="5" height="1" fill="#FF80FF"/>
  <rect x="17" y="7"  width="1" height="1" fill="#FFFFFF"/>
  <!-- 볼·입 -->
  <rect x="9"  y="10" width="3" height="2" fill="#FFB0E0"/>
  <rect x="20" y="10" width="3" height="2" fill="#FFB0E0"/>
  <rect x="12" y="13" width="8" height="1" fill="#FF60B0"/>
  <rect x="11" y="12" width="1" height="1" fill="#FF60B0"/>
  <rect x="20" y="12" width="1" height="1" fill="#FF60B0"/>
  <!-- 목 -->
  <rect x="14" y="16" width="4" height="2" fill="#FFEEF8"/>
  <!-- ══ 꿈 드레스 ══ -->
  <rect x="9"  y="18" width="14" height="2" fill="#C050B0"/>
  <rect x="9"  y="18" width="14" height="1" fill="#E070D0"/>
  <rect x="9"  y="20" width="14" height="8" fill="#A040A0"/>
  <rect x="8"  y="21" width="16" height="7" fill="#B850B0"/>
  <rect x="10" y="20" width="5"  height="3" fill="#D060C8"/>
  <!-- 꿈 별 문양 -->
  <rect x="14" y="23" width="1"  height="1" fill="#FFCCEE"/>
  <rect x="16" y="22" width="1"  height="1" fill="#FFCCEE"/>
  <rect x="12" y="25" width="1"  height="1" fill="#FFFFFF"/>
  <rect x="19" y="24" width="1"  height="1" fill="#FFFFFF"/>
  <rect x="15" y="26" width="2"  height="2" fill="#FFCCEE"/>
  <!-- 날개 (꿈) -->
  <rect x="4"  y="19" width="5"  height="8" fill="#E8B0E0"/>
  <rect x="4"  y="19" width="5"  height="1" fill="#FFFFFF"/>
  <rect x="23" y="19" width="5"  height="8" fill="#E8B0E0"/>
  <rect x="23" y="19" width="5"  height="1" fill="#FFFFFF"/>
  <!-- 드레스 레이어 -->
  <rect x="7"  y="26" width="18" height="2" fill="#B050B0"/>
  <rect x="6"  y="28" width="20" height="2" fill="#9040A0"/>
  <!-- 다리·부츠 -->
  <rect x="11" y="28" width="4" height="2" fill="#FFEEF8"/>
  <rect x="17" y="28" width="4" height="2" fill="#FFEEF8"/>
  <rect x="10" y="30" width="5" height="2" fill="#D060C0"/>
  <rect x="17" y="30" width="5" height="2" fill="#D060C0"/>
</svg>
