<svg xmlns="http://www.w3.org/2000/svg" viewBox="0 0 32 32" style="image-rendering:pixelated;image-rendering:crisp-edges">
  <!-- 수호자 — 석판 투구 -->
  <rect x="8"  y="1" width="16" height="6" fill="#6A8090"/>
  <rect x="7"  y="3" width="18" height="5" fill="#7A90A0"/>
  <rect x="9"  y="1" width="14" height="1" fill="#8AAABB"/>
  <!-- 눈 슬릿 -->
  <rect x="9"  y="5" width="14" height="3" fill="#5A7080"/>
  <rect x="10" y="6" width="5"  height="1" fill="#AACCDD"/>
  <rect x="17" y="6" width="5"  height="1" fill="#AACCDD"/>
  <!-- 목 -->
  <rect x="11" y="8" width="10" height="3" fill="#5A7080"/>
  <rect x="14" y="11" width="4" height="2" fill="#D0A870"/>
  <!-- ══ 수호 갑옷 (청록+금) ══ -->
  <!-- 아우라 -->
  <rect x="4"  y="17" width="3" height="12" fill="#4080A0"/>
  <rect x="25" y="17" width="3" height="12" fill="#4080A0"/>
  <!-- 어깨 -->
  <rect x="5"  y="17" width="7"  height="7" fill="#5090A8"/>
  <rect x="20" y="17" width="7"  height="7" fill="#5090A8"/>
  <rect x="5"  y="17" width="7"  height="1" fill="#80C0D8"/>
  <rect x="20" y="17" width="7"  height="1" fill="#80C0D8"/>
  <rect x="5"  y="23" width="7"  height="1" fill="#FFD700"/>
  <rect x="20" y="23" width="7"  height="1" fill="#FFD700"/>
  <!-- 칼라 -->
  <rect x="11" y="17" width="10" height="1" fill="#FFD700"/>
  <!-- 가슴 -->
  <rect x="9"  y="18" width="14" height="7" fill="#4080A0"/>
  <rect x="10" y="18" width="5"  height="3" fill="#5090B0"/>
  <!-- 방패 문양 -->
  <rect x="13" y="21" width="6"  height="4" fill="#FFD700"/>
  <rect x="12" y="22" width="8"  height="2" fill="#FFD700"/>
  <rect x="15" y="21" width="2"  height="4" fill="#AACCDD"/>
  <rect x="14" y="22" width="4"  height="2" fill="#AACCDD"/>
  <!-- ══ 벨트 ══ -->
  <rect x="9"  y="25" width="14" height="2" fill="#3070808"/>
  <rect x="9"  y="25" width="14" height="1" fill="#4080A0"/>
  <rect x="14" y="24" width="4"  height="3" fill="#FFD700"/>
  <!-- ══ 다리·부츠 ══ -->
  <rect x="10" y="27" width="5" height="3" fill="#305080"/>
  <rect x="17" y="27" width="5" height="3" fill="#305080"/>
  <rect x="9"  y="30" width="6" height="2" fill="#4080A0"/>
  <rect x="9"  y="30" width="6" height="1" fill="#60A0C0"/>
  <rect x="17" y="30" width="6" height="2" fill="#4080A0"/>
  <rect x="17" y="30" width="6" height="1" fill="#60A0C0"/>
</svg>
