<svg xmlns="http://www.w3.org/2000/svg" viewBox="0 0 32 32" style="image-rendering:pixelated;image-rendering:crisp-edges">
  <!-- 영원의 전설 — 무지개 빛 왕관 -->
  <rect x="8"  y="1" width="16" height="3" fill="#0A0520"/>
  <rect x="7"  y="2" width="18" height="2" fill="#150838"/>
  <!-- 무지개 왕관 봉우리 -->
  <rect x="9"  y="0" width="3"  height="3" fill="#FF0040"/>
  <rect x="9"  y="0" width="1"  height="2" fill="#FF6080"/>
  <rect x="14" y="0" width="4"  height="4" fill="#FFD700"/>
  <rect x="15" y="0" width="2"  height="3" fill="#FFEE88"/>
  <rect x="20" y="0" width="3"  height="3" fill="#00C0FF"/>
  <rect x="21" y="0" width="1"  height="2" fill="#80E0FF"/>
  <!-- 왕관 띠 무지개 -->
  <rect x="9"  y="2" width="2"  height="1" fill="#FF80C0"/>
  <rect x="11" y="2" width="2"  height="1" fill="#FFAA00"/>
  <rect x="13" y="2" width="2"  height="1" fill="#FFD700"/>
  <rect x="15" y="2" width="2"  height="1" fill="#00FF80"/>
  <rect x="17" y="2" width="2"  height="1" fill="#00AAFF"/>
  <rect x="19" y="2" width="2"  height="1" fill="#8040FF"/>
  <rect x="21" y="2" width="2"  height="1" fill="#FF40C0"/>
  <!-- ══ 머리 (은하 은발) ══ -->
  <rect x="7"  y="3" width="2"  height="9" fill="#5060A8"/>
  <rect x="23" y="3" width="2"  height="9" fill="#5060A8"/>
  <rect x="6"  y="5" width="2"  height="7" fill="#3A4888"/>
  <rect x="24" y="5" width="2"  height="7" fill="#3A4888"/>
  <rect x="7"  y="12" width="3" height="3" fill="#5060A8"/>
  <rect x="22" y="12" width="3" height="3" fill="#5060A8"/>
  <!-- ══ 얼굴 ══ -->
  <rect x="9"  y="3"  width="14" height="10" fill="#E8D8F8"/>
  <rect x="10" y="13" width="12" height="1"  fill="#E8D8F8"/>
  <rect x="11" y="14" width="10" height="1"  fill="#E8D8F8"/>
  <!-- 눈썹·눈 (무지개 이색) -->
  <rect x="10" y="4"  width="5" height="1" fill="#3A4888"/>
  <rect x="17" y="4"  width="5" height="1" fill="#3A4888"/>
  <!-- 왼쪽 눈: 금 -->
  <rect x="10" y="6"  width="5" height="4" fill="#1A0828"/>
  <rect x="10" y="6"  width="5" height="3" fill="#A08000"/>
  <rect x="10" y="6"  width="5" height="1" fill="#FFD700"/>
  <rect x="14" y="6"  width="1" height="1" fill="#FFFFFF"/>
  <!-- 오른쪽 눈: 보라 -->
  <rect x="17" y="6"  width="5" height="4" fill="#1A0828"/>
  <rect x="17" y="6"  width="5" height="3" fill="#5020A0"/>
  <rect x="17" y="6"  width="5" height="1" fill="#C060FF"/>
  <rect x="17" y="6"  width="1" height="1" fill="#FFFFFF"/>
  <!-- 볼·입 -->
  <rect x="9"  y="9"  width="3" height="2" fill="#D0B0E8"/>
  <rect x="20" y="9"  width="3" height="2" fill="#D0B0E8"/>
  <rect x="12" y="12" width="8" height="1" fill="#FF70B8"/>
  <rect x="11" y="11" width="1" height="1" fill="#FF70B8"/>
  <rect x="20" y="11" width="1" height="1" fill="#FF70B8"/>
  <!-- 목 -->
  <rect x="14" y="15" width="4" height="2" fill="#E8D8F8"/>
  <!-- ══ 전설 수트 ══ -->
  <!-- 우주 망토 -->
  <rect x="2"  y="18" width="7" height="14" fill="#0A0520"/>
  <rect x="23" y="18" width="7" height="14" fill="#0A0520"/>
  <!-- 망토 별 -->
  <rect x="4"  y="21" width="1" height="1" fill="#FF0040"/>
  <rect x="26" y="24" width="1" height="1" fill="#FFD700"/>
  <rect x="3"  y="27" width="1" height="1" fill="#00C0FF"/>
  <rect x="25" y="20" width="1" height="1" fill="#FF80C0"/>
  <rect x="4"  y="29" width="1" height="1" fill="#C060FF"/>
  <!-- 어깨 (무지개 단계) -->
  <rect x="6"  y="17" width="7"  height="5" fill="#0A0520"/>
  <rect x="19" y="17" width="7"  height="5" fill="#0A0520"/>
  <rect x="6"  y="17" width="2"  height="1" fill="#FF0040"/>
  <rect x="8"  y="17" width="2"  height="1" fill="#FFD700"/>
  <rect x="10" y="17" width="3"  height="1" fill="#00C0FF"/>
  <rect x="19" y="17" width="3"  height="1" fill="#FF80C0"/>
  <rect x="22" y="17" width="2"  height="1" fill="#FFD700"/>
  <rect x="24" y="17" width="2"  height="1" fill="#C060FF"/>
  <!-- 칼라 (무지개) -->
  <rect x="12" y="17" width="2"  height="1" fill="#FF0040"/>
  <rect x="14" y="17" width="2"  height="1" fill="#FFD700"/>
  <rect x="16" y="17" width="2"  height="1" fill="#00C0FF"/>
  <rect x="18" y="17" width="2"  height="1" fill="#C060FF"/>
  <!-- 가슴 (어둠+무지개) -->
  <rect x="9"  y="18" width="14" height="6" fill="#0A0520"/>
  <rect x="10" y="18" width="4"  height="3" fill="#150838"/>
  <!-- 무지개 에너지 코어 -->
  <rect x="13" y="21" width="6"  height="3" fill="#FF0040"/>
  <rect x="14" y="20" width="5"  height="4" fill="#FFD700"/>
  <rect x="15" y="19" width="3"  height="5" fill="#00C0FF"/>
  <rect x="15" y="21" width="2"  height="2" fill="#FFFFFF"/>
  <!-- ══ 벨트·다리·부츠 ══ -->
  <rect x="9"  y="24" width="14" height="2" fill="#0A0520"/>
  <rect x="9"  y="24" width="4"  height="1" fill="#FF0040"/>
  <rect x="13" y="24" width="3"  height="1" fill="#FFD700"/>
  <rect x="16" y="24" width="3"  height="1" fill="#00C0FF"/>
  <rect x="19" y="24" width="4"  height="1" fill="#C060FF"/>
  <rect x="10" y="26" width="5"  height="4" fill="#0A0520"/>
  <rect x="17" y="26" width="5"  height="4" fill="#0A0520"/>
  <rect x="9"  y="30" width="6"  height="2" fill="#150838"/>
  <rect x="9"  y="30" width="3"  height="1" fill="#FF0040"/>
  <rect x="12" y="30" width="3"  height="1" fill="#FFD700"/>
  <rect x="17" y="30" width="3"  height="1" fill="#00C0FF"/>
  <rect x="20" y="30" width="3"  height="1" fill="#C060FF"/>
</svg>
