<svg xmlns="http://www.w3.org/2000/svg" viewBox="0 0 32 32" style="image-rendering:pixelated;image-rendering:crisp-edges">
  <!-- 불꽃 마법사 — 불꽃 왕관 -->
  <rect x="9"  y="0" width="3"  height="4" fill="#FF4400"/>
  <rect x="12" y="0" width="3"  height="3" fill="#FF8800"/>
  <rect x="15" y="0" width="2"  height="5" fill="#FFCC00"/>
  <rect x="17" y="0" width="3"  height="3" fill="#FF8800"/>
  <rect x="20" y="0" width="3"  height="4" fill="#FF4400"/>
  <rect x="10" y="1" width="12" height="2" fill="#FF6600"/>
  <rect x="9"  y="2" width="14" height="2" fill="#FF4400"/>
  <!-- 불꽃 스파크 -->
  <rect x="10" y="0" width="1"  height="1" fill="#FFEE00"/>
  <rect x="16" y="0" width="2"  height="1" fill="#FFFFFF"/>
  <rect x="21" y="0" width="1"  height="1" fill="#FFEE00"/>
  <!-- ══ 머리 (불꽃 오렌지) ══ -->
  <rect x="8"  y="3" width="16" height="3" fill="#CC3800"/>
  <rect x="7"  y="5" width="2"  height="7" fill="#AA2800"/>
  <rect x="23" y="5" width="2"  height="7" fill="#AA2800"/>
  <rect x="6"  y="7" width="2"  height="5" fill="#882000"/>
  <rect x="24" y="7" width="2"  height="5" fill="#882000"/>
  <rect x="7"  y="12" width="4" height="2" fill="#AA2800"/>
  <rect x="21" y="12" width="4" height="2" fill="#AA2800"/>
  <!-- 불꽃 하이라이트 -->
  <rect x="12" y="3" width="8"  height="1" fill="#FF8800"/>
  <!-- ══ 얼굴 ══ -->
  <rect x="9"  y="5"  width="14" height="9" fill="#F0B070"/>
  <rect x="10" y="14" width="12" height="1" fill="#F0B070"/>
  <rect x="11" y="15" width="10" height="1" fill="#F0B070"/>
  <!-- 눈썹·눈 -->
  <rect x="10" y="6"  width="6" height="1" fill="#7A1808"/>
  <rect x="16" y="6"  width="6" height="1" fill="#7A1808"/>
  <rect x="10" y="8"  width="5" height="4" fill="#1A0808"/>
  <rect x="10" y="8"  width="5" height="3" fill="#C04000"/>
  <rect x="10" y="8"  width="5" height="1" fill="#FF8800"/>
  <rect x="14" y="8"  width="1" height="1" fill="#FFFFFF"/>
  <rect x="17" y="8"  width="5" height="4" fill="#1A0808"/>
  <rect x="17" y="8"  width="5" height="3" fill="#C04000"/>
  <rect x="17" y="8"  width="5" height="1" fill="#FF8800"/>
  <rect x="17" y="8"  width="1" height="1" fill="#FFFFFF"/>
  <!-- 볼·입 -->
  <rect x="9"  y="11" width="3" height="1" fill="#E0A070"/>
  <rect x="20" y="11" width="3" height="1" fill="#E0A070"/>
  <rect x="13" y="12" width="6" height="1" fill="#CC4422"/>
  <!-- 목 -->
  <rect x="14" y="16" width="4" height="2" fill="#F0B070"/>
  <!-- ══ 불꽃 로브 ══ -->
  <rect x="9"  y="18" width="14" height="2" fill="#882000"/>
  <rect x="9"  y="18" width="14" height="1" fill="#CC3800"/>
  <rect x="9"  y="20" width="14" height="8" fill="#6A1800"/>
  <rect x="8"  y="21" width="16" height="7" fill="#882000"/>
  <rect x="10" y="20" width="4"  height="3" fill="#AA2800"/>
  <!-- 불꽃 패턴 -->
  <rect x="14" y="23" width="4"  height="4" fill="#FF4400"/>
  <rect x="13" y="24" width="6"  height="2" fill="#FF4400"/>
  <rect x="15" y="22" width="2"  height="5" fill="#FF8800"/>
  <rect x="14" y="24" width="4"  height="1" fill="#FFCC00"/>
  <!-- 불꽃 날개 효과 -->
  <rect x="4"  y="19" width="5" height="9" fill="#FF6600"/>
  <rect x="23" y="19" width="5" height="9" fill="#FF6600"/>
  <rect x="4"  y="19" width="5" height="1" fill="#FFCC00"/>
  <rect x="23" y="19" width="5" height="1" fill="#FFCC00"/>
  <rect x="3"  y="22" width="4" height="6" fill="#FF4400"/>
  <rect x="25" y="22" width="4" height="6" fill="#FF4400"/>
  <!-- 로브 옆 -->
  <rect x="7"  y="21" width="3" height="7" fill="#6A1800"/>
  <rect x="22" y="21" width="3" height="7" fill="#6A1800"/>
  <!-- 다리·부츠 -->
  <rect x="10" y="28" width="5" height="2" fill="#4A1000"/>
  <rect x="17" y="28" width="5" height="2" fill="#4A1000"/>
  <rect x="9"  y="30" width="6" height="2" fill="#6A1800"/>
  <rect x="9"  y="30" width="6" height="1" fill="#FF4400"/>
  <rect x="17" y="30" width="6" height="2" fill="#6A1800"/>
  <rect x="17" y="30" width="6" height="1" fill="#FF4400"/>
</svg>
