<svg xmlns="http://www.w3.org/2000/svg" viewBox="0 0 32 32" style="image-rendering:pixelated;image-rendering:crisp-edges">
  <!-- 골렘 마스터 — 돌 왕관 -->
  <rect x="8"  y="1" width="16" height="4" fill="#707878"/>
  <rect x="7"  y="2" width="18" height="3" fill="#808888"/>
  <rect x="9"  y="0" width="4"  height="3" fill="#909898"/>
  <rect x="19" y="0" width="4"  height="3" fill="#909898"/>
  <rect x="14" y="0" width="4"  height="2" fill="#60C8A0"/>
  <!-- 마법석 (초록) -->
  <rect x="15" y="0" width="2"  height="1" fill="#80E8C0"/>
  <!-- ══ 머리 (백발 대머리) ══ -->
  <rect x="7"  y="4" width="2"  height="8" fill="#7A6848"/>
  <rect x="23" y="4" width="2"  height="8" fill="#7A6848"/>
  <rect x="8"  y="12" width="3" height="2" fill="#7A6848"/>
  <rect x="21" y="12" width="3" height="2" fill="#7A6848"/>
  <!-- ══ 얼굴 ══ -->
  <rect x="9"  y="4"  width="14" height="9" fill="#C8A870"/>
  <rect x="10" y="13" width="12" height="1" fill="#C8A870"/>
  <rect x="11" y="14" width="10" height="1" fill="#C8A870"/>
  <!-- 돌 문신 -->
  <rect x="9"  y="6"  width="2" height="5" fill="#A88858"/>
  <rect x="21" y="8"  width="2" height="3" fill="#A88858"/>
  <!-- 눈썹·눈 (마법 초록) -->
  <rect x="10" y="5"  width="6" height="2" fill="#3A2808"/>
  <rect x="16" y="5"  width="6" height="2" fill="#3A2808"/>
  <rect x="10" y="7"  width="5" height="3" fill="#1A0828"/>
  <rect x="10" y="7"  width="5" height="2" fill="#206040"/>
  <rect x="10" y="7"  width="5" height="1" fill="#40C080"/>
  <rect x="14" y="7"  width="1" height="1" fill="#FFFFFF"/>
  <rect x="17" y="7"  width="5" height="3" fill="#1A0828"/>
  <rect x="17" y="7"  width="5" height="2" fill="#206040"/>
  <rect x="17" y="7"  width="5" height="1" fill="#40C080"/>
  <rect x="17" y="7"  width="1" height="1" fill="#FFFFFF"/>
  <!-- 코·입 (수염) -->
  <rect x="15" y="10" width="2" height="2" fill="#A08058"/>
  <rect x="10" y="12" width="12" height="1" fill="#7A5838"/>
  <rect x="11" y="13" width="10" height="1" fill="#9A7848"/>
  <!-- 목 -->
  <rect x="14" y="15" width="4" height="2" fill="#C8A870"/>
  <!-- ══ 골렘 마스터 의상 ══ -->
  <rect x="9"  y="17" width="14" height="2" fill="#505858"/>
  <rect x="9"  y="17" width="14" height="1" fill="#707878"/>
  <rect x="9"  y="19" width="14" height="8" fill="#3A4040"/>
  <rect x="8"  y="20" width="16" height="7" fill="#455050"/>
  <rect x="10" y="19" width="4"  height="3" fill="#556060"/>
  <!-- 골렘 파편 어깨 -->
  <rect x="5"  y="17" width="6"  height="6" fill="#606868"/>
  <rect x="21" y="17" width="6"  height="6" fill="#606868"/>
  <rect x="5"  y="17" width="6"  height="1" fill="#808888"/>
  <rect x="21" y="17" width="6"  height="1" fill="#808888"/>
  <!-- 마법 룬 -->
  <rect x="13" y="22" width="6"  height="4" fill="#60C8A0"/>
  <rect x="12" y="23" width="8"  height="2" fill="#60C8A0"/>
  <rect x="15" y="21" width="2"  height="5" fill="#80E8C0"/>
  <rect x="14" y="23" width="4"  height="2" fill="#3A4040"/>
  <!-- 골렘 손 (박음질) -->
  <rect x="5"  y="23" width="4"  height="5" fill="#606868"/>
  <rect x="6"  y="24" width="2"  height="3" fill="#707878"/>
  <rect x="23" y="23" width="4"  height="5" fill="#606868"/>
  <rect x="23" y="24" width="2"  height="3" fill="#707878"/>
  <!-- 로브 옆 -->
  <rect x="7"  y="20" width="3"  height="7" fill="#3A4040"/>
  <rect x="22" y="20" width="3"  height="7" fill="#3A4040"/>
  <!-- 다리·부츠 -->
  <rect x="10" y="27" width="5" height="3" fill="#3A4040"/>
  <rect x="17" y="27" width="5" height="3" fill="#3A4040"/>
  <rect x="9"  y="30" width="6" height="2" fill="#505858"/>
  <rect x="9"  y="30" width="6" height="1" fill="#60C8A0"/>
  <rect x="17" y="30" width="6" height="2" fill="#505858"/>
  <rect x="17" y="30" width="6" height="1" fill="#60C8A0"/>
</svg>
