<svg xmlns="http://www.w3.org/2000/svg" viewBox="0 0 32 32" style="image-rendering:pixelated;image-rendering:crisp-edges">
  <!-- 바다 마녀 — 산호 왕관 -->
  <rect x="9"  y="1" width="14" height="3" fill="#2A6080"/>
  <rect x="8"  y="2" width="16" height="2" fill="#3A7090"/>
  <rect x="9"  y="0" width="3"  height="3" fill="#FF8080"/>
  <rect x="14" y="0" width="4"  height="4" fill="#FF6060"/>
  <rect x="15" y="0" width="2"  height="3" fill="#FF9090"/>
  <rect x="20" y="0" width="3"  height="3" fill="#FF8080"/>
  <!-- 조개 보석 -->
  <rect x="10" y="1" width="2"  height="1" fill="#FFD0A0"/>
  <rect x="20" y="1" width="2"  height="1" fill="#FFD0A0"/>
  <!-- ══ 머리 (청록 물결) ══ -->
  <rect x="8"  y="3" width="16" height="3" fill="#1A6078"/>
  <rect x="7"  y="5" width="2"  height="8" fill="#1A6078"/>
  <rect x="23" y="5" width="2"  height="8" fill="#1A6078"/>
  <rect x="6"  y="7" width="2"  height="6" fill="#103050"/>
  <rect x="24" y="7" width="2"  height="6" fill="#103050"/>
  <rect x="7"  y="13" width="4" height="3" fill="#1A6078"/>
  <rect x="21" y="13" width="4" height="3" fill="#1A6078"/>
  <!-- ══ 얼굴 ══ -->
  <rect x="9"  y="5"  width="14" height="9" fill="#D8EEE8"/>
  <rect x="10" y="14" width="12" height="1" fill="#D8EEE8"/>
  <rect x="11" y="15" width="10" height="1" fill="#D8EEE8"/>
  <!-- 눈썹·눈 (바다빛) -->
  <rect x="10" y="6"  width="5" height="1" fill="#1A4860"/>
  <rect x="17" y="6"  width="5" height="1" fill="#1A4860"/>
  <rect x="10" y="8"  width="5" height="4" fill="#1A1838"/>
  <rect x="10" y="8"  width="5" height="3" fill="#1A6080"/>
  <rect x="10" y="8"  width="5" height="1" fill="#40C0D0"/>
  <rect x="14" y="8"  width="1" height="1" fill="#FFFFFF"/>
  <rect x="17" y="8"  width="5" height="4" fill="#1A1838"/>
  <rect x="17" y="8"  width="5" height="3" fill="#1A6080"/>
  <rect x="17" y="8"  width="5" height="1" fill="#40C0D0"/>
  <rect x="17" y="8"  width="1" height="1" fill="#FFFFFF"/>
  <!-- 볼·입 -->
  <rect x="9"  y="11" width="3" height="1" fill="#A0D8D0"/>
  <rect x="20" y="11" width="3" height="1" fill="#A0D8D0"/>
  <rect x="13" y="12" width="6" height="1" fill="#609090"/>
  <!-- 목 -->
  <rect x="14" y="16" width="4" height="2" fill="#D8EEE8"/>
  <!-- ══ 바다 로브 ══ -->
  <rect x="9"  y="18" width="14" height="2" fill="#1A6078"/>
  <rect x="9"  y="18" width="14" height="1" fill="#3A80A0"/>
  <rect x="9"  y="20" width="14" height="8" fill="#103060"/>
  <rect x="8"  y="21" width="16" height="7" fill="#1A4878"/>
  <rect x="10" y="20" width="4"  height="3" fill="#2A5888"/>
  <!-- 물결 파도 문양 -->
  <rect x="11" y="23" width="10" height="1" fill="#40C0D0"/>
  <rect x="10" y="25" width="12" height="1" fill="#3AABB8"/>
  <rect x="12" y="27" width="8"  height="1" fill="#40C0D0"/>
  <!-- 촉수 효과 (로브 옆) -->
  <rect x="5"  y="21" width="4"  height="9" fill="#1A4878"/>
  <rect x="5"  y="24" width="3"  height="2" fill="#1A6078"/>
  <rect x="23" y="21" width="4"  height="9" fill="#1A4878"/>
  <rect x="24" y="26" width="3"  height="2" fill="#1A6078"/>
  <!-- 다리·부츠 -->
  <rect x="10" y="28" width="5" height="2" fill="#103060"/>
  <rect x="17" y="28" width="5" height="2" fill="#103060"/>
  <rect x="9"  y="30" width="6" height="2" fill="#1A4878"/>
  <rect x="9"  y="30" width="6" height="1" fill="#40C0D0"/>
  <rect x="17" y="30" width="6" height="2" fill="#1A4878"/>
  <rect x="17" y="30" width="6" height="1" fill="#40C0D0"/>
</svg>
