<svg xmlns="http://www.w3.org/2000/svg" viewBox="0 0 64 44" width="64" height="44">
  <!-- 날개 위쪽 (위로 펼침) -->
  <path d="M20,24 Q14,8 4,10 Q6,18 14,24Z" fill="#111111"/>
  <path d="M8,10 Q4,3 1,7" stroke="#111" stroke-width="2.2" fill="none" stroke-linecap="round"/>
  <path d="M5,13 Q1,7 0,12" stroke="#0D0D0D" stroke-width="1.8" fill="none" stroke-linecap="round"/>
  <path d="M11,8 Q8,1 5,5" stroke="#111" stroke-width="1.8" fill="none" stroke-linecap="round"/>
  <!-- 몸통 -->
  <ellipse cx="26" cy="28" rx="14" ry="10" fill="#1A1A1A"/>
  <!-- 꼬리 깃털 -->
  <path d="M12,28 Q4,26 2,34 Q8,28 13,30Z" fill="#111"/>
  <path d="M12,30 Q5,32 4,40 Q10,32 13,32Z" fill="#0D0D0D"/>
  <!-- 머리 (크고 둥글게 — 귀여움 강조) -->
  <circle cx="40" cy="17" r="13" fill="#1A1A1A"/>
  <!-- 눈 흰자 -->
  <circle cx="45" cy="14" r="5.5" fill="white"/>
  <!-- 눈동자 -->
  <circle cx="46" cy="14" r="3.5" fill="#111"/>
  <!-- 눈 반짝임 -->
  <circle cx="47.5" cy="12.5" r="1.4" fill="white"/>
  <circle cx="45" cy="16.2" r="0.7" fill="white"/>
  <!-- 귀여운 볼터치 -->
  <ellipse cx="42" cy="20" rx="3.5" ry="2" fill="#FF6B6B" opacity="0.32"/>
  <!-- 부리 -->
  <path d="M53,14 L63,17 L53,20Z" fill="#FFA500"/>
  <line x1="57" y1="17" x2="62" y2="17.5" stroke="#CC7000" stroke-width="1"/>
  <!-- 콧구멍 -->
  <circle cx="57.5" cy="16.5" r="1" fill="#CC6600"/>
  <!-- 발 (비행 중 접힘) -->
  <path d="M30,36 L27,41" stroke="#FFA500" stroke-width="2" stroke-linecap="round"/>
  <path d="M27,41 L24,39" stroke="#FFA500" stroke-width="1.5" stroke-linecap="round"/>
  <path d="M27,41 L26,43" stroke="#FFA500" stroke-width="1.5" stroke-linecap="round"/>
  <path d="M27,41 L30,43" stroke="#FFA500" stroke-width="1.5" stroke-linecap="round"/>
</svg>
