<svg xmlns="http://www.w3.org/2000/svg" viewBox="0 0 32 32" style="image-rendering:pixelated">
  <!-- 엄마 — 성기사(Paladin) + 힐러 (가정의 수호자) -->
  <!-- 헤어 (다크브라운, 단아하게 묶음) -->
  <rect x="9"  y="1"  width="14" height="2"  fill="#220E04"/>
  <rect x="7"  y="3"  width="18" height="3"  fill="#331508"/>
  <rect x="5"  y="4"  width="3"  height="7"  fill="#220E04"/>
  <rect x="24" y="4"  width="3"  height="7"  fill="#220E04"/>
  <rect x="24" y="3"  width="5"  height="7"  fill="#2A1006"/>
  <rect x="26" y="4"  width="4"  height="5"  fill="#3A1A0A"/>
  <!-- 얼굴 -->
  <rect x="8"  y="6"  width="16" height="11" fill="#FFDDC8"/>
  <!-- 눈 (따뜻한 보라) -->
  <rect x="10" y="8"  width="5"  height="4"  fill="#FFFFFF"/>
  <rect x="18" y="8"  width="5"  height="4"  fill="#FFFFFF"/>
  <rect x="11" y="9"  width="2"  height="2"  fill="#8855BB"/>
  <rect x="19" y="9"  width="2"  height="2"  fill="#8855BB"/>
  <rect x="13" y="9"  width="1"  height="1"  fill="#FFFFFF"/>
  <rect x="21" y="9"  width="1"  height="1"  fill="#FFFFFF"/>
  <rect x="10" y="7"  width="5"  height="1"  fill="#331508"/>
  <rect x="18" y="7"  width="5"  height="1"  fill="#331508"/>
  <!-- 미소 -->
  <rect x="12" y="13" width="8"  height="2"  fill="#CC7788"/>
  <rect x="13" y="14" width="6"  height="1"  fill="#FFAACC"/>
  <!-- 볼 홍조 -->
  <rect x="9"  y="12" width="3"  height="2"  fill="#FFB0D8"/>
  <rect x="21" y="12" width="3"  height="2"  fill="#FFB0D8"/>
  <!-- 목 -->
  <rect x="13" y="17" width="6"  height="2"  fill="#FFDDC8"/>
  <!-- 팔라딘 로브 -->
  <rect x="5"  y="19" width="22" height="13" fill="#F0F0FF"/>
  <rect x="5"  y="19" width="22" height="2"  fill="#FFFFFF"/>
  <rect x="5"  y="19" width="1"  height="13" fill="#FFD700"/>
  <rect x="26" y="19" width="1"  height="13" fill="#FFD700"/>
  <rect x="5"  y="23" width="22" height="1"  fill="#FFD700"/>
  <!-- 성십자 -->
  <rect x="14" y="20" width="4"  height="8"  fill="#FFD700"/>
  <rect x="11" y="22" width="10" height="3"  fill="#FFD700"/>
  <rect x="15" y="21" width="2"  height="7"  fill="#FFEE88"/>
  <rect x="12" y="23" width="8"  height="1"  fill="#FFEE88"/>
  <!-- 힐링 글로우 -->
  <rect x="3"  y="21" width="2"  height="2"  fill="#FFCCEE"/>
  <rect x="27" y="21" width="2"  height="2"  fill="#FFCCEE"/>
</svg>
