<svg xmlns="http://www.w3.org/2000/svg" viewBox="0 0 16 16" style="image-rendering:pixelated">
  <!-- 놀람 -->
  <rect x="3" y="1" width="10" height="14" fill="#FFEE44"/>
  <rect x="1" y="3" width="14" height="10" fill="#FFEE44"/>
  <rect x="2" y="2" width="12" height="12" fill="#FFEE44"/>
  <!-- 동그란 눈 -->
  <rect x="4" y="5" width="4" height="4" fill="#1A1208"/>
  <rect x="5" y="5" width="4" height="4" fill="#FFFFFF"/>
  <rect x="6" y="6" width="2" height="2" fill="#1A1208"/>
  <rect x="7" y="6" width="1" height="1" fill="#FFFFFF"/>
  <rect x="8" y="5" width="4" height="4" fill="#1A1208"/>
  <rect x="9" y="5" width="4" height="4" fill="#FFFFFF"/>
  <rect x="10" y="6" width="2" height="2" fill="#1A1208"/>
  <rect x="11" y="6" width="1" height="1" fill="#FFFFFF"/>
  <!-- O자 입 -->
  <rect x="6" y="10" width="4" height="4" fill="#CC4400"/>
  <rect x="7" y="11" width="2" height="2" fill="#AA2200"/>
  <!-- 놀람 표시 -->
  <rect x="1" y="2" width="1" height="3" fill="#FF6600"/>
  <rect x="1" y="6" width="1" height="1" fill="#FF6600"/>
</svg>
