<svg xmlns="http://www.w3.org/2000/svg" viewBox="0 0 16 16" style="image-rendering:pixelated">
  <!-- 귀 (뾰족) -->
  <rect x="2" y="1" width="3" height="4" fill="#E8884A"/>
  <rect x="11" y="1" width="3" height="4" fill="#E8884A"/>
  <rect x="3" y="2" width="1" height="2" fill="#FF99AA"/>
  <rect x="12" y="2" width="1" height="2" fill="#FF99AA"/>
  <!-- 얼굴 -->
  <rect x="3" y="4" width="10" height="9" fill="#F0A060"/>
  <rect x="2" y="5" width="12" height="7" fill="#F0A060"/>
  <rect x="4" y="4" width="8" height="1" fill="#FFB870"/>
  <!-- 이마 줄무늬 -->
  <rect x="6" y="4" width="1" height="3" fill="#D07030"/>
  <rect x="8" y="4" width="1" height="3" fill="#D07030"/>
  <!-- 눈 (아몬드) -->
  <rect x="4" y="7" width="3" height="2" fill="#1A0808"/>
  <rect x="9" y="7" width="3" height="2" fill="#1A0808"/>
  <rect x="4" y="7" width="3" height="1" fill="#30A030"/>
  <rect x="9" y="7" width="3" height="1" fill="#30A030"/>
  <rect x="5" y="7" width="1" height="1" fill="#1A0808"/>
  <rect x="10" y="7" width="1" height="1" fill="#1A0808"/>
  <rect x="4" y="7" width="1" height="1" fill="#FFFFFF"/>
  <rect x="9" y="7" width="1" height="1" fill="#FFFFFF"/>
  <!-- 코 -->
  <rect x="7" y="9" width="2" height="1" fill="#FF8080"/>
  <!-- 수염 -->
  <rect x="2" y="10" width="3" height="1" fill="#FFFFFF"/>
  <rect x="11" y="10" width="3" height="1" fill="#FFFFFF"/>
  <rect x="2" y="11" width="3" height="1" fill="#FFFFFF"/>
  <rect x="11" y="11" width="3" height="1" fill="#FFFFFF"/>
  <!-- 입 -->
  <rect x="7" y="10" width="1" height="1" fill="#AA4444"/>
  <rect x="8" y="10" width="1" height="1" fill="#AA4444"/>
</svg>
