<svg xmlns="http://www.w3.org/2000/svg" viewBox="0 0 16 16" style="image-rendering:pixelated">
  <!-- 주둥이 (납작하게 긴) -->
  <rect x="8" y="2" width="8" height="3" fill="#406820"/>
  <rect x="8" y="5" width="8" height="2" fill="#304810"/>
  <!-- 이빨 -->
  <rect x="9" y="5" width="1" height="2" fill="#FFFFFF"/>
  <rect x="11" y="5" width="1" height="2" fill="#FFFFFF"/>
  <rect x="13" y="5" width="1" height="2" fill="#FFFFFF"/>
  <!-- 눈 (튀어나옴) -->
  <rect x="7" y="1" width="3" height="3" fill="#408020"/>
  <rect x="8" y="1" width="2" height="2" fill="#60A030"/>
  <rect x="8" y="1" width="1" height="1" fill="#1A1A1A"/>
  <!-- 머리/몸 -->
  <rect x="2" y="4" width="8" height="7" fill="#507828"/>
  <rect x="1" y="5" width="9" height="5" fill="#507828"/>
  <rect x="3" y="4" width="6" height="1" fill="#709840"/>
  <!-- 비늘 무늬 -->
  <rect x="3" y="6" width="2" height="1" fill="#406020"/>
  <rect x="6" y="6" width="2" height="1" fill="#406020"/>
  <rect x="3" y="8" width="2" height="1" fill="#406020"/>
  <rect x="6" y="8" width="2" height="1" fill="#406020"/>
  <!-- 꼬리 -->
  <rect x="0" y="7" width="3" height="3" fill="#406820"/>
  <rect x="0" y="9" width="2" height="2" fill="#304810"/>
  <!-- 발 -->
  <rect x="3" y="11" width="3" height="2" fill="#507828"/>
  <rect x="7" y="11" width="3" height="2" fill="#507828"/>
</svg>
