<svg xmlns="http://www.w3.org/2000/svg" viewBox="0 0 16 16" style="image-rendering:pixelated">
  <!-- 차원 소용돌이 (뒤) -->
  <rect x="0" y="4" width="3" height="7" fill="#0040A0"/>
  <rect x="13" y="4" width="3" height="7" fill="#0040A0"/>
  <rect x="1" y="3" width="2" height="9" fill="#0060C0"/>
  <!-- 갈기 (차원빛 파랑) -->
  <rect x="2" y="4" width="12" height="7" fill="#0050B0"/>
  <rect x="1" y="5" width="14" height="5" fill="#0060C0"/>
  <rect x="3" y="3" width="10" height="2" fill="#2080E0"/>
  <!-- 얼굴 (금빛) -->
  <rect x="5" y="4" width="6" height="7" fill="#D09020"/>
  <rect x="4" y="5" width="8" height="6" fill="#E0A030"/>
  <rect x="6" y="4" width="4" height="1" fill="#F0C040"/>
  <!-- 눈 (차원 소용돌이) -->
  <rect x="5" y="6" width="2" height="2" fill="#0080FF"/>
  <rect x="9" y="6" width="2" height="2" fill="#0080FF"/>
  <rect x="5" y="6" width="2" height="1" fill="#00C0FF"/>
  <rect x="9" y="6" width="2" height="1" fill="#00C0FF"/>
  <rect x="6" y="6" width="1" height="1" fill="#1A0808"/>
  <rect x="10" y="6" width="1" height="1" fill="#1A0808"/>
  <rect x="5" y="6" width="1" height="1" fill="#FFFFFF"/>
  <rect x="9" y="6" width="1" height="1" fill="#FFFFFF"/>
  <!-- 코 주변 -->
  <rect x="5" y="9" width="6" height="2" fill="#F0C060"/>
  <!-- 코 -->
  <rect x="6" y="9" width="4" height="2" fill="#1A0808"/>
  <!-- 수염 -->
  <rect x="2" y="10" width="3" height="1" fill="#D0A030"/>
  <rect x="11" y="10" width="3" height="1" fill="#D0A030"/>
</svg>
