<svg xmlns="http://www.w3.org/2000/svg" viewBox="0 0 16 16" style="image-rendering:pixelated">
  <!-- 목 (긴) -->
  <rect x="8" y="0" width="3" height="7" fill="#7DB820"/>
  <rect x="9" y="0" width="2" height="6" fill="#90D028"/>
  <!-- 머리 (작은) -->
  <rect x="9" y="0" width="5" height="4" fill="#7DB820"/>
  <rect x="10" y="0" width="4" height="3" fill="#90D028"/>
  <!-- 눈 -->
  <rect x="12" y="1" width="2" height="2" fill="#1A0808"/>
  <rect x="12" y="1" width="1" height="1" fill="#FFFFFF"/>
  <!-- 등 혹 -->
  <rect x="5" y="3" width="5" height="3" fill="#60A010"/>
  <!-- 몸통 (크게) -->
  <rect x="3" y="6" width="10" height="7" fill="#7DB820"/>
  <rect x="2" y="7" width="12" height="5" fill="#7DB820"/>
  <rect x="4" y="6" width="8" height="1" fill="#90D028"/>
  <!-- 배 -->
  <rect x="4" y="9" width="6" height="3" fill="#AADD40"/>
  <!-- 꼬리 -->
  <rect x="0" y="9" width="4" height="3" fill="#7DB820"/>
  <rect x="0" y="11" width="3" height="2" fill="#60A010"/>
  <!-- 발 -->
  <rect x="4" y="13" width="3" height="3" fill="#60A010"/>
  <rect x="9" y="13" width="3" height="3" fill="#60A010"/>
</svg>
