<svg xmlns="http://www.w3.org/2000/svg" viewBox="0 0 16 16" style="image-rendering:pixelated">
  <!-- 얼음 결정 (뒤) -->
  <rect x="0" y="4" width="2" height="2" fill="#A0E0FF"/>
  <rect x="14" y="4" width="2" height="2" fill="#A0E0FF"/>
  <rect x="1" y="2" width="1" height="4" fill="#C0F0FF"/>
  <rect x="14" y="2" width="1" height="4" fill="#C0F0FF"/>
  <!-- 귀 -->
  <rect x="3" y="1" width="3" height="4" fill="#C0E8FF"/>
  <rect x="10" y="1" width="3" height="4" fill="#C0E8FF"/>
  <rect x="4" y="2" width="1" height="2" fill="#E8F8FF"/>
  <rect x="11" y="2" width="1" height="2" fill="#E8F8FF"/>
  <!-- 얼굴 (빙결 늑대) -->
  <rect x="4" y="3" width="8" height="8" fill="#A0C8E8"/>
  <rect x="3" y="4" width="10" height="7" fill="#B0D8F8"/>
  <rect x="5" y="3" width="6" height="1" fill="#C8E8FF"/>
  <!-- 주둥이 -->
  <rect x="5" y="8" width="6" height="3" fill="#D8EEFF"/>
  <!-- 눈 (얼음빛 파랑) -->
  <rect x="5" y="5" width="3" height="2" fill="#1A1838"/>
  <rect x="8" y="5" width="3" height="2" fill="#1A1838"/>
  <rect x="5" y="5" width="3" height="1" fill="#4080FF"/>
  <rect x="8" y="5" width="3" height="1" fill="#4080FF"/>
  <rect x="5" y="5" width="1" height="1" fill="#FFFFFF"/>
  <rect x="8" y="5" width="1" height="1" fill="#FFFFFF"/>
  <!-- 코 (검파랑) -->
  <rect x="6" y="8" width="4" height="2" fill="#203060"/>
  <!-- 입김 (파랗게) -->
  <rect x="10" y="9" width="3" height="1" fill="#A0E0FF"/>
  <rect x="11" y="8" width="2" height="1" fill="#C0F0FF"/>
</svg>
