<svg xmlns="http://www.w3.org/2000/svg" viewBox="0 0 16 16" style="image-rendering:pixelated">
  <!-- 등껍질 -->
  <rect x="3" y="4" width="10" height="7" fill="#4A8A30"/>
  <rect x="2" y="5" width="12" height="5" fill="#4A8A30"/>
  <!-- 껍질 육각 무늬 -->
  <rect x="5" y="5" width="2" height="2" fill="#3A7020"/>
  <rect x="9" y="5" width="2" height="2" fill="#3A7020"/>
  <rect x="7" y="5" width="2" height="2" fill="#5AAA40"/>
  <rect x="5" y="8" width="2" height="2" fill="#5AAA40"/>
  <rect x="9" y="8" width="2" height="2" fill="#5AAA40"/>
  <rect x="7" y="8" width="2" height="2" fill="#3A7020"/>
  <!-- 테두리 테두리 -->
  <rect x="3" y="4" width="10" height="1" fill="#6ABB50"/>
  <!-- 머리 -->
  <rect x="6" y="2" width="4" height="3" fill="#70B850"/>
  <rect x="6" y="2" width="4" height="1" fill="#8ADA60"/>
  <!-- 눈 -->
  <rect x="7" y="2" width="1" height="1" fill="#1A0808"/>
  <rect x="9" y="2" width="1" height="1" fill="#1A0808"/>
  <!-- 발 -->
  <rect x="1" y="8" width="2" height="3" fill="#70B850"/>
  <rect x="13" y="8" width="2" height="3" fill="#70B850"/>
  <rect x="4" y="11" width="3" height="2" fill="#70B850"/>
  <rect x="9" y="11" width="3" height="2" fill="#70B850"/>
  <!-- 꼬리 -->
  <rect x="7" y="11" width="2" height="2" fill="#70B850"/>
</svg>
