<svg xmlns="http://www.w3.org/2000/svg" viewBox="0 0 32 32" style="image-rendering:pixelated">
  <!-- 마법 방패 (파란 룬) -->
  <rect x="4"  y="2"  width="24" height="22" fill="#1133CC"/>
  <rect x="2"  y="4"  width="28" height="18" fill="#1133CC"/>
  <rect x="4"  y="24" width="24" height="4"  fill="#1133CC"/>
  <rect x="8"  y="28" width="16" height="3"  fill="#0022AA"/>
  <rect x="12" y="31" width="8"  height="1"  fill="#001188"/>
  <!-- 하이라이트 -->
  <rect x="4"  y="2"  width="4"  height="10" fill="#4466EE"/>
  <rect x="8"  y="2"  width="8"  height="2"  fill="#4466EE"/>
  <!-- 마법 룬 테두리 -->
  <rect x="6"  y="5"  width="20" height="16" fill="#0022AA"/>
  <rect x="8"  y="7"  width="16" height="12" fill="#1133CC"/>
  <!-- 마법진 (중앙) -->
  <rect x="13" y="10" width="6"  height="6"  fill="#0022AA"/>
  <rect x="14" y="11" width="4"  height="4"  fill="#00AAFF"/>
  <rect x="15" y="12" width="2"  height="2"  fill="#FFFFFF"/>
  <!-- 룬 문자 (파란 빛) -->
  <rect x="9"  y="9"  width="2"  height="4"  fill="#44BBFF"/>
  <rect x="21" y="9"  width="2"  height="4"  fill="#44BBFF"/>
  <rect x="13" y="7"  width="6"  height="2"  fill="#44BBFF"/>
  <rect x="13" y="17" width="6"  height="2"  fill="#44BBFF"/>
  <!-- 리벳 -->
  <rect x="4"  y="4"  width="2"  height="2"  fill="#6688FF"/>
  <rect x="26" y="4"  width="2"  height="2"  fill="#6688FF"/>
  <rect x="4"  y="20" width="2"  height="2"  fill="#6688FF"/>
  <rect x="26" y="20" width="2"  height="2"  fill="#6688FF"/>
</svg>
