<svg xmlns="http://www.w3.org/2000/svg" viewBox="0 0 32 32" style="image-rendering:pixelated">
  <!-- 황금 방패 -->
  <rect x="4"  y="2"  width="24" height="22" fill="#FFD700"/>
  <rect x="2"  y="4"  width="28" height="18" fill="#FFD700"/>
  <rect x="4"  y="24" width="24" height="4"  fill="#FFD700"/>
  <rect x="8"  y="28" width="16" height="3"  fill="#EEB800"/>
  <rect x="12" y="31" width="8"  height="1"  fill="#CC9900"/>
  <!-- 하이라이트 -->
  <rect x="4"  y="2"  width="4"  height="10" fill="#FFEE88"/>
  <rect x="8"  y="2"  width="8"  height="2"  fill="#FFEE88"/>
  <!-- 장식 테두리 (안쪽) -->
  <rect x="6"  y="5"  width="20" height="16" fill="#EEB800"/>
  <rect x="8"  y="7"  width="16" height="12" fill="#FFD700"/>
  <!-- 문장 (별) -->
  <rect x="14" y="9"  width="4"  height="8"  fill="#CC8800"/>
  <rect x="12" y="11" width="8"  height="4"  fill="#CC8800"/>
  <rect x="14" y="9"  width="4"  height="1"  fill="#FFEE44"/>
  <!-- 금 리벳 -->
  <rect x="4"  y="4"  width="2"  height="2"  fill="#FFFF88"/>
  <rect x="26" y="4"  width="2"  height="2"  fill="#FFFF88"/>
  <rect x="4"  y="20" width="2"  height="2"  fill="#FFFF88"/>
  <rect x="26" y="20" width="2"  height="2"  fill="#FFFF88"/>
</svg>
