<svg xmlns="http://www.w3.org/2000/svg" viewBox="0 0 32 32" style="image-rendering:pixelated">
  <!-- 도끼 날 (철) -->
  <rect x="4"  y="4"  width="16" height="18" fill="#8898A8"/>
  <rect x="4"  y="4"  width="16" height="2"  fill="#AABBCC"/>
  <rect x="6"  y="6"  width="12" height="14" fill="#9AABB8"/>
  <rect x="18" y="8"  width="4"  height="10" fill="#7788A0"/>
  <!-- 날 끝 (뾰족) -->
  <rect x="20" y="6"  width="4"  height="2"  fill="#AABBCC"/>
  <rect x="20" y="18" width="4"  height="2"  fill="#AABBCC"/>
  <rect x="22" y="4"  width="2"  height="4"  fill="#CCDDE8"/>
  <rect x="22" y="18" width="2"  height="4"  fill="#CCDDE8"/>
  <!-- 날 하이라이트 -->
  <rect x="4"  y="6"  width="2"  height="12" fill="#CCDDE8"/>
  <!-- 손잡이 구멍 -->
  <rect x="8"  y="12" width="6"  height="6"  fill="#1A1A1A"/>
  <rect x="9"  y="13" width="4"  height="4"  fill="#333333"/>
  <!-- 손잡이 (나무) -->
  <rect x="10" y="18" width="4"  height="12" fill="#8B5E3C"/>
  <rect x="10" y="19" width="4"  height="2"  fill="#AA7A55"/>
  <rect x="10" y="24" width="4"  height="2"  fill="#AA7A55"/>
  <rect x="10" y="29" width="4"  height="2"  fill="#FFD700"/>
</svg>
