<svg xmlns="http://www.w3.org/2000/svg" viewBox="0 0 32 32" style="image-rendering:pixelated">
  <!-- 전쟁 해머 -->
  <!-- 해머 헤드 (철) -->
  <rect x="4"  y="2"  width="20" height="14" fill="#8898A8"/>
  <rect x="4"  y="2"  width="20" height="2"  fill="#AABBCC"/>
  <rect x="6"  y="4"  width="16" height="10" fill="#9AAABB"/>
  <!-- 헤드 하이라이트 -->
  <rect x="4"  y="3"  width="3"  height="8"  fill="#CCDDE8"/>
  <rect x="6"  y="2"  width="6"  height="2"  fill="#CCDDE8"/>
  <!-- 헤드 오른쪽 뾰족함 -->
  <rect x="24" y="6"  width="4"  height="6"  fill="#7788A0"/>
  <rect x="26" y="5"  width="2"  height="2"  fill="#AABBCC"/>
  <rect x="26" y="12" width="2"  height="2"  fill="#AABBCC"/>
  <!-- 손잡이 연결부 -->
  <rect x="12" y="14" width="8"  height="3"  fill="#FFD700"/>
  <rect x="13" y="14" width="6"  height="1"  fill="#FFEE66"/>
  <!-- 손잡이 (나무) -->
  <rect x="14" y="17" width="4"  height="13" fill="#8B5E3C"/>
  <rect x="14" y="18" width="4"  height="2"  fill="#AA7A55"/>
  <rect x="14" y="23" width="4"  height="2"  fill="#AA7A55"/>
  <!-- 끝 마개 -->
  <rect x="13" y="29" width="6"  height="3"  fill="#FFD700"/>
  <rect x="14" y="29" width="4"  height="1"  fill="#FFEE66"/>
</svg>
